SplineFontDB: 3.0
FontName: Istok-BoldItalic
FullName: Istok Bold Italic
FamilyName: Istok
Weight: Bold
Copyright: (C) 2009-2014 Andrey V. Panov(panov@canopus.iacp.dvo.ru), with Reserved Font Name Istok.
UComments: "2008-10-29: Created." 
Version: 1.0.3
ItalicAngle: -13
UnderlinePosition: -204
UnderlineWidth: 102
Ascent: 1548
Descent: 500
LayerCount: 2
Layer: 0 1 "+BBcEMAQ0BD0EOAQ5 +BD8EOwQwBD0A"  1
Layer: 1 1 "+BB8ENQRABDUENAQ9BDgEOQAA +BD8EOwQwBD0A"  0
XUID: [1021 513 629268104 9940963]
FSType: 0
OS2Version: 0
OS2_WeightWidthSlopeOnly: 0
OS2_UseTypoMetrics: 1
CreationTime: 1225286394
ModificationTime: 1418893626
PfmFamily: 33
TTFWeight: 700
TTFWidth: 5
LineGap: 0
VLineGap: 0
Panose: 2 0 7 3 3 4 3 9 2 4
OS2TypoAscent: 1548
OS2TypoAOffset: 0
OS2TypoDescent: -500
OS2TypoDOffset: 0
OS2TypoLinegap: 410
OS2WinAscent: 1950
OS2WinAOffset: 0
OS2WinDescent: 508
OS2WinDOffset: 0
HheadAscent: 1950
HheadAOffset: 0
HheadDescent: -508
HheadDOffset: 0
OS2FamilyClass: 2048
OS2Vendor: 'PfEd'
Lookup: 258 0 0 "LGC kerning"  {"LGC kerning subtable" [307,30,0] } ['kern' ('cyrl' <'dflt' > 'grek' <'dflt' > 'latn' <'dflt' > ) ]
MarkAttachClasses: 1
DEI: 91125
LangName: 1033 "" "" "Bold Italic" "" "" "" "" "" "Andrey V. Panov" "Andrey V. Panov" "" "http://code.google.com/p/istok" "http://code.google.com/u/andrej.panov/" "GNU General Public License with font exception" "http://www.gnu.org/licenses/gpl.html http://www.gnu.org/licenses/gpl-faq.html#FontException" 
LangName: 1049 "" "+BBgEQQRCBD4EOgAA" "" "" "" "" "" "" "" "+BBAA. +BBIA. +BB8EMAQ9BD4EMgAA" 
Encoding: UnicodeBmp
UnicodeInterp: none
NameList: Adobe Glyph List
DisplaySize: -48
AntiAlias: 1
FitToEm: 1
WinInfo: 8224 16 13
BeginPrivate: 8
BlueValues 47 [-34 0 1050 1070 1422 1423 1434 1468 1476 1496]
OtherBlues 41 [-420 -400 -370 -370 -350 -350 1136 1150]
BlueScale 9 0.0282857
StdHW 5 [200]
StdVW 5 [280]
StemSnapH 45 [164 180 186 196 200 224 236 244 248 256 284]
StemSnapV 29 [230 250 280 292 296 300 312]
ForceBold 4 true
EndPrivate

StartChar: dotlessi
Encoding: 305 305 0
Width: 552
GlyphClass: 1
Flags: W
HStem: 0 21G<46 266> 1030 20G<288.5 508>
VStem: 30 495
DStem2: 16.1479 0 296.148 0 0.224951 0.97437<54.1702 1086.47>
LayerCount: 2
Back
SplineSet
267 -1 m 2,0,-1
 244 0 l 1,1,-1
 178 0 l 1,2,3
 141 6 141 6 141 49 c 2,4,-1
 141 988 l 2,5,6
 141 1018 141 1018 153.5 1029.5 c 128,-1,7
 166 1041 166 1041 193 1041 c 2,8,-1
 215 1040 l 1,9,-1
 254 1040 l 1,10,-1
 272 1041 l 2,11,12
 317 1041 317 1041 317 991 c 2,13,-1
 317 70 l 1,14,-1
 318 50 l 2,15,16
 318 17 318 17 301 6 c 1,17,18
 300 6 300 6 291.5 2.5 c 128,-1,19
 283 -0.999984 283 -0.999984 267 -1 c 2,0,-1
EndSplineSet
Fore
SplineSet
76 0 m 2,0,1
 16 0 16 0 30 60 c 2,2,-1
 245 990 l 2,3,4
 259 1050 259 1050 318 1050 c 2,5,-1
 478 1050 l 2,6,7
 538 1050 538 1050 525 990 c 2,8,-1
 310 60 l 2,9,10
 296 0 296 0 236 0 c 2,11,-1
 76 0 l 2,0,1
EndSplineSet
EndChar

StartChar: afii10079
Encoding: 1085 1085 1
Width: 1191
GlyphClass: 1
Flags: W
HStem: 0 21G<46 266 686 906> 448 200<446 759> 1030 20G<288.5 508 928.5 1148>
DStem2: 16.1479 0 296.148 0 0.224951 0.97437<54.1702 522.641 728.087 1086.47> 656.148 0 936.148 0 0.224951 0.97437<54.1702 459.654 665.101 1086.47>
LayerCount: 2
Fore
SplineSet
76 0 m 2,0,1
 16 0 16 0 30 60 c 2,2,-1
 245 990 l 2,3,4
 259 1050 259 1050 318 1050 c 2,5,-1
 478 1050 l 2,6,7
 538 1050 538 1050 525 990 c 2,8,-1
 446 648 l 1,9,-1
 806 648 l 1,10,-1
 885 990 l 2,11,12
 899 1050 899 1050 958 1050 c 2,13,-1
 1118 1050 l 2,14,15
 1178 1050 1178 1050 1165 990 c 2,16,-1
 950 60 l 2,17,18
 936 0 936 0 876 0 c 2,19,-1
 716 0 l 2,20,21
 656 0 656 0 670 60 c 2,22,-1
 759 448 l 1,23,-1
 399 448 l 1,24,-1
 310 60 l 2,25,26
 296 0 296 0 236 0 c 2,27,-1
 76 0 l 2,0,1
EndSplineSet
EndChar

StartChar: o
Encoding: 111 111 2
Width: 1206
GlyphClass: 1
Flags: W
HStem: -20 196<416.261 669.463> 874 196<538.537 791.739>
VStem: 58 296<237.993 640.902> 854 296<409.098 812.007>
LayerCount: 2
Back
SplineSet
81.2061 525 m 256,0,1
 140.077 780 140.077 780 305.053 925 c 128,-1,2
 470.029 1070 470.029 1070 730.029 1070 c 256,3,4
 990.029 1070 990.029 1070 1088.05 925 c 128,-1,5
 1186.08 780 1186.08 780 1127.21 525 c 256,6,7
 1068.33 270 1068.33 270 903.358 125 c 128,-1,8
 738.383 -20 738.383 -20 478.383 -20 c 256,9,10
 218.383 -20 218.383 -20 120.358 125 c 128,-1,11
 22.334 270 22.334 270 81.2061 525 c 256,0,1
377.206 525 m 256,12,13
 333.341 335 333.341 335 373.486 255.5 c 128,-1,14
 413.633 176 413.633 176 523.633 176 c 256,15,16
 633.633 176 633.633 176 710.486 255.5 c 128,-1,17
 787.341 335 787.341 335 831.206 525 c 256,18,19
 875.07 715 875.07 715 834.925 794.5 c 128,-1,20
 794.779 874 794.779 874 684.779 874 c 256,21,22
 574.779 874 574.779 874 497.925 794.5 c 128,-1,23
 421.07 715 421.07 715 377.206 525 c 256,12,13
EndSplineSet
Fore
SplineSet
58 412 m 0,0,1
 58 637 58 637 224 853.5 c 128,-1,2
 390 1070 390 1070 690 1070 c 256,3,4
 950 1070 950 1070 1050 941.5 c 128,-1,5
 1150 813 1150 813 1150 638 c 0,6,7
 1150 413 1150 413 984 196.5 c 128,-1,8
 818 -20 818 -20 518 -20 c 256,9,10
 258 -20 258 -20 158 108.5 c 128,-1,11
 58 237 58 237 58 412 c 0,0,1
354 387 m 0,12,13
 354 287 354 287 402.5 231.5 c 128,-1,14
 451 176 451 176 536 176 c 256,15,16
 661 176 661 176 757.5 304.5 c 128,-1,17
 854 433 854 433 854 663 c 0,18,19
 854 763 854 763 805.5 818.5 c 128,-1,20
 757 874 757 874 672 874 c 256,21,22
 547 874 547 874 450.5 745.5 c 128,-1,23
 354 617 354 617 354 387 c 0,12,13
EndSplineSet
EndChar

StartChar: afii10088
Encoding: 1094 1094 5
Width: 1256
GlyphClass: 1
Flags: MW
HStem: -350 21G<800.5 975.5> -20 196<295 552.215> 0 200<854 1048> 1030 20G<286.5 506.5 930.5 1150.5>
DStem2: -66.4624 -350 212.915 -350 0.224951 0.97437<667.317 1445.66> 578.595 -350 857.637 -350 0.224951 0.97437<672.047 1445.43> 773.148 -350 1003.15 -350 0.224951 0.97437<42.5848 359.217>
LayerCount: 2
Back
SplineSet
76 0 m 2,0,1
 16 0 16 0 29.8525 60 c 2,2,-1
 244.56 990 l 2,3,4
 258.411 1050 258.411 1050 318.411 1050 c 2,5,-1
 478.411 1050 l 2,6,7
 538.412 1050 538.412 1050 524.56 990 c 2,8,-1
 342.174 200 l 1,9,-1
 688.174 200 l 1,10,-1
 870.56 990 l 2,11,12
 884.412 1050 884.412 1050 944.412 1050 c 2,13,-1
 1104.41 1050 l 2,14,15
 1164.41 1050 1164.41 1050 1150.56 990 c 2,16,-1
 968.174 200 l 1,17,-1
 1054.17 200 l 2,18,19
 1114.17 200 1114.17 200 1100.32 140 c 2,20,-1
 1001.05 -290 l 2,21,22
 987.196 -350 987.196 -350 932.196 -350 c 2,23,-1
 812.196 -350 l 2,24,25
 757.196 -350 757.196 -350 771.048 -290 c 2,26,-1
 838 0 l 1,27,-1
 76 0 l 2,0,1
EndSplineSet
Fore
SplineSet
115 436 m 2,0,-1
 243 990 l 2,1,2
 257 1050 257 1050 316 1050 c 2,3,-1
 476 1050 l 2,4,5
 537 1050 537 1050 523 990 c 2,6,-1
 411 508 l 2,7,8
 362 296 362 296 386 236 c 128,-1,9
 410 176 410 176 491 176 c 256,10,11
 592 176 592 176 674 295.5 c 128,-1,12
 756 415 756 415 806 635 c 2,13,-1
 887 990 l 2,14,15
 901 1050 901 1050 960 1050 c 2,16,-1
 1120 1050 l 2,17,18
 1181 1050 1181 1050 1167 990 c 2,19,-1
 1013 325 l 2,20,21
 1002 280 1002 280 1002 240 c 128,-1,22
 1002 200 1002 200 1048 200 c 2,23,-1
 1070 200 l 2,24,25
 1130 200 1130 200 1116 140 c 2,26,-1
 1017 -290 l 2,27,28
 1003 -350 1003 -350 948 -350 c 2,29,-1
 828 -350 l 2,30,31
 773 -350 773 -350 787 -290 c 2,32,-1
 854 0 l 1,33,-1
 842 0 l 2,34,35
 788 0 788 0 747.5 32 c 128,-1,36
 707 64 707 64 695 147 c 1,37,-1
 691 147 l 1,38,39
 611 53 611 53 538.5 16.5 c 128,-1,40
 466 -20 466 -20 366 -20 c 256,41,42
 224 -20 224 -20 141.5 87 c 128,-1,43
 59 194 59 194 115 436 c 2,0,-1
EndSplineSet
EndChar

StartChar: afii10077
Encoding: 1083 1083 7
Width: 1194
GlyphClass: 1
Flags: MW
HStem: -20 196<-39.5802 208.3> 850 200<675.63 854>
DStem2: 218.237 -20 444.47 -20 0.224951 0.97437<269.747 929.477> 653.531 -20 933.531 -20 0.224951 0.97437<74.6963 892.798>
LayerCount: 2
Back
SplineSet
-58.8467 -8 m 256,0,1
 -86.8457 5 -86.8457 5 -74.3809 33 c 2,2,-1
 -20.5225 158 l 2,3,4
 -7.13477 190 -7.13477 190 18.249 183 c 256,5,6
 44.6328 176 44.6328 176 66.6328 176 c 256,7,8
 163.633 176 163.633 176 236.104 275.5 c 128,-1,9
 308.575 375 308.575 375 400.692 774 c 2,10,-1
 450.56 990 l 2,11,12
 464.411 1050 464.411 1050 524.412 1050 c 2,13,-1
 1120.41 1050 l 2,14,15
 1180.41 1050 1180.41 1050 1166.56 990 c 2,16,-1
 951.853 60 l 2,17,18
 938 0 938 0 878 0 c 2,19,-1
 718 0 l 2,20,21
 658 0 658 0 671.853 60 c 2,22,-1
 854.238 850 l 1,23,-1
 648.238 850 l 1,24,-1
 618.918 723 l 2,25,26
 526.108 321 526.108 321 404.746 150.5 c 128,-1,27
 283.383 -20 283.383 -20 43.3828 -20 c 256,28,29
 -32.6172 -20 -32.6172 -20 -58.8467 -8 c 256,0,1
EndSplineSet
Fore
SplineSet
-52 -5 m 256,0,1
 -76 6 -76 6 -67 36 c 2,2,-1
 -32 158 l 2,3,4
 -23 190 -23 190 7 183 c 256,5,6
 36 176 36 176 67 176 c 256,7,8
 208 176 208 176 257 283.5 c 128,-1,9
 306 391 306 391 384 698 c 2,10,-1
 400 761 l 2,11,12
 439 915 439 915 528.5 982.5 c 128,-1,13
 618 1050 618 1050 825 1050 c 2,14,-1
 1120 1050 l 2,15,16
 1181 1050 1181 1050 1167 990 c 2,17,-1
 952 60 l 2,18,19
 938 0 938 0 878 0 c 2,20,-1
 718 0 l 2,21,22
 658 0 658 0 672 60 c 2,23,-1
 854 850 l 1,24,-1
 828 850 l 2,25,26
 710 850 710 850 674.5 829.5 c 128,-1,27
 639 809 639 809 619 730 c 2,28,-1
 604 671 l 2,29,30
 490 224 490 224 391 102 c 128,-1,31
 292 -20 292 -20 53 -20 c 256,32,33
 -19 -20 -19 -20 -52 -5 c 256,0,1
EndSplineSet
EndChar

StartChar: p
Encoding: 112 112 8
Width: 1192
GlyphClass: 1
Flags: MW
HStem: -400 21G<-46 174> -20 196<417.761 674.097> 874 196<624.046 789.936> 1030 20G<288.5 502>
VStem: 833 296<402.044 826.007>
DStem2: -75.8521 -400 204.148 -400 0.224951 0.97437<54.1702 569.672 742.724 1265.34 1408.59 1496.82>
LayerCount: 2
Back
SplineSet
76 0 m 6,0,1
 16 0 16 0 30 60 c 6,2,-1
 245 990 l 6,3,4
 259 1050 259 1050 318 1050 c 6,5,-1
 478 1050 l 6,6,7
 538 1050 538 1050 525 990 c 6,8,-1
 310 60 l 6,9,10
 296 0 296 0 236 0 c 6,11,-1
 76 0 l 6,0,1
-16 -400 m 2,0,1
 -76 -400 -76 -400 -62 -340 c 2,2,-1
 245 990 l 2,3,4
 259 1050 259 1050 318 1050 c 2,5,-1
 476 1050 l 2,6,7
 526 1050 526 1050 517 990 c 2,8,-1
 507 932 l 1,9,-1
 511 932 l 1,10,11
 583 1018 583 1018 653 1044 c 128,-1,12
 723 1070 723 1070 813 1070 c 256,13,14
 1048 1070 1048 1070 1106 907.5 c 128,-1,15
 1164 745 1164 745 1113 525 c 256,16,17
 1062 305 1062 305 929 142.5 c 128,-1,18
 796 -20 796 -20 561 -20 c 256,19,20
 471 -20 471 -20 413 6 c 128,-1,21
 355 32 355 32 323 118 c 1,22,-1
 319 118 l 1,23,24
 314 78 314 78 305 38 c 2,25,-1
 218 -340 l 2,26,27
 204 -400 204 -400 144 -400 c 2,28,-1
 -16 -400 l 2,0,1
407 480 m 2,29,30
 376 345 376 345 410 260.5 c 128,-1,31
 444 176 444 176 519 176 c 256,32,33
 654 176 654 176 717 270.5 c 128,-1,34
 780 365 780 365 817 525 c 256,35,36
 854 685 854 685 834.5 779.5 c 128,-1,37
 815 874 815 874 680 874 c 256,38,39
 605 874 605 874 532 789.5 c 128,-1,40
 459 705 459 705 428 570 c 2,41,-1
 407 480 l 2,29,30
EndSplineSet
Fore
SplineSet
-16 -400 m 2,0,1
 -76 -400 -76 -400 -62 -340 c 2,2,-1
 245 990 l 2,3,4
 259 1050 259 1050 318 1050 c 2,5,-1
 476 1050 l 2,6,7
 528 1050 528 1050 517 990 c 2,8,-1
 503 912 l 1,9,-1
 507 912 l 1,10,11
 579 998 579 998 636 1034 c 128,-1,12
 693 1070 693 1070 766 1070 c 256,13,14
 964 1070 964 1070 1046.5 940 c 128,-1,15
 1129 810 1129 810 1129 651 c 256,16,17
 1129 388 1129 388 968.5 184 c 128,-1,18
 808 -20 808 -20 596 -20 c 256,19,20
 524 -20 524 -20 446 -1 c 128,-1,21
 368 18 368 18 318 96 c 1,22,-1
 314 96 l 1,23,24
 309 54 309 54 300 16 c 2,25,-1
 218 -340 l 2,26,27
 204 -400 204 -400 144 -400 c 2,28,-1
 -16 -400 l 2,0,1
381 370 m 17,29,30
 381 274 381 274 414.5 225 c 128,-1,31
 448 176 448 176 548 176 c 256,32,33
 683 176 683 176 758 328 c 128,-1,34
 833 480 833 480 833 670 c 256,35,36
 833 774 833 774 794.5 824 c 128,-1,37
 756 874 756 874 688 874 c 256,38,39
 618 874 618 874 537.5 785 c 128,-1,40
 457 696 457 696 418 528 c 2,41,-1
 381 370 l 17,29,30
EndSplineSet
EndChar

StartChar: afii10086
Encoding: 1092 1092 12
Width: 1738
GlyphClass: 1
Flags: W
HStem: -400 21G<547 767> -20 196<385.715 540.921 1017.53 1223.29> 874 196<517.709 723.474 1200.08 1355.29> 1456 20G<980 1200>
VStem: 63 296<217.124 641.043> 1382 296<408.957 832.876>
DStem2: 517.148 -400 797.148 -400 0.224951 0.97437<54.1702 541.108 752.711 1208.85 1420.99 1934.07>
LayerCount: 2
Back
SplineSet
81.2061 525 m 256,0,1
 135.46 760 135.46 760 279.244 915 c 128,-1,2
 423.029 1070 423.029 1070 623.029 1070 c 256,3,4
 696.029 1070 696.029 1070 744.604 1046.5 c 128,-1,5
 793.178 1023 793.178 1023 825.323 937 c 1,6,-1
 829.323 937 l 1,7,8
 834.559 977 834.559 977 843.793 1017 c 2,9,-1
 935.909 1416 l 2,10,11
 949.762 1476 949.762 1476 1009.76 1476 c 2,12,-1
 1169.76 1476 l 2,13,14
 1229.76 1476 1229.76 1476 1215.91 1416 c 2,15,-1
 1123.79 1017 l 2,16,17
 1114.56 977 1114.56 977 1101.32 937 c 1,18,-1
 1105.32 937 l 1,19,20
 1177.18 1023 1177.18 1023 1236.6 1046.5 c 128,-1,21
 1296.03 1070 1296.03 1070 1369.03 1070 c 256,22,23
 1569.03 1070 1569.03 1070 1641.24 915 c 128,-1,24
 1713.46 760 1713.46 760 1659.21 525 c 256,25,26
 1604.95 290 1604.95 290 1461.17 135 c 128,-1,27
 1317.38 -20 1317.38 -20 1117.38 -20 c 256,28,29
 1044.38 -20 1044.38 -20 995.808 3.5 c 128,-1,30
 947.233 27 947.233 27 915.088 113 c 1,31,-1
 911.088 113 l 1,32,33
 905.854 73 905.854 73 896.619 33 c 2,34,-1
 810.505 -340 l 2,35,36
 796.652 -400 796.652 -400 736.652 -400 c 2,37,-1
 576.652 -400 l 2,38,39
 516.652 -400 516.652 -400 530.505 -340 c 2,40,-1
 616.619 33 l 2,41,42
 625.854 73 625.854 73 639.088 113 c 1,43,-1
 635.088 113 l 1,44,45
 563.233 27 563.233 27 503.808 3.5 c 128,-1,46
 444.383 -20 444.383 -20 371.383 -20 c 256,47,48
 171.383 -20 171.383 -20 99.167 135 c 128,-1,49
 26.9521 290 26.9521 290 81.2061 525 c 256,0,1
377.206 525 m 256,50,51
 341.421 370 341.421 370 358.527 273 c 128,-1,52
 375.633 176 375.633 176 475.633 176 c 256,53,54
 552.633 176 552.633 176 622.026 266.5 c 128,-1,55
 691.42 357 691.42 357 718.662 475 c 2,56,-1
 741.749 575 l 2,57,58
 768.991 693 768.991 693 741.385 783.5 c 128,-1,59
 713.779 874 713.779 874 636.779 874 c 256,60,61
 536.779 874 536.779 874 474.885 777 c 128,-1,62
 412.99 680 412.99 680 377.206 525 c 256,50,51
998.662 475 m 2,63,64
 971.42 357 971.42 357 999.026 266.5 c 128,-1,65
 1026.63 176 1026.63 176 1103.63 176 c 256,66,67
 1203.63 176 1203.63 176 1265.53 273 c 128,-1,68
 1327.42 370 1327.42 370 1363.21 525 c 256,69,70
 1398.99 680 1398.99 680 1381.88 777 c 128,-1,71
 1364.78 874 1364.78 874 1264.78 874 c 256,72,73
 1187.78 874 1187.78 874 1118.38 783.5 c 128,-1,74
 1048.99 693 1048.99 693 1021.75 575 c 2,75,-1
 998.662 475 l 2,63,64
EndSplineSet
Fore
SplineSet
63 414 m 256,0,1
 63 627 63 627 221 848.5 c 128,-1,2
 379 1070 379 1070 591 1070 c 256,3,4
 657 1070 657 1070 721 1052 c 128,-1,5
 785 1034 785 1034 826 937 c 1,6,-1
 835 937 l 1,7,8
 835 978 835 978 844 1017 c 2,9,-1
 936 1416 l 2,10,11
 950 1476 950 1476 1010 1476 c 2,12,-1
 1170 1476 l 2,13,14
 1230 1476 1230 1476 1216 1416 c 2,15,-1
 1121 1004 l 2,16,17
 1112 965 1112 965 1093 924 c 1,18,-1
 1102 924 l 1,19,20
 1169 1015 1169 1015 1229.5 1042.5 c 128,-1,21
 1290 1070 1290 1070 1343 1070 c 256,22,23
 1524 1070 1524 1070 1601 955 c 128,-1,24
 1678 840 1678 840 1678 636 c 256,25,26
 1678 423 1678 423 1520 201.5 c 128,-1,27
 1362 -20 1362 -20 1150 -20 c 256,28,29
 1084 -20 1084 -20 1020 -2 c 128,-1,30
 956 16 956 16 915 113 c 1,31,-1
 906 113 l 1,32,33
 906 72 906 72 897 33 c 2,34,-1
 811 -340 l 2,35,36
 797 -400 797 -400 737 -400 c 2,37,-1
 577 -400 l 2,38,39
 517 -400 517 -400 531 -340 c 2,40,-1
 620 46 l 1,41,42
 648 126 l 1,43,-1
 639 126 l 1,44,45
 572 35 572 35 511.5 7.5 c 128,-1,46
 451 -20 451 -20 398 -20 c 256,47,48
 217 -20 217 -20 140 95 c 128,-1,49
 63 210 63 210 63 414 c 256,0,1
359 396 m 256,50,51
 359 292 359 292 379 234 c 128,-1,52
 399 176 399 176 460 176 c 256,53,54
 543 176 543 176 620.5 280 c 128,-1,55
 698 384 698 384 723 493 c 2,56,-1
 764 672 l 17,57,58
 764 762 764 762 731.5 818 c 128,-1,59
 699 874 699 874 630 874 c 256,60,61
 511 874 511 874 435 718 c 128,-1,62
 359 562 359 562 359 396 c 256,50,51
977 378 m 17,63,64
 977 288 977 288 1009.5 232 c 128,-1,65
 1042 176 1042 176 1111 176 c 256,66,67
 1230 176 1230 176 1306 332 c 128,-1,68
 1382 488 1382 488 1382 654 c 256,69,70
 1382 758 1382 758 1362 816 c 128,-1,71
 1342 874 1342 874 1281 874 c 256,72,73
 1198 874 1198 874 1120.5 770 c 128,-1,74
 1043 666 1043 666 1018 557 c 2,75,-1
 977 378 l 17,63,64
EndSplineSet
EndChar

StartChar: afii10094
Encoding: 1100 1100 13
Width: 1062
VWidth: 1000
GlyphClass: 1
Flags: MW
HStem: -20 196<391.145 618.82> 468 196<470.131 721.5> 1030 20G<288.5 508.5>
VStem: 670 296<226.205 443.795>
DStem2: 11.881 -20 292.394 -20 0.224951 0.97437<686.141 1106.95>
LayerCount: 2
Back
SplineSet
76 0 m 2,0,1
 16 0 16 0 30 60 c 2,2,-1
 245 990 l 2,3,4
 259 1050 259 1050 318 1050 c 2,5,-1
 478 1050 l 2,6,7
 538 1050 538 1050 525 990 c 2,8,-1
 446 648 l 1,9,-1
 633 648 l 2,10,11
 873 648 873 648 925 551 c 128,-1,12
 977 454 977 454 947 324 c 256,13,14
 917 194 917 194 820 97 c 128,-1,15
 723 0 723 0 483 0 c 2,16,-1
 76 0 l 2,0,1
341 196 m 1,17,-1
 410 196 l 2,18,19
 530 196 530 196 582.5 225 c 128,-1,20
 635 254 635 254 651 324 c 256,21,22
 667 394 667 394 628 423 c 128,-1,23
 589 452 589 452 469 452 c 2,24,-1
 400 452 l 1,25,-1
 341 196 l 1,17,-1
EndSplineSet
Fore
SplineSet
110 405 m 6,0,-1
 245 990 l 6,1,2
 259 1050 259 1050 318 1050 c 2,3,-1
 478 1050 l 2,4,5
 539 1050 539 1050 525 990 c 6,6,-1
 451 667 l 6,7,8
 440 620 440 620 428 587 c 5,9,-1
 433 587 l 5,10,11
 466 628 466 628 533.5 646 c 132,-1,12
 601 664 601 664 657 664 c 260,13,14
 786 664 786 664 876 580 c 132,-1,15
 966 496 966 496 966 359 c 260,16,17
 966 222 966 222 842 101 c 132,-1,18
 718 -20 718 -20 451 -20 c 260,19,20
 226 -20 226 -20 150.5 116 c 132,-1,21
 75 252 75 252 110 405 c 6,0,-1
373 336 m 260,22,23
 355 260 355 260 390.5 218 c 132,-1,24
 426 176 426 176 487 176 c 260,25,26
 573 176 573 176 621.5 222 c 132,-1,27
 670 268 670 268 670 358 c 260,28,29
 670 415 670 415 635.5 441.5 c 132,-1,30
 601 468 601 468 559 468 c 260,31,32
 494 468 494 468 441.5 436 c 132,-1,33
 389 404 389 404 373 336 c 260,22,23
EndSplineSet
EndChar

StartChar: x
Encoding: 120 120 14
Width: 1046
GlyphClass: 1
Flags: MW
HStem: 0 21G<-75.5 214.5 664 895> 1030 20G<213 445.5 815 1104.5>
LayerCount: 2
Back
SplineSet
233 0 m 25,0,-1
 1144.41 1050 l 25,1,-1
-115 0 m 25,2,-1
 796.412 1050 l 25,3,-1
464.411 1050 m 25,4,-1
 937 0 l 25,5,-1
172.411 1050 m 25,6,-1
 645 0 l 25,7,-1
EndSplineSet
Fore
SplineSet
-33 0 m 2,0,1
 -118 0 -118 0 -52 73 c 2,2,-1
 402 572 l 1,3,-1
 205 977 l 2,4,5
 169 1050 169 1050 257 1050 c 2,6,-1
 423 1050 l 2,7,8
 468 1050 468 1050 482 1010 c 2,9,-1
 572 751 l 1,10,-1
 762 1010 l 2,11,12
 791 1050 791 1050 839 1050 c 2,13,-1
 1061 1050 l 2,14,15
 1148 1050 1148 1050 1081 977 c 2,16,-1
 680 539 l 1,17,-1
 904 73 l 2,18,19
 939 0 939 0 851 0 c 2,20,-1
 686 0 l 2,21,22
 642 0 642 0 627 40 c 2,23,-1
 508 358 l 1,24,-1
 268 40 l 2,25,26
 238 0 238 0 191 0 c 2,27,-1
 -33 0 l 2,0,1
EndSplineSet
EndChar

StartChar: c
Encoding: 99 99 15
Width: 1086
GlyphClass: 1
Flags: W
HStem: -20 196<411.388 679.141> 874 196<537.269 790.398>
VStem: 58 296<234.292 644.779>
LayerCount: 2
Back
SplineSet
58 412 m 4,0,1
 58 637 58 637 224 853.5 c 132,-1,2
 390 1070 390 1070 690 1070 c 260,3,4
 950 1070 950 1070 1050 941.5 c 132,-1,5
 1150 813 1150 813 1150 638 c 4,6,7
 1150 413 1150 413 984 196.5 c 132,-1,8
 818 -20 818 -20 518 -20 c 260,9,10
 258 -20 258 -20 158 108.5 c 132,-1,11
 58 237 58 237 58 412 c 4,0,1
354 387 m 4,12,13
 354 287 354 287 402.5 231.5 c 132,-1,14
 451 176 451 176 536 176 c 260,15,16
 661 176 661 176 757.5 304.5 c 132,-1,17
 854 433 854 433 854 663 c 4,18,19
 854 763 854 763 805.5 818.5 c 132,-1,20
 757 874 757 874 672 874 c 260,21,22
 547 874 547 874 450.5 745.5 c 132,-1,23
 354 617 354 617 354 387 c 4,12,13
EndSplineSet
Fore
SplineSet
58 412 m 256,0,1
 58 644 58 644 226 857 c 128,-1,2
 394 1070 394 1070 673 1070 c 256,3,4
 822 1070 822 1070 900 1025 c 128,-1,5
 978 980 978 980 1029 906 c 256,6,7
 1058 864 1058 864 1012 833 c 282,8,-1
 903 760 l 274,9,10
 864 734 864 734 826 790 c 256,11,12
 805 821 805 821 769 847.5 c 128,-1,13
 733 874 733 874 663 874 c 256,14,15
 550 874 550 874 452 748 c 128,-1,16
 354 622 354 622 354 387 c 256,17,18
 354 282 354 282 403 229 c 128,-1,19
 452 176 452 176 536 176 c 256,20,21
 614 176 614 176 663.5 209 c 128,-1,22
 713 242 713 242 760 301 c 256,23,24
 797 347 797 347 841 306 c 266,25,-1
 922 231 l 282,26,27
 961 195 961 195 920 143 c 256,28,29
 881 93 881 93 782.5 36.5 c 128,-1,30
 684 -20 684 -20 518 -20 c 256,31,32
 258 -20 258 -20 158 108.5 c 128,-1,33
 58 237 58 237 58 412 c 256,0,1
EndSplineSet
EndChar

StartChar: afii10068
Encoding: 1075 1075 16
Width: 980
GlyphClass: 1
Flags: W
HStem: -20 196<347.531 644.889> 874 196<335.021 625.613>
VStem: 33 296<195.369 370.967> 635 280<696.871 864.158>
DStem2: 299 570 429 400 0.924601 0.380936<-66.1018 376.74>
LayerCount: 2
Fore
SplineSet
33 253 m 256,0,1
 33 331 33 331 60.5 384.5 c 128,-1,2
 88 438 88 438 151.5 487 c 128,-1,3
 215 536 215 536 299 570 c 256,4,5
 378 602 378 602 439.5 627 c 128,-1,6
 501 652 501 652 549 673 c 256,7,8
 586 689 586 689 605.5 710.5 c 128,-1,9
 625 732 625 732 630 750.5 c 128,-1,10
 635 769 635 769 635 794 c 256,11,12
 635 815 635 815 623.5 834.5 c 128,-1,13
 612 854 612 854 591 864 c 128,-1,14
 570 874 570 874 522 874 c 256,15,16
 469 874 469 874 413.5 859 c 128,-1,17
 358 844 358 844 311 816 c 256,18,19
 260 785 260 785 234 824 c 258,20,-1
 181 904 l 258,21,22
 156 942 156 942 193 968 c 256,23,24
 255 1012 255 1012 365 1041 c 128,-1,25
 475 1070 475 1070 588 1070 c 256,26,27
 698 1070 698 1070 771 1040 c 128,-1,28
 844 1010 844 1010 879.5 946 c 128,-1,29
 915 882 915 882 915 801 c 256,30,31
 915 722 915 722 884.5 666 c 128,-1,32
 854 610 854 610 803 572 c 128,-1,33
 752 534 752 534 651 492 c 256,34,35
 585 464 585 464 536.5 445 c 128,-1,36
 488 426 488 426 429 400 c 256,37,38
 384 380 384 380 364 364 c 128,-1,39
 344 348 344 348 336.5 327.5 c 128,-1,40
 329 307 329 307 329 282 c 256,41,42
 329 259 329 259 340.5 233 c 128,-1,43
 352 207 352 207 380 191.5 c 128,-1,44
 408 176 408 176 465 176 c 256,45,46
 520 176 520 176 603.5 205 c 128,-1,47
 687 234 687 234 733 262 c 256,48,49
 785 293 785 293 805 262 c 258,50,-1
 863 174 l 258,51,52
 898 121 898 121 857 98 c 256,53,54
 760 42 760 42 654.5 11 c 128,-1,55
 549 -20 549 -20 423 -20 c 256,56,57
 262 -20 262 -20 185.5 23 c 128,-1,58
 109 66 109 66 71 122 c 128,-1,59
 33 178 33 178 33 253 c 256,0,1
EndSplineSet
EndChar

StartChar: n
Encoding: 110 110 18
Width: 1200
GlyphClass: 1
Flags: MW
HStem: 0 21G<46 266 696 916> 874 196<635.994 905.5> 1030 20G<288.5 507>
DStem2: 16.1479 0 296.148 0 0.224951 0.97437<54.1702 834.739 998.368 1086.08> 666.148 0 946.148 0 0.224951 0.97437<54.1702 832.507>
LayerCount: 2
Back
SplineSet
76 0 m 2,0,1
 16 0 16 0 30 60 c 2,2,-1
 245 990 l 2,3,4
 259 1050 259 1050 318 1050 c 2,5,-1
 476 1050 l 2,6,7
 536 1050 536 1050 523 990 c 2,8,-1
 509 932 l 1,9,-1
 513 932 l 1,10,11
 577 1011 577 1011 655 1040.5 c 128,-1,12
 733 1070 733 1070 833 1070 c 256,13,14
 989 1070 989 1070 1068.5 972 c 128,-1,15
 1148 874 1148 874 1088 614 c 2,16,-1
 960 60 l 2,17,18
 946 0 946 0 886 0 c 2,19,-1
 726 0 l 2,20,21
 666 0 666 0 680 60 c 2,22,-1
 791 542 l 2,23,24
 841 760 841 760 824.5 817 c 128,-1,25
 808 874 808 874 709 874 c 256,26,27
 604 874 604 874 532 792.5 c 128,-1,28
 460 711 460 711 401 454 c 2,29,-1
 310 60 l 2,30,31
 296 0 296 0 236 0 c 2,32,-1
 76 0 l 2,0,1
EndSplineSet
Fore
SplineSet
76 0 m 2,0,1
 16 0 16 0 30 60 c 2,2,-1
 245 990 l 2,3,4
 259 1050 259 1050 318 1050 c 2,5,-1
 476 1050 l 2,6,7
 538 1050 538 1050 523 990 c 2,8,-1
 504 912 l 1,9,-1
 508 912 l 1,10,11
 588 1006 588 1006 660.5 1038 c 128,-1,12
 733 1070 733 1070 833 1070 c 256,13,14
 978 1070 978 1070 1061 963 c 128,-1,15
 1144 856 1144 856 1088 614 c 2,16,-1
 960 60 l 2,17,18
 946 0 946 0 886 0 c 2,19,-1
 726 0 l 2,20,21
 666 0 666 0 680 60 c 2,22,-1
 791 542 l 2,23,24
 840 754 840 754 816 814 c 128,-1,25
 792 874 792 874 709 874 c 256,26,27
 604 874 604 874 523 757 c 128,-1,28
 442 640 442 640 393 424 c 2,29,-1
 310 60 l 2,30,31
 296 0 296 0 236 0 c 2,32,-1
 76 0 l 2,0,1
EndSplineSet
EndChar

StartChar: afii10090
Encoding: 1096 1096 19
Width: 1750
GlyphClass: 1
Flags: W
HStem: -20 196<293.5 554.255 918.5 1120.26> 0 21G<1247 1464.5> 1030 20G<287 507 887 1107 1487 1707>
DStem2: 9.49195 -20 290.022 -20 0.224951 0.97437<327.966 1107> 610.089 -20 890.405 -20 0.224951 0.97437<328.603 1106.9> 1211.53 -20 1489.53 -20 0.224951 0.97437<74.7235 174.522 338.39 1106.58>
LayerCount: 2
Fore
SplineSet
118 450 m 2,0,-1
 243 990 l 2,1,2
 257 1050 257 1050 317 1050 c 2,3,-1
 477 1050 l 2,4,5
 537 1050 537 1050 523 990 c 2,6,-1
 417 530 l 2,7,8
 374 342 374 342 384 259 c 128,-1,9
 394 176 394 176 469 176 c 256,10,11
 539 176 539 176 616 257.5 c 128,-1,12
 693 339 693 339 762 638 c 2,13,-1
 843 990 l 2,14,15
 857 1050 857 1050 917 1050 c 2,16,-1
 1077 1050 l 2,17,18
 1137 1050 1137 1050 1123 990 c 2,19,-1
 1022 550 l 2,20,21
 975 345 975 345 984.5 260.5 c 128,-1,22
 994 176 994 176 1069 176 c 256,23,24
 1138 176 1138 176 1222 286 c 128,-1,25
 1306 396 1306 396 1362 638 c 2,26,-1
 1443 990 l 2,27,28
 1457 1050 1457 1050 1517 1050 c 2,29,-1
 1677 1050 l 2,30,31
 1737 1050 1737 1050 1723 990 c 2,32,-1
 1508 60 l 2,33,34
 1494 0 1494 0 1435 0 c 2,35,-1
 1277 0 l 2,36,37
 1217 0 1217 0 1230 60 c 2,38,-1
 1251 150 l 1,39,-1
 1247 150 l 1,40,41
 1201 81 1201 81 1129 30.5 c 128,-1,42
 1057 -20 1057 -20 981 -20 c 256,43,44
 856 -20 856 -20 801.5 51.5 c 128,-1,45
 747 123 747 123 747 211 c 1,46,-1
 743 211 l 1,47,48
 670 99 670 99 580 39.5 c 128,-1,49
 490 -20 490 -20 361 -20 c 256,50,51
 226 -20 226 -20 142 86 c 128,-1,52
 58 192 58 192 118 450 c 2,0,-1
EndSplineSet
EndChar

StartChar: afii10091
Encoding: 1097 1097 20
Width: 1812
GlyphClass: 1
Flags: MW
HStem: -350 21G<1356.5 1531.5> -20 196<293.5 554.255 918.5 1120.26> 0 200<1410 1604> 1030 20G<287 507 887 1107 1487 1707>
DStem2: -66.6946 -350 213.836 -350 0.224951 0.97437<666.646 1445.68> 533.902 -350 814.219 -350 0.224951 0.97437<663.955 1445.58> 1133.9 -350 1413.64 -350 0.224951 0.97437<673.161 1445.58> 1329.15 -350 1559.15 -350 0.224951 0.97437<42.5848 359.217>
LayerCount: 2
Back
SplineSet
118 450 m 6,0,-1
 243 990 l 6,1,2
 257 1050 257 1050 317 1050 c 6,3,-1
 477 1050 l 6,4,5
 537 1050 537 1050 523 990 c 6,6,-1
 417 530 l 6,7,8
 374 342 374 342 384 259 c 132,-1,9
 394 176 394 176 469 176 c 260,10,11
 539 176 539 176 616 257.5 c 132,-1,12
 693 339 693 339 762 638 c 6,13,-1
 843 990 l 6,14,15
 857 1050 857 1050 917 1050 c 6,16,-1
 1077 1050 l 6,17,18
 1137 1050 1137 1050 1123 990 c 6,19,-1
 1022 550 l 6,20,21
 975 345 975 345 984.5 260.5 c 132,-1,22
 994 176 994 176 1069 176 c 260,23,24
 1138 176 1138 176 1222 286 c 132,-1,25
 1306 396 1306 396 1362 638 c 6,26,-1
 1443 990 l 6,27,28
 1457 1050 1457 1050 1517 1050 c 6,29,-1
 1677 1050 l 6,30,31
 1737 1050 1737 1050 1723 990 c 6,32,-1
 1508 60 l 6,33,34
 1494 0 1494 0 1435 0 c 6,35,-1
 1277 0 l 6,36,37
 1217 0 1217 0 1230 60 c 6,38,-1
 1251 150 l 5,39,-1
 1247 150 l 5,40,41
 1201 81 1201 81 1129 30.5 c 132,-1,42
 1057 -20 1057 -20 981 -20 c 260,43,44
 856 -20 856 -20 801.5 51.5 c 132,-1,45
 747 123 747 123 747 211 c 5,46,-1
 743 211 l 5,47,48
 670 99 670 99 580 39.5 c 132,-1,49
 490 -20 490 -20 361 -20 c 260,50,51
 226 -20 226 -20 142 86 c 132,-1,52
 58 192 58 192 118 450 c 6,0,-1
EndSplineSet
Fore
SplineSet
118 450 m 2,0,-1
 243 990 l 2,1,2
 257 1050 257 1050 317 1050 c 2,3,-1
 477 1050 l 2,4,5
 537 1050 537 1050 523 990 c 2,6,-1
 417 530 l 2,7,8
 374 343 374 343 384 259.5 c 128,-1,9
 394 176 394 176 469 176 c 256,10,11
 539 176 539 176 616 258 c 128,-1,12
 693 340 693 340 762 638 c 2,13,-1
 843 990 l 2,14,15
 857 1050 857 1050 917 1050 c 2,16,-1
 1077 1050 l 2,17,18
 1137 1050 1137 1050 1123 990 c 2,19,-1
 1022 550 l 2,20,21
 975 345 975 345 984.5 260.5 c 128,-1,22
 994 176 994 176 1069 176 c 256,23,24
 1138 176 1138 176 1222 286.5 c 128,-1,25
 1306 397 1306 397 1362 638 c 2,26,-1
 1443 990 l 2,27,28
 1457 1050 1457 1050 1517 1050 c 2,29,-1
 1677 1050 l 2,30,31
 1737 1050 1737 1050 1723 990 c 2,32,-1
 1569 325 l 2,33,34
 1558 279 1558 279 1558 239.5 c 128,-1,35
 1558 200 1558 200 1604 200 c 2,36,-1
 1626 200 l 2,37,38
 1686 200 1686 200 1672 140 c 2,39,-1
 1573 -290 l 2,40,41
 1559 -350 1559 -350 1504 -350 c 2,42,-1
 1384 -350 l 2,43,44
 1329 -350 1329 -350 1343 -290 c 2,45,-1
 1410 0 l 1,46,-1
 1398 0 l 2,47,48
 1344 0 1344 0 1303.5 33.5 c 128,-1,49
 1263 67 1263 67 1251 150 c 1,50,-1
 1247 150 l 1,51,52
 1201 81 1201 81 1129 30.5 c 128,-1,53
 1057 -20 1057 -20 981 -20 c 256,54,55
 856 -20 856 -20 801.5 51.5 c 128,-1,56
 747 123 747 123 747 211 c 1,57,-1
 743 211 l 1,58,59
 670 99 670 99 580 39.5 c 128,-1,60
 490 -20 490 -20 361 -20 c 256,61,62
 226 -20 226 -20 142 86 c 128,-1,63
 58 192 58 192 118 450 c 2,0,-1
EndSplineSet
EndChar

StartChar: afii10069
Encoding: 1076 1076 21
Width: 1224
GlyphClass: 1
Flags: W
HStem: -20 196<407.871 671.09> 862 196<534.758 793.107> 1300 196<490.551 836.461>
VStem: 58 296<229.514 640.873> 854 340<542.378 1040.32> 927 267<903 1192.58>
LayerCount: 2
Back
SplineSet
58 412 m 0,0,1
 58 637 58 637 224 853.5 c 128,-1,2
 390 1070 390 1070 690 1070 c 256,3,4
 950 1070 950 1070 1050 941.5 c 128,-1,5
 1150 813 1150 813 1150 638 c 0,6,7
 1150 413 1150 413 984 196.5 c 128,-1,8
 818 -20 818 -20 518 -20 c 256,9,10
 258 -20 258 -20 158 108.5 c 128,-1,11
 58 237 58 237 58 412 c 0,0,1
354 387 m 0,12,13
 354 287 354 287 402.5 231.5 c 128,-1,14
 451 176 451 176 536 176 c 256,15,16
 661 176 661 176 757.5 304.5 c 128,-1,17
 854 433 854 433 854 663 c 0,18,19
 854 763 854 763 805.5 818.5 c 128,-1,20
 757 874 757 874 672 874 c 256,21,22
 547 874 547 874 450.5 745.5 c 128,-1,23
 354 617 354 617 354 387 c 0,12,13
EndSplineSet
Fore
SplineSet
58 412 m 0,0,1
 58 636 58 636 222.5 847 c 128,-1,2
 387 1058 387 1058 670 1058 c 256,3,4
 756 1058 756 1058 820.5 1016.5 c 128,-1,5
 885 975 885 975 919 903 c 1,6,-1
 923 903 l 17,7,8
 927 937 927 937 927 984 c 0,9,10
 927 1128 927 1128 871.5 1214 c 128,-1,11
 816 1300 816 1300 711 1300 c 256,12,13
 651 1300 651 1300 586.5 1286 c 128,-1,14
 522 1272 522 1272 472 1247 c 256,15,16
 415 1218 415 1218 388 1271 c 2,17,-1
 358 1329 l 2,18,19
 327 1389 327 1389 373 1416 c 256,20,21
 441 1455 441 1455 533.5 1475.5 c 152,-1,22
 626 1496 626 1496 730 1496 c 256,23,24
 942 1496 942 1496 1068 1352.5 c 128,-1,25
 1194 1209 1194 1209 1194 876 c 0,26,27
 1194 507 1194 507 1008 243.5 c 128,-1,28
 822 -20 822 -20 518 -20 c 256,29,30
 249 -20 249 -20 153.5 108.5 c 128,-1,31
 58 237 58 237 58 412 c 0,0,1
354 387 m 0,32,33
 354 273 354 273 402.5 224.5 c 128,-1,34
 451 176 451 176 536 176 c 256,35,36
 661 176 661 176 757.5 307 c 128,-1,37
 854 438 854 438 854 647 c 0,38,39
 854 747 854 747 805.5 804.5 c 128,-1,40
 757 862 757 862 672 862 c 256,41,42
 547 862 547 862 450.5 735.5 c 128,-1,43
 354 609 354 609 354 387 c 0,32,33
EndSplineSet
EndChar

StartChar: afii10089
Encoding: 1095 1095 23
Width: 1130
GlyphClass: 1
Flags: W
HStem: 0 21G<624 844> 380 196<400 664.978> 436 140<534.729 697.623> 1030 20G<252.5 472.5 866.5 1086.5>
DStem2: -19.919 0 259.851 0 0.224951 0.97437<692.525 1086.52> 594.148 0 874.148 0 0.224951 0.97437<54.1702 447.163 606.56 1086.5>
LayerCount: 2
Back
SplineSet
150 736 m 2,0,1
 209 990 l 2,2,3
 223 1050 223 1050 282 1050 c 2,4,-1
 442 1050 l 2,5,6
 502 1050 502 1050 489 990 c 2,7,-1
 427 724 l 2,8,9
 405 628 405 628 441 602 c 128,-1,10
 477 576 477 576 557 576 c 256,11,12
 599 576 599 576 646 585 c 128,-1,13
 693 594 693 594 743 646 c 9,14,-1
 823 990 l 2,15,16
 837 1050 837 1050 896 1050 c 2,17,-1
 1056 1050 l 2,18,19
 1116 1050 1116 1050 1103 990 c 2,20,-1
 888 60 l 2,21,22
 874 0 874 0 814 0 c 2,23,-1
 654 0 l 2,24,25
 594 0 594 0 608 60 c 2,26,-1
 676 356 l 2,27,28
 685 396 685 396 699 436 c 1,29,-1
 693 436 l 1,30,31
 626 406 626 406 539 393 c 128,-1,32
 452 380 452 380 400 380 c 256,33,34
 218 380 218 380 166 479 c 128,-1,35
 114 578 114 578 150 736 c 2,0,1
EndSplineSet
Fore
SplineSet
150 736 m 2,0,-1
 209 990 l 2,1,2
 223 1050 223 1050 282 1050 c 2,3,-1
 442 1050 l 2,4,5
 503 1050 503 1050 489 990 c 2,6,-1
 427 724 l 2,7,8
 406 634 406 634 435 605 c 128,-1,9
 464 576 464 576 537 576 c 256,10,11
 576 576 576 576 634.5 583.5 c 128,-1,12
 693 591 693 591 743 646 c 9,13,-1
 823 990 l 2,14,15
 837 1050 837 1050 896 1050 c 2,16,-1
 1056 1050 l 2,17,18
 1117 1050 1117 1050 1103 990 c 2,19,-1
 888 60 l 2,20,21
 874 0 874 0 814 0 c 2,22,-1
 654 0 l 2,23,24
 594 0 594 0 608 60 c 2,25,-1
 676 356 l 2,26,27
 686 398 686 398 699 436 c 1,28,-1
 693 436 l 1,29,30
 626 406 626 406 547 393 c 128,-1,31
 468 380 468 380 400 380 c 256,32,33
 244 380 244 380 179 481 c 128,-1,34
 114 582 114 582 150 736 c 2,0,-1
EndSplineSet
EndChar

StartChar: a
Encoding: 97 97 24
Width: 1178
GlyphClass: 1
Flags: MW
HStem: -20 196<318.5 551.184> 0 21G<681 892> 874 196<528.31 761.514> 1030 20G<931.5 1134.5>
VStem: 62 296<222.294 627.489>
DStem2: 645.531 -20 917.531 -20 0.224951 0.97437<73.0318 161.255 315.994 815.229 998.856 1105.23>
LayerCount: 2
Back
SplineSet
66 399 m 260,0,1
 66 662 66 662 226.5 866 c 132,-1,2
 387 1070 387 1070 599 1070 c 260,3,4
 671 1070 671 1070 749 1051 c 132,-1,5
 827 1032 827 1032 877 954 c 5,6,-1
 881 954 l 5,7,-1
 893 990 l 6,8,9
 913 1050 913 1050 960 1050 c 6,10,-1
 1118 1050 l 6,11,12
 1179 1050 1179 1050 1165 990 c 6,13,-1
 858 -340 l 6,14,15
 844 -400 844 -400 784 -400 c 6,16,-1
 624 -400 l 6,17,18
 564 -400 564 -400 578 -340 c 6,19,-1
 670 58 l 6,20,21
 680 101 680 101 692 138 c 5,22,-1
 688 138 l 5,23,24
 616 52 616 52 559 16 c 132,-1,25
 502 -20 502 -20 429 -20 c 260,26,27
 231 -20 231 -20 148.5 110 c 132,-1,28
 66 240 66 240 66 399 c 260,0,1
362 380 m 260,29,30
 362 276 362 276 400.5 226 c 132,-1,31
 439 176 439 176 507 176 c 260,32,33
 577 176 577 176 657.5 265 c 132,-1,34
 738 354 738 354 777 522 c 6,35,-1
 814 680 l 21,36,37
 814 776 814 776 780.5 825 c 132,-1,38
 747 874 747 874 647 874 c 260,39,40
 512 874 512 874 437 722 c 132,-1,41
 362 570 362 570 362 380 c 260,29,30
EndSplineSet
Fore
SplineSet
62 379 m 256,0,1
 62 660 62 660 244.5 865 c 128,-1,2
 427 1070 427 1070 652 1070 c 256,3,4
 697 1070 697 1070 756 1047 c 128,-1,5
 815 1024 815 1024 863 954 c 1,6,-1
 867 954 l 1,7,-1
 884 990 l 2,8,9
 912 1050 912 1050 951 1050 c 2,10,-1
 1104 1050 l 2,11,12
 1165 1050 1165 1050 1151 990 c 2,13,-1
 936 60 l 2,14,15
 922 0 922 0 862 0 c 2,16,-1
 709 0 l 2,17,18
 653 0 653 0 664 60 c 2,19,-1
 678 138 l 1,20,-1
 674 138 l 1,21,22
 615 66 615 66 549 23 c 128,-1,23
 483 -20 483 -20 398 -20 c 256,24,25
 239 -20 239 -20 150.5 101 c 128,-1,26
 62 222 62 222 62 379 c 256,0,1
358 360 m 256,27,28
 358 274 358 274 396.5 225 c 128,-1,29
 435 176 435 176 483 176 c 256,30,31
 569 176 569 176 645.5 262.5 c 128,-1,32
 722 349 722 349 763 522 c 2,33,-1
 800 680 l 17,34,35
 800 771 800 771 767 822.5 c 128,-1,36
 734 874 734 874 648 874 c 256,37,38
 524 874 524 874 441 716 c 128,-1,39
 358 558 358 558 358 360 c 256,27,28
EndSplineSet
EndChar

StartChar: afii10067
Encoding: 1074 1074 26
Width: 1120
VWidth: 1000
GlyphClass: 1
Flags: W
HStem: -20 196<399.886 654.136> 874 196<530 756.603>
VStem: 58 297<221.38 500.294> 694 296<214.023 425.045> 776 274<715.743 857.583>
LayerCount: 2
Back
SplineSet
58 415 m 260,0,1
 58 646 58 646 223 858 c 132,-1,2
 388 1070 388 1070 679 1070 c 260,3,4
 880 1070 880 1070 995 974.5 c 132,-1,5
 1110 879 1110 879 1110 754 c 260,6,7
 1110 600 1110 600 935.5 526 c 132,-1,8
 761 452 761 452 566 418 c 6,9,-1
 357 382 l 5,10,11
 356 369 356 369 356 354 c 4,12,13
 356 290 356 290 391 233 c 132,-1,14
 426 176 426 176 552 176 c 260,15,16
 618 176 618 176 684.5 200 c 132,-1,17
 751 224 751 224 814 274 c 260,18,19
 865 315 865 315 895 274 c 270,20,-1
 959 187 l 286,21,22
 994 139 994 139 951 99 c 260,23,24
 891 44 891 44 788.5 12 c 132,-1,25
 686 -20 686 -20 534 -20 c 260,26,27
 258 -20 258 -20 158 107 c 132,-1,28
 58 234 58 234 58 415 c 260,0,1
370 570 m 5,29,-1
 589 606 l 6,30,31
 708 626 708 626 778 658 c 132,-1,32
 848 690 848 690 848 749 c 260,33,34
 848 792 848 792 799 833 c 132,-1,35
 750 874 750 874 670 874 c 260,36,37
 556 874 556 874 480 786 c 132,-1,38
 404 698 404 698 370 570 c 5,29,-1
EndSplineSet
Fore
SplineSet
58 404 m 256,0,1
 58 632 58 632 217 851 c 128,-1,2
 376 1070 376 1070 672 1070 c 256,3,4
 842 1070 842 1070 946 1007 c 128,-1,5
 1050 944 1050 944 1050 834 c 256,6,7
 1050 728 1050 728 985 670 c 128,-1,8
 920 612 920 612 770 568 c 1,9,-1
 770 566 l 1,10,11
 880 554 880 554 935 474 c 128,-1,12
 990 394 990 394 990 324 c 256,13,14
 990 146 990 146 858 63 c 128,-1,15
 726 -20 726 -20 482 -20 c 256,16,17
 288 -20 288 -20 173 93 c 128,-1,18
 58 206 58 206 58 404 c 256,0,1
355 356 m 256,19,20
 355 284 355 284 391.5 230 c 128,-1,21
 428 176 428 176 524 176 c 256,22,23
 614 176 614 176 654 214 c 128,-1,24
 694 252 694 252 694 320 c 256,25,26
 694 398 694 398 650 426 c 128,-1,27
 606 454 606 454 532 454 c 256,28,29
 488 454 488 454 446 443 c 128,-1,30
 404 432 404 432 361 422 c 1,31,32
 355 384 355 384 355 356 c 256,19,20
382 614 m 1,33,34
 612 666 612 666 694 697 c 128,-1,35
 776 728 776 728 776 794 c 256,36,37
 776 836 776 836 747 855 c 128,-1,38
 718 874 718 874 654 874 c 256,39,40
 594 874 594 874 518 823 c 128,-1,41
 442 772 442 772 382 614 c 1,33,34
EndSplineSet
EndChar

StartChar: afii10092
Encoding: 1098 1098 27
Width: 1309
VWidth: 1000
GlyphClass: 1
Flags: MW
HStem: -20 196<638.145 865.82> 468 196<717.131 968.5> 468 119<675.945 739.918> 850 200<160.195 460>
VStem: 917 296<226.205 443.795>
DStem2: 460 850 698 667 0.225499 0.974243<-206.651 0>
LayerCount: 2
Back
SplineSet
183 850 m 2,0,1
 123 850 123 850 135 900 c 2,2,-1
 158 1000 l 2,3,4
 170 1050 170 1050 229 1050 c 2,5,-1
 726 1050 l 2,6,7
 786 1050 786 1050 773 990 c 2,8,-1
 694 648 l 1,9,-1
 881 648 l 2,10,11
 1121 648 1121 648 1173 551 c 128,-1,12
 1225 454 1225 454 1195 324 c 256,13,14
 1165 194 1165 194 1068 97 c 128,-1,15
 971 0 971 0 731 0 c 2,16,-1
 324 0 l 2,17,18
 264 0 264 0 278 60 c 2,19,-1
 460 850 l 17,20,-1
 183 850 l 2,0,1
589 196 m 1,21,-1
 658 196 l 2,22,23
 778 196 778 196 830.5 225 c 128,-1,24
 883 254 883 254 899 324 c 256,25,26
 915 394 915 394 876 423 c 128,-1,27
 837 452 837 452 717 452 c 2,28,-1
 648 452 l 1,29,-1
 589 196 l 1,21,-1
EndSplineSet
Fore
SplineSet
183 850 m 2,0,1
 123 850 123 850 135 900 c 2,2,-1
 158 1000 l 2,3,4
 170 1050 170 1050 229 1050 c 2,5,-1
 726 1050 l 2,6,7
 787 1050 787 1050 773 990 c 2,8,-1
 698 667 l 2,9,10
 687 620 687 620 675 587 c 1,11,-1
 680 587 l 1,12,13
 713 628 713 628 780.5 646 c 128,-1,14
 848 664 848 664 904 664 c 256,15,16
 1033 664 1033 664 1123 580 c 128,-1,17
 1213 496 1213 496 1213 359 c 256,18,19
 1213 222 1213 222 1089 101 c 128,-1,20
 965 -20 965 -20 698 -20 c 256,21,22
 473 -20 473 -20 397.5 116 c 128,-1,23
 322 252 322 252 357 405 c 2,24,-1
 460 850 l 17,25,-1
 183 850 l 2,0,1
620 336 m 256,26,27
 602 260 602 260 637.5 218 c 128,-1,28
 673 176 673 176 734 176 c 256,29,30
 820 176 820 176 868.5 222 c 128,-1,31
 917 268 917 268 917 358 c 256,32,33
 917 415 917 415 882.5 441.5 c 128,-1,34
 848 468 848 468 806 468 c 256,35,36
 741 468 741 468 688.5 436 c 128,-1,37
 636 404 636 404 620 336 c 256,26,27
EndSplineSet
EndChar

StartChar: v
Encoding: 118 118 28
Width: 1008
GlyphClass: 1
Flags: W
HStem: 0 21G<259 508.5> 1030 20G<168 381.5 835 1084>
VStem: 146 261<811.826 1049.69>
LayerCount: 2
Back
SplineSet
146.404 972 m 2,0,1
 139.411 1050 139.411 1050 197.411 1050 c 2,2,-1
 376.411 1050 l 2,3,4
 423.411 1050 423.411 1050 424.638 999 c 2,5,-1
 444.349 413 l 2,6,7
 446.036 364 446.036 364 443.454 316 c 128,-1,8
 440.873 268 440.873 268 435.946 238 c 1,9,-1
 441.946 238 l 1,10,11
 450.873 268 450.873 268 470.454 316 c 128,-1,12
 490.036 364 490.036 364 514.349 413 c 2,13,-1
 804.638 999 l 2,14,15
 829.412 1050 829.412 1050 876.412 1050 c 2,16,-1
 1055.41 1050 l 2,17,18
 1113.41 1050 1113.41 1050 1070.4 972 c 2,19,-1
 571.468 67 l 2,20,21
 535 0 535 0 483 0 c 2,22,-1
 285 0 l 2,23,24
 233 0 233 0 227.468 67 c 2,25,-1
 146.404 972 l 2,0,1
EndSplineSet
Fore
SplineSet
146 972 m 2,0,1
 139 1050 139 1050 197 1050 c 2,2,-1
 358 1050 l 2,3,4
 405 1050 405 1050 407 999 c 2,5,-1
 426 413 l 2,6,7
 428 364 428 364 425.5 316 c 128,-1,8
 423 268 423 268 418 238 c 1,9,-1
 424 238 l 1,10,11
 433 268 433 268 452.5 316 c 128,-1,12
 472 364 472 364 496 413 c 2,13,-1
 787 999 l 2,14,15
 812 1050 812 1050 858 1050 c 2,16,-1
 1055 1050 l 2,17,18
 1113 1050 1113 1050 1070 972 c 2,19,-1
 571 67 l 2,20,21
 534 0 534 0 483 0 c 2,22,-1
 285 0 l 2,23,24
 233 0 233 0 227 67 c 2,25,-1
 146 972 l 2,0,1
EndSplineSet
EndChar

StartChar: y
Encoding: 121 121 29
Width: 1194
GlyphClass: 1
Flags: MW
HStem: -420 196<158.075 547.502> -11 196<297 554.215> 1030 20G<286.5 506.5 930.5 1150.5>
DStem2: -82.701 -420 196.754 -420 0.224951 0.97437<748.395 1517.52> 559.489 -420 839.496 -420 0.224951 0.97437<257.774 590.981 744.965 1517.73>
LayerCount: 2
Fore
SplineSet
117 445 m 2,0,-1
 243 990 l 2,1,2
 257 1050 257 1050 316 1050 c 2,3,-1
 476 1050 l 2,4,5
 537 1050 537 1050 523 990 c 2,6,-1
 411 508 l 2,7,8
 364 305 364 305 388.5 245 c 128,-1,9
 413 185 413 185 493 185 c 256,10,11
 594 185 594 185 676 304.5 c 128,-1,12
 758 424 758 424 806 635 c 2,13,-1
 887 990 l 2,14,15
 901 1050 901 1050 960 1050 c 2,16,-1
 1120 1050 l 2,17,18
 1181 1050 1181 1050 1167 990 c 2,19,-1
 939 11 l 2,20,21
 886 -218 886 -218 744.5 -319 c 128,-1,22
 603 -420 603 -420 342 -420 c 256,23,24
 279 -420 279 -420 196.5 -409.5 c 152,-1,25
 114 -399 114 -399 36 -357 c 256,26,27
 -17 -329 -17 -329 20 -270 c 2,28,-1
 69 -192 l 2,29,30
 96 -148 96 -148 142 -172 c 256,31,32
 210 -207 210 -207 258 -215.5 c 128,-1,33
 306 -224 306 -224 372 -224 c 256,34,35
 477 -224 477 -224 551 -179.5 c 128,-1,36
 625 -135 625 -135 674 76 c 0,37,38
 684 120 684 120 697 156 c 1,39,-1
 693 156 l 1,40,41
 613 62 613 62 540.5 25.5 c 128,-1,42
 468 -11 468 -11 368 -11 c 256,43,44
 226 -11 226 -11 143.5 96 c 128,-1,45
 61 203 61 203 117 445 c 2,0,-1
EndSplineSet
EndChar

StartChar: e
Encoding: 101 101 30
Width: 1150
VWidth: 1000
GlyphClass: 1
Flags: W
HStem: -20 196<404.086 741.126> 874 196<531.082 820.238>
VStem: 58 298<222.49 501.318> 867 237<679.416 834.175>
DStem2: 370 570 357 382 0.986757 0.162207<0 482.892>
LayerCount: 2
Back
SplineSet
58 412 m 260,0,1
 58 644 58 644 226 857 c 132,-1,2
 394 1070 394 1070 673 1070 c 260,3,4
 822 1070 822 1070 900 1025 c 132,-1,5
 978 980 978 980 1029 906 c 260,6,7
 1058 864 1058 864 1012 833 c 286,8,-1
 903 760 l 278,9,10
 864 734 864 734 826 790 c 260,11,12
 805 821 805 821 769 847.5 c 132,-1,13
 733 874 733 874 663 874 c 260,14,15
 550 874 550 874 452 748 c 132,-1,16
 354 622 354 622 354 387 c 260,17,18
 354 282 354 282 403 229 c 132,-1,19
 452 176 452 176 536 176 c 260,20,21
 614 176 614 176 663.5 209 c 132,-1,22
 713 242 713 242 760 301 c 260,23,24
 797 347 797 347 841 306 c 270,25,-1
 922 231 l 286,26,27
 961 195 961 195 920 143 c 260,28,29
 881 93 881 93 782.5 36.5 c 132,-1,30
 684 -20 684 -20 518 -20 c 260,31,32
 258 -20 258 -20 158 108.5 c 132,-1,33
 58 237 58 237 58 412 c 260,0,1
81.2061 525 m 256,0,1
 139.615 778 139.615 778 299.822 924 c 128,-1,2
 460.029 1070 460.029 1070 691.029 1070 c 256,3,4
 959.029 1070 959.029 1070 1057.17 932 c 128,-1,5
 1155.31 794 1155.31 794 1084.66 488 c 0,6,7
 1070.81 428 1070.81 428 1014.81 428 c 2,8,-1
 354.812 428 l 1,9,10
 332.487 262 332.487 262 388.561 219 c 128,-1,11
 444.633 176 444.633 176 531.633 176 c 256,12,13
 614.633 176 614.633 176 663.712 198 c 128,-1,14
 712.791 220 712.791 220 751.564 258 c 256,15,16
 795.723 302 795.723 302 838.796 272 c 266,17,-1
 924.713 211 l 282,18,19
 975.402 175 975.402 175 921.858 125 c 256,20,21
 844.005 52 844.005 52 753.694 16 c 128,-1,22
 663.383 -20 663.383 -20 486.383 -20 c 256,23,24
 199.383 -20 199.383 -20 111.09 126 c 128,-1,25
 22.7959 272 22.7959 272 81.2061 525 c 256,0,1
401.985 628 m 1,26,-1
 836.985 628 l 1,27,28
 861.919 736 861.919 736 823.733 804.5 c 128,-1,29
 785.548 873 785.548 873 667.548 873 c 256,30,31
 573.548 873 573.548 873 503.426 807.5 c 128,-1,32
 433.305 742 433.305 742 401.985 628 c 1,26,-1
EndSplineSet
Fore
SplineSet
58 415 m 256,0,1
 58 646 58 646 223 858 c 128,-1,2
 388 1070 388 1070 679 1070 c 256,3,4
 880 1070 880 1070 992 980 c 128,-1,5
 1104 890 1104 890 1104 774 c 256,6,7
 1104 582 1104 582 961.5 522 c 128,-1,8
 819 462 819 462 566 418 c 2,9,-1
 357 382 l 1,10,11
 356 369 356 369 356 354 c 0,12,13
 356 290 356 290 391 233 c 128,-1,14
 426 176 426 176 552 176 c 256,15,16
 624 176 624 176 699 203.5 c 128,-1,17
 774 231 774 231 819 265 c 256,18,19
 871 304 871 304 900 265 c 266,20,-1
 959 187 l 282,21,22
 995 140 995 140 951 99 c 256,23,24
 885.519 38.9755 885.519 38.9755 780.922 9.48775 c 128,-1,25
 676.325 -20 676.325 -20 534 -20 c 256,26,27
 258 -20 258 -20 158 107 c 128,-1,28
 58 234 58 234 58 415 c 256,0,1
370 570 m 1,29,-1
 589 606 l 2,30,31
 694 623 694 623 780.5 656.5 c 128,-1,32
 867 690 867 690 867 751 c 256,33,34
 867 806 867 806 814.5 840 c 128,-1,35
 762 874 762 874 682 874 c 256,36,37
 555 874 555 874 479.5 786 c 128,-1,38
 404 698 404 698 370 570 c 1,29,-1
EndSplineSet
EndChar

StartChar: i
Encoding: 105 105 31
Width: 552
GlyphClass: 1
Flags: W
HStem: 0 21<46 266> 1030 20<288.5 508> 1204 248<341.847 583.153>
VStem: 30 495 308 309
DStem2: 16.1479 0 296.148 0 0.224951 0.97437<54.1702 1086.47>
LayerCount: 2
Back
SplineSet
139 1335 m 2,0,-1
 139 1419 l 2,1,2
 144 1457 144 1457 187 1457 c 2,3,-1
 209 1456 l 1,4,-1
 272 1456 l 2,5,6
 293 1456 293 1456 303.5 1445 c 128,-1,7
 314 1434 314 1434 315.5 1425 c 128,-1,8
 317 1416 317 1416 317 1401 c 2,9,-1
 317 1352 l 2,10,11
 317 1303 317 1303 305.5 1290.5 c 128,-1,12
 294 1278 294 1278 248.5 1278 c 128,-1,13
 203 1278 203 1278 180 1280 c 0,14,15
 139 1280 139 1280 139 1335 c 2,0,-1
252 1040 m 1,16,-1
 269 1041 l 2,17,18
 283 1041 283 1041 292 1039 c 128,-1,19
 301 1037 301 1037 306 1029.5 c 128,-1,20
 311 1022 311 1022 312.5 1019.5 c 128,-1,21
 314 1017 314 1017 315.5 1004.5 c 128,-1,22
 317 992 317 992 317 991 c 2,23,-1
 317 58 l 2,24,25
 317 19 317 19 299 6 c 1,26,27
 298 6 298 6 289.5 2.5 c 128,-1,28
 281 -0.999984 281 -0.999984 266 -1 c 2,29,-1
 242 0 l 1,30,-1
 178 0 l 1,31,32
 141 6 141 6 141 49 c 2,33,-1
 139 84 l 1,34,-1
 139 982 l 2,35,36
 139 1020 139 1020 151.5 1030 c 128,-1,37
 164 1040 164 1040 195 1040 c 2,38,-1
 252 1040 l 1,16,-1
EndSplineSet
Fore
Refer: 0 305 N 1 0 0 1 0 0 3
Refer: 32 729 N 1 0 0 1 -31 0 2
EndChar

StartChar: dotaccent
Encoding: 729 729 32
Width: 614
GlyphClass: 1
Flags: W
HStem: 1204 248<372.847 614.153>
VStem: 339 309
LayerCount: 2
Fore
SplineSet
385 1204 m 2,0,1
 325 1204 325 1204 339 1264 c 2,2,-1
 368 1392 l 2,3,4
 382 1452 382 1452 442 1452 c 2,5,-1
 602 1452 l 2,6,7
 662 1452 662 1452 648 1392 c 2,8,-1
 619 1264 l 2,9,10
 605 1204 605 1204 545 1204 c 2,11,-1
 385 1204 l 2,0,1
EndSplineSet
EndChar

StartChar: q
Encoding: 113 113 33
Width: 1192
GlyphClass: 1
Flags: MW
HStem: -400 21G<594 814> -20 196<405.064 570.954> 874 196<520.903 777.239> 1030 20G<936.5 1148.5>
VStem: 66 296<223.993 647.956>
DStem2: 564.148 -400 844.148 -400 0.224951 0.97437<54.1702 551.759 696.219 1218.83 1390.57 1495.15>
LayerCount: 2
Back
SplineSet
783.652 -400 m 2,0,1
 623.652 -400 l 2,2,3
 563.652 -400 563.652 -400 577.505 -340 c 2,4,-1
 664.773 38 l 2,5,6
 674.008 78 674.008 78 687.242 118 c 1,7,-1
 683.242 118 l 1,8,9
 611.388 32 611.388 32 541.385 6 c 128,-1,10
 471.383 -20 471.383 -20 381.383 -20 c 256,11,12
 146.383 -20 146.383 -20 88.3984 142.5 c 128,-1,13
 30.415 305 30.415 305 81.2061 525 c 256,14,15
 131.997 745 131.997 745 265.013 907.5 c 128,-1,16
 398.029 1070 398.029 1070 633.029 1070 c 256,17,18
 723.029 1070 723.029 1070 781.026 1044 c 128,-1,19
 839.023 1018 839.023 1018 871.169 932 c 1,20,-1
 875.169 932 l 1,21,-1
 892.56 990 l 2,22,23
 910.412 1050 910.412 1050 960.412 1050 c 2,24,-1
 1118.41 1050 l 2,25,26
 1178.41 1050 1178.41 1050 1164.56 990 c 2,27,-1
 857.505 -340 l 2,28,29
 843.652 -400 843.652 -400 783.652 -400 c 2,0,1
766.816 480 m 2,30,-1
 787.595 570 l 2,31,32
 818.762 705 818.762 705 784.771 789.5 c 128,-1,33
 750.779 874 750.779 874 675.779 874 c 256,34,35
 540.779 874 540.779 874 477.462 779.5 c 128,-1,36
 414.145 685 414.145 685 377.206 525 c 256,37,38
 340.267 365 340.267 365 359.95 270.5 c 128,-1,39
 379.633 176 379.633 176 514.633 176 c 256,40,41
 589.633 176 589.633 176 662.642 260.5 c 128,-1,42
 735.649 345 735.649 345 766.816 480 c 2,30,-1
EndSplineSet
Fore
SplineSet
66 399 m 256,0,1
 66 662 66 662 226.5 866 c 128,-1,2
 387 1070 387 1070 599 1070 c 256,3,4
 671 1070 671 1070 749 1051 c 128,-1,5
 827 1032 827 1032 877 954 c 1,6,-1
 881 954 l 1,7,-1
 893 990 l 2,8,9
 913 1050 913 1050 960 1050 c 2,10,-1
 1118 1050 l 2,11,12
 1179 1050 1179 1050 1165 990 c 2,13,-1
 858 -340 l 2,14,15
 844 -400 844 -400 784 -400 c 2,16,-1
 624 -400 l 2,17,18
 564 -400 564 -400 578 -340 c 2,19,-1
 670 58 l 2,20,21
 680 101 680 101 692 138 c 1,22,-1
 688 138 l 1,23,24
 616 52 616 52 559 16 c 128,-1,25
 502 -20 502 -20 429 -20 c 256,26,27
 231 -20 231 -20 148.5 110 c 128,-1,28
 66 240 66 240 66 399 c 256,0,1
362 380 m 256,29,30
 362 276 362 276 400.5 226 c 128,-1,31
 439 176 439 176 507 176 c 256,32,33
 577 176 577 176 657.5 265 c 128,-1,34
 738 354 738 354 777 522 c 2,35,-1
 814 680 l 17,36,37
 814 776 814 776 780.5 825 c 128,-1,38
 747 874 747 874 647 874 c 256,39,40
 512 874 512 874 437 722 c 128,-1,41
 362 570 362 570 362 380 c 256,29,30
EndSplineSet
EndChar

StartChar: cyrbreve
Encoding: 63188 63188 38
Width: 1194
GlyphClass: 1
Flags: W
HStem: 1130 160<670.469 916.521>
VStem: 420 226<1354 1467.19>
LayerCount: 2
Back
SplineSet
420 1412 m 2,0,1
 428 1471 428 1471 494 1471 c 2,2,-1
 601 1471 l 2,3,4
 649 1471 649 1471 647 1417 c 2,5,-1
 646 1392 l 2,6,7
 644 1326 644 1326 682 1308 c 128,-1,8
 720 1290 720 1290 775 1290 c 256,9,10
 830 1290 830 1290 876 1308 c 128,-1,11
 922 1326 922 1326 950 1392 c 2,12,-1
 961 1417 l 2,13,14
 984 1471 984 1471 1033 1471 c 2,15,-1
 1140 1471 l 2,16,17
 1206 1471 1206 1471 1186 1412 c 2,18,-1
 1167 1354 l 2,19,20
 1128 1238 1128 1238 992.5 1184 c 128,-1,21
 857 1130 857 1130 738 1130 c 256,22,23
 619 1130 619 1130 508.5 1184 c 128,-1,24
 398 1238 398 1238 413 1354 c 2,25,-1
 420 1412 l 2,0,1
EndSplineSet
Fore
SplineSet
420 1412 m 2,0,1
 427 1471 427 1471 494 1471 c 2,2,-1
 600 1471 l 2,3,4
 646 1471 646 1471 646 1417 c 2,5,-1
 646 1392 l 2,6,7
 646 1325 646 1325 682 1307.5 c 128,-1,8
 718 1290 718 1290 758 1290 c 256,9,10
 874 1290 874 1290 954 1361 c 128,-1,11
 1034 1432 1034 1432 1072 1490 c 256,12,13
 1094 1524 1094 1524 1132 1496 c 258,14,-1
 1186 1457 l 258,15,16
 1217 1435 1217 1435 1190 1393 c 256,17,18
 1130 1298 1130 1298 1012 1214 c 128,-1,19
 894 1130 894 1130 721 1130 c 256,20,21
 590 1130 590 1130 496 1197 c 128,-1,22
 402 1264 402 1264 413 1354 c 2,23,-1
 420 1412 l 2,0,1
EndSplineSet
EndChar

StartChar: afii10076
Encoding: 1082 1082 39
Width: 1085
GlyphClass: 1
Flags: W
HStem: 0 21G<46 266 699 910> 1030 20G<288.5 508.5 881.5 1131>
DStem2: 16.1479 0 296.148 0 0.224951 0.97437<54.1702 522.641 728.087 1086.5> 921 74 567 338 0.329504 -0.944154<-465.11 7.12732> 629 776 882 716 0.652709 0.757609<-116.079 399.073>
LayerCount: 2
Back
SplineSet
76 0 m 2,0,1
 16 0 16 0 30 60 c 2,2,-1
 245 990 l 2,3,4
 259 1050 259 1050 318 1050 c 2,5,-1
 478 1050 l 2,6,7
 538 1050 538 1050 525 990 c 2,8,-1
 446 648 l 1,9,-1
 469 648 l 2,10,11
 518 648 518 648 564 688 c 128,-1,12
 610 728 610 728 649 776 c 2,13,-1
 841 1009 l 2,14,15
 874 1050 874 1050 928 1050 c 2,16,-1
 1092 1050 l 2,17,18
 1170 1050 1170 1050 1106 976 c 2,19,-1
 882 716 l 2,20,21
 831 657 831 657 769.5 611.5 c 152,-1,22
 708 566 708 566 655 554 c 1,23,-1
 654 552 l 1,24,25
 724 536 724 536 754 500.5 c 128,-1,26
 784 465 784 465 817 372 c 2,27,-1
 921 74 l 2,28,29
 947 0 947 0 873 0 c 2,30,-1
 702 0 l 2,31,32
 648 0 648 0 632 52 c 2,33,-1
 543 338 l 2,34,35
 532 373 532 373 500.5 410.5 c 128,-1,36
 469 448 469 448 423 448 c 2,37,-1
 399 448 l 1,38,-1
 310 60 l 2,39,40
 296 0 296 0 236 0 c 2,41,-1
 76 0 l 2,0,1
EndSplineSet
Fore
SplineSet
76 0 m 2,0,1
 16 0 16 0 30 60 c 2,2,-1
 245 990 l 2,3,4
 259 1050 259 1050 318 1050 c 2,5,-1
 478 1050 l 2,6,7
 539 1050 539 1050 525 990 c 2,8,-1
 446 648 l 1,9,-1
 469 648 l 6,10,11
 498 648 498 648 531 672.5 c 128,-1,12
 564 697 564 697 629 776 c 2,13,-1
 821 1009 l 2,14,15
 855 1050 855 1050 908 1050 c 2,16,-1
 1092 1050 l 2,17,18
 1170 1050 1170 1050 1106 976 c 2,19,-1
 882 716 l 2,20,21
 826 651 826 651 773 610.5 c 152,-1,22
 720 570 720 570 655 554 c 1,23,-1
 654 552 l 1,24,25
 712 542 712 542 752 492.5 c 128,-1,26
 792 443 792 443 817 372 c 2,27,-1
 921 74 l 2,28,29
 947 0 947 0 873 0 c 2,30,-1
 726 0 l 2,31,32
 672 0 672 0 656 52 c 2,33,-1
 567 338 l 2,34,35
 547 401 547 401 510.5 424.5 c 128,-1,36
 474 448 474 448 423 448 c 2,37,-1
 399 448 l 1,38,-1
 310 60 l 2,39,40
 296 0 296 0 236 0 c 2,41,-1
 76 0 l 2,0,1
EndSplineSet
EndChar

StartChar: afii10072
Encoding: 1078 1078 40
Width: 1574
GlyphClass: 1
Flags: W
HStem: 0 21G<-64.5 186.5 557 777 1191.5 1398.5> 448 200<569.669 630 957 1026.66> 1030 20G<198 399 799.5 1019 1375 1620.5>
DStem2: -42 74 253 52 0.624055 0.78138<65.7896 626.902> 521 776 188 976 0.358979 -0.933346<-308.656 137.947> 527.148 0 807.148 0 0.224951 0.97437<54.1702 459.654 728.087 1086.47> 1410 74 1064 338 0.318136 -0.948045<-438.843 9.36776> 1127 776 1376 716 0.645942 0.763386<-118.818 395.886>
LayerCount: 2
Back
SplineSet
-28 0 m 2,0,1
 -101 0 -101 0 -41.916 74 c 2,2,-1
 195.883 372 l 2,3,4
 267.661 462 267.661 462 314.203 499 c 128,-1,5
 360.745 536 360.745 536 438.439 552 c 1,6,-1
 438.901 554 l 1,7,8
 378.595 570 378.595 570 345.291 612 c 128,-1,9
 311.988 654 311.988 654 288.302 716 c 2,10,-1
 188.327 976 l 2,11,12
 159.411 1050 159.411 1050 236.411 1050 c 2,13,-1
 396.411 1050 l 2,14,15
 450.411 1050 450.411 1050 464.946 1009 c 2,16,-1
 545.153 776 l 2,17,18
 561.303 729 561.303 729 584.953 688.5 c 128,-1,19
 608.603 648 608.603 648 660.603 648 c 2,20,-1
 676.603 648 l 1,21,-1
 755.56 990 l 2,22,23
 769.412 1050 769.412 1050 829.412 1050 c 2,24,-1
 989.412 1050 l 2,25,26
 1049.41 1050 1049.41 1050 1035.56 990 c 2,27,-1
 956.603 648 l 1,28,-1
 972.603 648 l 2,29,30
 1024.6 648 1024.6 648 1066.95 688.5 c 128,-1,31
 1109.3 729 1109.3 729 1147.15 776 c 2,32,-1
 1334.95 1009 l 2,33,34
 1368.41 1050 1368.41 1050 1422.41 1050 c 2,35,-1
 1582.41 1050 l 2,36,37
 1659.41 1050 1659.41 1050 1596.33 976 c 2,38,-1
 1376.3 716 l 2,39,40
 1323.99 654 1323.99 654 1271.29 612 c 128,-1,41
 1218.59 570 1218.59 570 1150.9 554 c 1,42,-1
 1150.44 552 l 1,43,44
 1220.75 536 1220.75 536 1250.2 499 c 128,-1,45
 1279.66 462 1279.66 462 1309.88 372 c 2,46,-1
 1410.08 74 l 2,47,48
 1435 0 1435 0 1362 0 c 2,49,-1
 1195 0 l 2,50,51
 1140 0 1140 0 1125 52 c 2,52,-1
 1040.03 338 l 6,53,54
 1029.88 372 1029.88 372 1007.16 410 c 128,-1,55
 984.429 448 984.429 448 927.429 448 c 2,56,-1
 910.429 448 l 1,57,-1
 820.853 60 l 2,58,59
 807 0 807 0 747 0 c 2,60,-1
 587 0 l 2,61,62
 527 0 527 0 540.853 60 c 2,63,-1
 630.429 448 l 1,64,-1
 613.429 448 l 2,65,66
 556.429 448 556.429 448 516.156 410 c 128,-1,67
 475.883 372 475.883 372 450.033 338 c 2,68,-1
 233.005 52 l 2,69,70
 194 0 194 0 139 0 c 2,71,-1
 -28 0 l 2,0,1
EndSplineSet
Fore
SplineSet
-28 0 m 2,0,1
 -101 0 -101 0 -42 74 c 2,2,-1
 196 372 l 2,3,4
 258 450 258 450 309.5 493 c 128,-1,5
 361 536 361 536 438 552 c 1,6,-1
 439 554 l 1,7,8
 379 570 379 570 339 629 c 128,-1,9
 299 688 299 688 288 716 c 2,10,-1
 188 976 l 2,11,12
 160 1050 160 1050 236 1050 c 2,13,-1
 372 1050 l 2,14,15
 426 1050 426 1050 441 1009 c 2,16,-1
 521 776 l 2,17,18
 537 729 537 729 573 688.5 c 128,-1,19
 609 648 609 648 661 648 c 2,20,-1
 677 648 l 1,21,-1
 756 990 l 2,22,23
 770 1050 770 1050 829 1050 c 2,24,-1
 989 1050 l 2,25,26
 1049 1050 1049 1050 1036 990 c 2,27,-1
 957 648 l 1,28,-1
 973 648 l 2,29,30
 1003 648 1003 648 1037 677 c 128,-1,31
 1071 706 1071 706 1127 776 c 2,32,-1
 1315 1009 l 2,33,34
 1348 1050 1348 1050 1402 1050 c 2,35,-1
 1582 1050 l 2,36,37
 1659 1050 1659 1050 1596 976 c 2,38,-1
 1376 716 l 2,39,40
 1332 664 1332 664 1275.5 617 c 128,-1,41
 1219 570 1219 570 1151 554 c 1,42,-1
 1150 552 l 1,43,44
 1220 536 1220 536 1255.5 482.5 c 128,-1,45
 1291 429 1291 429 1310 372 c 2,46,-1
 1410 74 l 2,47,48
 1435 0 1435 0 1362 0 c 2,49,-1
 1219 0 l 2,50,51
 1164 0 1164 0 1149 52 c 2,52,-1
 1064 338 l 2,53,54
 1054 372 1054 372 1027.5 410 c 128,-1,55
 1001 448 1001 448 927 448 c 2,56,-1
 910 448 l 1,57,-1
 821 60 l 2,58,59
 807 0 807 0 747 0 c 2,60,-1
 587 0 l 2,61,62
 527 0 527 0 541 60 c 2,63,-1
 630 448 l 1,64,-1
 613 448 l 2,65,66
 583 448 583 448 556.5 433 c 128,-1,67
 530 418 530 418 470 338 c 2,68,-1
 253 52 l 2,69,70
 214 0 214 0 159 0 c 2,71,-1
 -28 0 l 2,0,1
EndSplineSet
EndChar

StartChar: afii10097
Encoding: 1103 1103 41
Width: 1148
GlyphClass: 1
Flags: W
HStem: 0 21G<-37.5 222 642 862> 402 196<534.197 705> 854 196<518.344 809>
VStem: 162 296<623.396 814.22>
DStem2: -13 74 475 294 0.645383 0.763859<60.1072 536.746> 612.148 0 892.148 0 0.224951 0.97437<54.1702 412.584 613.683 876.394>
LayerCount: 2
Back
SplineSet
1 0 m 2,0,1
 -75 0 -75 0 -12.916 74 c 2,2,-1
 193.646 319 l 2,3,4
 248.653 384 248.653 384 283.963 407 c 144,-1,5
 319.273 430 319.273 430 376.199 460 c 1,6,-1
 376.661 462 l 1,7,8
 270.202 486 270.202 486 204.479 556.5 c 128,-1,9
 138.754 627 138.754 627 166.228 746 c 256,10,11
 194.163 867 194.163 867 296.287 958.5 c 128,-1,12
 398.411 1050 398.411 1050 625.412 1050 c 2,13,-1
 1074.41 1050 l 2,14,15
 1134.41 1050 1134.41 1050 1120.56 990 c 2,16,-1
 905.853 60 l 2,17,18
 892 0 892 0 832 0 c 2,19,-1
 672 0 l 2,20,21
 612 0 612 0 625.853 60 c 2,22,-1
 704.809 402 l 1,23,-1
 615.809 402 l 2,24,25
 569.809 402 569.809 402 538.499 379 c 128,-1,26
 507.189 356 507.189 356 457.875 294 c 2,27,-1
 266.005 52 l 2,28,29
 225 0 225 0 172 0 c 2,30,-1
 1 0 l 2,0,1
458.765 731 m 256,31,32
 439.141 646 439.141 646 498.6 622 c 128,-1,33
 558.06 598 558.06 598 658.06 598 c 2,34,-1
 750.06 598 l 1,35,-1
 809.161 854 l 1,36,-1
 698.161 854 l 2,37,38
 575.161 854 575.161 854 524.351 824.5 c 128,-1,39
 473.54 795 473.54 795 458.765 731 c 256,31,32
EndSplineSet
Fore
SplineSet
1 0 m 2,0,1
 -76 0 -76 0 -13 74 c 2,2,-1
 194 319 l 2,3,4
 240 373 240 373 280 401.5 c 144,-1,5
 320 430 320 430 376 460 c 1,6,-1
 377 462 l 1,7,8
 285 480 285 480 223.5 549 c 128,-1,9
 162 618 162 618 162 707 c 256,10,11
 162 846 162 846 268.5 948 c 128,-1,12
 375 1050 375 1050 623 1050 c 2,13,-1
 1074 1050 l 2,14,15
 1135 1050 1135 1050 1121 990 c 2,16,-1
 906 60 l 2,17,18
 892 0 892 0 832 0 c 2,19,-1
 672 0 l 2,20,21
 612 0 612 0 626 60 c 2,22,-1
 705 402 l 1,23,-1
 637 402 l 2,24,25
 592 402 592 402 552 372 c 128,-1,26
 512 342 512 342 475 294 c 2,27,-1
 289 52 l 2,28,29
 249 0 249 0 195 0 c 2,30,-1
 1 0 l 2,0,1
458 720 m 256,31,32
 458 648 458 648 499 623 c 128,-1,33
 540 598 540 598 658 598 c 2,34,-1
 750 598 l 1,35,-1
 809 854 l 1,36,-1
 698 854 l 2,37,38
 575 854 575 854 516.5 823 c 128,-1,39
 458 792 458 792 458 720 c 256,31,32
EndSplineSet
EndChar

StartChar: afii10096
Encoding: 1102 1102 42
Width: 1714
GlyphClass: 1
Flags: W
HStem: -20 196<924.261 1177.46> 0 21G<46 266> 448 200<446 567> 874 196<1046.76 1299.74> 1030 20G<288.5 508>
VStem: 566 296<239.186 442.914> 1362 296<409.098 812.007>
DStem2: 11.5305 -20 291.531 -20 0.224951 0.97437<74.6963 543.167 748.614 1107>
LayerCount: 2
Back
SplineSet
566 412 m 0,0,1
 566 637 566 637 732 853.5 c 128,-1,2
 898 1070 898 1070 1198 1070 c 256,3,4
 1458 1070 1458 1070 1558 941.5 c 128,-1,5
 1658 813 1658 813 1658 638 c 0,6,7
 1658 413 1658 413 1492 196.5 c 128,-1,8
 1326 -20 1326 -20 1026 -20 c 256,9,10
 766 -20 766 -20 666 108.5 c 128,-1,11
 566 237 566 237 566 412 c 0,0,1
EndSplineSet
Fore
SplineSet
76 0 m 2,0,1
 16 0 16 0 30 60 c 2,2,-1
 245 990 l 2,3,4
 259 1050 259 1050 318 1050 c 2,5,-1
 478 1050 l 2,6,7
 538 1050 538 1050 525 990 c 2,8,-1
 446 648 l 1,9,-1
 613 648 l 1,10,11
 634 744 634 744 781 907 c 128,-1,12
 928 1070 928 1070 1198 1070 c 256,13,14
 1458 1070 1458 1070 1558 941.5 c 128,-1,15
 1658 813 1658 813 1658 638 c 256,16,17
 1658 413 1658 413 1492 196.5 c 128,-1,18
 1326 -20 1326 -20 1026 -20 c 256,19,20
 766 -20 766 -20 666 108.5 c 128,-1,21
 566 237 566 237 566 412 c 256,22,23
 566 430 566 430 567 448 c 257,24,-1
 399 448 l 1,25,-1
 310 60 l 2,26,27
 296 0 296 0 236 0 c 2,28,-1
 76 0 l 2,0,1
862 387 m 256,29,30
 862 287 862 287 910.5 231.5 c 128,-1,31
 959 176 959 176 1044 176 c 256,32,33
 1169 176 1169 176 1265.5 304.5 c 128,-1,34
 1362 433 1362 433 1362 663 c 256,35,36
 1362 763 1362 763 1313.5 818.5 c 128,-1,37
 1265 874 1265 874 1180 874 c 256,38,39
 1055 874 1055 874 958.5 745.5 c 128,-1,40
 862 617 862 617 862 387 c 256,29,30
EndSplineSet
EndChar

StartChar: afii10066
Encoding: 1073 1073 43
Width: 1214
GlyphClass: 1
Flags: W
HStem: -20 196<418.195 674.314> 874 196<548.834 798.219>
VStem: 62 296<237.993 642.853> 858 296<406.533 812.007>
DStem2: 685 1426 765.5 1232.5 0.992936 0.118653<-174.489 461.863>
LayerCount: 2
Back
SplineSet
64 412 m 0,0,1
 64 637 64 637 230 853.5 c 128,-1,2
 396 1070 396 1070 696 1070 c 256,3,4
 956 1070 956 1070 1056 941.5 c 128,-1,5
 1156 813 1156 813 1156 638 c 0,6,7
 1156 413 1156 413 990 196.5 c 128,-1,8
 824 -20 824 -20 524 -20 c 256,9,10
 264 -20 264 -20 164 108.5 c 128,-1,11
 64 237 64 237 64 412 c 0,0,1
360 387 m 0,12,13
 360 287 360 287 408.5 231.5 c 128,-1,14
 457 176 457 176 542 176 c 256,15,16
 667 176 667 176 763.5 304.5 c 128,-1,17
 860 433 860 433 860 663 c 0,18,19
 860 763 860 763 811.5 818.5 c 128,-1,20
 763 874 763 874 678 874 c 256,21,22
 553 874 553 874 456.5 745.5 c 128,-1,23
 360 617 360 617 360 387 c 0,12,13
96 598 m 256,12,13
 122 712 122 712 180 869 c 128,-1,14
 238 1026 238 1026 298.5 1125 c 128,-1,15
 359 1224 359 1224 429.5 1283 c 128,-1,16
 500 1342 500 1342 589 1381.5 c 128,-1,17
 678 1421 678 1421 748 1430 c 256,18,19
 851 1444 851 1444 933.5 1446.5 c 128,-1,20
 1016 1449 1016 1449 1053 1457 c 256,21,22
 1094 1466 1094 1466 1116 1490 c 128,-1,23
 1138 1514 1138 1514 1184 1514 c 10,24,-1
 1254 1514 l 18,25,26
 1293 1514 1293 1514 1282 1469 c 256,27,28
 1265 1394 1265 1394 1202 1336.5 c 128,-1,29
 1139 1279 1139 1279 1048 1264 c 256,30,31
 1005 1257 1005 1257 933.5 1252.5 c 128,-1,32
 862 1248 862 1248 775 1239 c 128,-1,33
 688 1230 688 1230 590 1186 c 0,34,35
 388 1095 388 1095 322 845 c 1,36,-1
 329 841 l 17,37,38
 366 915 366 915 482 992.5 c 128,-1,39
 598 1070 598 1070 754 1070 c 256,40,41
 985 1070 985 1070 1084.5 925 c 128,-1,42
 1184 780 1184 780 1125 525 c 256,43,44
 1066 270 1066 270 901 125 c 128,-1,45
 736 -20 736 -20 476 -20 c 256,46,47
 203 -20 203 -20 116 143 c 128,-1,48
 29 306 29 306 96 598 c 256,12,13
EndSplineSet
Fore
SplineSet
62 412 m 256,0,1
 62 663 62 663 121.5 837.5 c 128,-1,2
 181 1012 181 1012 224 1076 c 128,-1,3
 267 1140 267 1140 350.5 1232.5 c 128,-1,4
 434 1325 434 1325 537 1372 c 128,-1,5
 640 1419 640 1419 685 1426 c 256,6,7
 782 1440 782 1440 859 1446.5 c 128,-1,8
 936 1453 936 1453 1003 1464 c 256,9,10
 1082 1478 1082 1478 1094 1496 c 128,-1,11
 1106 1514 1106 1514 1140 1514 c 10,12,-1
 1215 1514 l 18,13,14
 1251 1514 1251 1514 1243 1469 c 256,15,16
 1229 1390 1229 1390 1181.5 1342 c 128,-1,17
 1134 1294 1134 1294 1045 1272 c 256,18,19
 997 1260 997 1260 930.5 1254 c 128,-1,20
 864 1248 864 1248 765.5 1232.5 c 128,-1,21
 667 1217 667 1217 573 1186 c 0,22,23
 390 1124 390 1124 307 845 c 1,24,-1
 314 841 l 17,25,26
 351 915 351 915 467 992.5 c 128,-1,27
 583 1070 583 1070 716 1070 c 256,28,29
 970 1070 970 1070 1062 941.5 c 128,-1,30
 1154 813 1154 813 1154 638 c 0,31,32
 1154 413 1154 413 990 196.5 c 128,-1,33
 826 -20 826 -20 522 -20 c 256,34,35
 250 -20 250 -20 156 108.5 c 128,-1,36
 62 237 62 237 62 412 c 256,0,1
358 387 m 0,37,38
 358 287 358 287 406.5 231.5 c 128,-1,39
 455 176 455 176 540 176 c 256,40,41
 665 176 665 176 761.5 304.5 c 128,-1,42
 858 433 858 433 858 663 c 0,43,44
 858 763 858 763 809 818.5 c 128,-1,45
 760 874 760 874 680 874 c 256,46,47
 562 874 562 874 460 743 c 128,-1,48
 358 612 358 612 358 387 c 0,37,38
EndSplineSet
EndChar

StartChar: afii10095
Encoding: 1101 1101 45
Width: 1085
GlyphClass: 1
Flags: W
HStem: -20 196<294.794 572.091> 448 200<294.806 720> 874 196<372.009 674.059>
VStem: 743 286<648 807.434>
LayerCount: 2
Back
SplineSet
1029 638 m 256,0,1
 1029 406 1029 406 861 193 c 128,-1,2
 693 -20 693 -20 414 -20 c 256,3,4
 265 -20 265 -20 187 25 c 128,-1,5
 109 70 109 70 58 144 c 256,6,7
 29 186 29 186 75 217 c 282,8,-1
 184 290 l 274,9,10
 223 316 223 316 261 260 c 256,11,12
 282 229 282 229 318 202.5 c 128,-1,13
 354 176 354 176 424 176 c 256,14,15
 537 176 537 176 635 302 c 128,-1,16
 733 428 733 428 733 663 c 256,17,18
 733 768 733 768 684 821 c 128,-1,19
 635 874 635 874 551 874 c 256,20,21
 473 874 473 874 423.5 841 c 128,-1,22
 374 808 374 808 327 749 c 256,23,24
 290 703 290 703 246 744 c 266,25,-1
 165 819 l 282,26,27
 126 855 126 855 167 907 c 256,28,29
 206 957 206 957 304.5 1013.5 c 128,-1,30
 403 1070 403 1070 569 1070 c 256,31,32
 829 1070 829 1070 929 941.5 c 128,-1,33
 1029 813 1029 813 1029 638 c 256,0,1
EndSplineSet
Fore
SplineSet
67 116 m 256,0,1
 27 159 27 159 72 197 c 258,2,-1
 161 272 l 258,3,4
 204 309 204 309 238 272 c 256,5,6
 265 243 265 243 309.5 209.5 c 128,-1,7
 354 176 354 176 417 176 c 256,8,9
 531 176 531 176 611 250 c 128,-1,10
 691 324 691 324 720 448 c 257,11,-1
 318 448 l 258,12,13
 257 448 257 448 269 498 c 258,14,-1
 293 598 l 258,15,16
 305 648 305 648 364 648 c 258,17,-1
 743 648 l 257,18,19
 747 756 747 756 692.5 815 c 128,-1,20
 638 874 638 874 539 874 c 256,21,22
 466 874 466 874 422 856 c 128,-1,23
 378 838 378 838 328 796 c 256,24,25
 279 755 279 755 251 788 c 258,26,-1
 180 873 l 258,27,28
 144 916 144 916 178 948 c 256,29,30
 232 998 232 998 324 1034 c 128,-1,31
 416 1070 416 1070 539 1070 c 256,32,33
 780 1070 780 1070 904.5 947.5 c 128,-1,34
 1029 825 1029 825 1029 615 c 256,35,36
 1029 360 1029 360 866.5 170 c 128,-1,37
 704 -20 704 -20 439 -20 c 256,38,39
 266 -20 266 -20 193 20 c 128,-1,40
 120 60 120 60 67 116 c 256,0,1
EndSplineSet
EndChar

StartChar: afii10073
Encoding: 1079 1079 46
Width: 1038
GlyphClass: 1
Flags: W
HStem: -20 196<295.081 558.24> 448 200<311.806 586.627> 874 196<357.843 656.476>
VStem: 615 296<232.34 420.218> 695 274<689.592 847.592>
LayerCount: 2
Back
SplineSet
67 116 m 260,0,1
 27 159 27 159 72 197 c 262,2,-1
 161 272 l 262,3,4
 204 309 204 309 238 272 c 260,5,6
 265 243 265 243 309.5 209.5 c 132,-1,7
 354 176 354 176 417 176 c 260,8,9
 531 176 531 176 611 250 c 132,-1,10
 691 324 691 324 720 448 c 261,11,-1
 318 448 l 262,12,13
 257 448 257 448 269 498 c 262,14,-1
 293 598 l 262,15,16
 305 648 305 648 364 648 c 262,17,-1
 743 648 l 261,18,19
 747 756 747 756 692.5 815 c 132,-1,20
 638 874 638 874 539 874 c 260,21,22
 466 874 466 874 422 856 c 132,-1,23
 378 838 378 838 328 796 c 260,24,25
 279 755 279 755 251 788 c 262,26,-1
 180 873 l 262,27,28
 144 916 144 916 178 948 c 260,29,30
 232 998 232 998 324 1034 c 132,-1,31
 416 1070 416 1070 539 1070 c 260,32,33
 780 1070 780 1070 904.5 947.5 c 132,-1,34
 1029 825 1029 825 1029 615 c 260,35,36
 1029 360 1029 360 866.5 170 c 132,-1,37
 704 -20 704 -20 439 -20 c 260,38,39
 266 -20 266 -20 193 20 c 132,-1,40
 120 60 120 60 67 116 c 260,0,1
-19.6582 89 m 256,0,1
 -55.8086 123 -55.8086 123 -7.72754 171 c 258,2,-1
 83.2812 262 l 258,3,4
 123.747 303 123.747 303 178.975 265 c 256,5,6
 215.972 239 215.972 239 268.699 207.5 c 128,-1,7
 321.427 176 321.427 176 395.427 176 c 256,8,9
 503.427 176 503.427 176 552.009 224 c 128,-1,10
 600.59 272 600.59 272 612.596 324 c 256,11,12
 623.677 372 623.677 372 609.95 410 c 128,-1,13
 596.223 448 596.223 448 480.223 448 c 258,14,-1
 335.223 448 l 258,15,16
 275.223 448 275.223 448 286.767 498 c 258,17,-1
 309.854 598 l 258,18,19
 321.396 648 321.396 648 381.396 648 c 258,20,-1
 513.396 648 l 258,21,22
 585.396 648 585.396 648 635.169 679.5 c 128,-1,23
 684.941 711 684.941 711 698.794 771 c 256,24,25
 711.953 828 711.953 828 662.263 851 c 128,-1,26
 612.573 874 612.573 874 538.573 874 c 256,27,28
 465.573 874 465.573 874 413.187 855 c 128,-1,29
 360.8 836 360.8 836 303.488 800 c 256,30,31
 249.64 766 249.64 766 227.182 803 c 258,32,-1
 171.883 897 l 258,33,34
 146.579 939 146.579 939 196.198 972 c 256,35,36
 278.896 1027 278.896 1027 360.359 1048.5 c 128,-1,37
 441.823 1070 441.823 1070 583.823 1070 c 256,38,39
 780.823 1070 780.823 1070 896.777 994 c 128,-1,40
 1012.73 918 1012.73 918 987.104 807 c 256,41,42
 962.171 699 962.171 699 892.165 640.5 c 128,-1,43
 822.159 582 822.159 582 749.85 559 c 1,44,-1
 749.157 556 l 1,45,46
 857.922 516 857.922 516 890.878 453 c 128,-1,47
 923.833 390 923.833 390 904.901 308 c 256,48,49
 869.117 153 869.117 153 723.646 66.5 c 128,-1,50
 578.177 -20 578.177 -20 350.177 -20 c 256,51,52
 164.177 -20 164.177 -20 92.873 15.5 c 128,-1,53
 21.5684 51 21.5684 51 -19.6582 89 c 256,0,1
EndSplineSet
Fore
SplineSet
72 102 m 256,0,1
 25 149 25 149 65 184 c 258,2,-1
 153 263 l 258,3,4
 206 311 206 311 248 266 c 256,5,6
 278 234 278 234 314 205 c 128,-1,7
 350 176 350 176 430 176 c 256,8,9
 524 176 524 176 569.5 230 c 128,-1,10
 615 284 615 284 615 337 c 256,11,12
 615 380 615 380 587.5 414 c 128,-1,13
 560 448 560 448 475 448 c 258,14,-1
 335 448 l 258,15,16
 274 448 274 448 286 498 c 258,17,-1
 310 598 l 258,18,19
 322 648 322 648 381 648 c 258,20,-1
 513 648 l 258,21,22
 596 648 596 648 645.5 686 c 128,-1,23
 695 724 695 724 695 777 c 256,24,25
 695 829 695 829 643.5 851.5 c 128,-1,26
 592 874 592 874 518 874 c 256,27,28
 454 874 454 874 411 857 c 128,-1,29
 368 840 368 840 325 807 c 256,30,31
 277 770 277 770 248 810 c 258,32,-1
 180 905 l 258,33,34
 147 951 147 951 187 980 c 256,35,36
 234 1014 234 1014 319 1042 c 128,-1,37
 404 1070 404 1070 536 1070 c 256,38,39
 740 1070 740 1070 854.5 1005.5 c 128,-1,40
 969 941 969 941 969 822 c 256,41,42
 969 725 969 725 904.5 655.5 c 128,-1,43
 840 586 840 586 750 559 c 1,44,-1
 749 556 l 1,45,46
 854 506 854 506 882.5 454 c 128,-1,47
 911 402 911 402 911 342 c 256,48,49
 911 187 911 187 774.5 83.5 c 128,-1,50
 638 -20 638 -20 410 -20 c 256,51,52
 268 -20 268 -20 192 19 c 128,-1,53
 116 58 116 58 72 102 c 256,0,1
EndSplineSet
EndChar

StartChar: afii10078
Encoding: 1084 1084 47
Width: 1500
GlyphClass: 1
Flags: W
HStem: 0 21G<46 266 505 755 994 1214> 1030 20G<288.5 604 1113.5 1456.5>
DStem2: 16.1479 0 296.148 0 0.224951 0.97437<54.1702 721.441> 676 383 445 645 0.0580415 -0.998314<-274.966 157.371> 738 383 805 61 0.456647 0.889648<-170.682 404.33> 964.148 0 1244.15 0 0.224951 0.97437<54.1702 662.815>
LayerCount: 2
Back
SplineSet
76 0 m 2,0,1
 16 0 16 0 30 60 c 2,2,-1
 245 990 l 2,3,4
 259 1050 259 1050 318 1050 c 2,5,-1
 575 1050 l 2,6,7
 641 1050 641 1050 645 985 c 2,8,-1
 678 394 l 2,9,10
 680 358 680 358 678.5 311 c 128,-1,11
 677 264 677 264 670 235 c 1,12,-1
 674 235 l 1,13,14
 681 264 681 264 701.5 312 c 128,-1,15
 722 360 722 360 740 394 c 2,16,-1
 1045 985 l 2,17,18
 1079 1050 1079 1050 1145 1050 c 2,19,-1
 1426 1050 l 2,20,21
 1487 1050 1487 1050 1473 990 c 2,22,-1
 1258 60 l 2,23,24
 1244 0 1244 0 1184 0 c 2,25,-1
 1024 0 l 2,26,27
 964 0 964 0 978 60 c 2,28,-1
 1094 565 l 2,29,30
 1103 604 1103 604 1123 645 c 25,31,-1
 1113 645 l 17,32,-1
 805 61 l 2,33,34
 773 0 773 0 737 0 c 2,35,-1
 523 0 l 2,36,37
 487 0 487 0 483 61 c 2,38,-1
 445 645 l 9,39,-1
 435 645 l 25,40,41
 435 604 435 604 426 565 c 2,42,-1
 310 60 l 2,43,44
 296 0 296 0 236 0 c 2,45,-1
 76 0 l 2,0,1
EndSplineSet
Fore
SplineSet
76 0 m 2,0,1
 16 0 16 0 30 60 c 2,2,-1
 245 990 l 2,3,4
 259 1050 259 1050 318 1050 c 2,5,-1
 571 1050 l 2,6,7
 637 1050 637 1050 641 985 c 2,8,-1
 676 383 l 2,9,10
 678 348 678 348 676.5 300.5 c 128,-1,11
 675 253 675 253 668 224 c 1,12,-1
 672 224 l 1,13,14
 679 253 679 253 698 298 c 128,-1,15
 717 343 717 343 738 383 c 2,16,-1
 1047 985 l 2,17,18
 1080 1050 1080 1050 1147 1050 c 2,19,-1
 1426 1050 l 2,20,21
 1487 1050 1487 1050 1473 990 c 2,22,-1
 1258 60 l 2,23,24
 1244 0 1244 0 1184 0 c 2,25,-1
 1024 0 l 2,26,27
 964 0 964 0 978 60 c 2,28,-1
 1094 565 l 2,29,30
 1103 604 1103 604 1123 645 c 25,31,-1
 1113 645 l 17,32,-1
 805 61 l 2,33,34
 773 0 773 0 737 0 c 2,35,-1
 523 0 l 2,36,37
 487 0 487 0 483 61 c 2,38,-1
 445 645 l 9,39,-1
 435 645 l 25,40,41
 435 604 435 604 426 565 c 2,42,-1
 310 60 l 2,43,44
 296 0 296 0 236 0 c 2,45,-1
 76 0 l 2,0,1
EndSplineSet
EndChar

StartChar: k
Encoding: 107 107 48
Width: 1119
GlyphClass: 1
Flags: W
HStem: 0 21G<46 266 735.5 942.5> 1030 20G<886.5 1145.5> 1456 20G<387 607>
DStem2: 16.1479 0 296.148 0 0.224951 0.97437<54.1702 326.638 719.338 1523.63> 444 639 728 605 0.725978 0.687718<182.795 644.064> 728 605 538 430 0.387203 -0.921995<87.7805 572.793>
LayerCount: 2
Back
SplineSet
76 0 m 2,0,1
 16 0 16 0 30 60 c 2,2,-1
 343 1416 l 2,3,4
 357 1476 357 1476 417 1476 c 2,5,-1
 577 1476 l 2,6,7
 637 1476 637 1476 623 1416 c 2,8,-1
 453 681 l 2,9,10
 444 641 444 641 431 601 c 1,11,-1
 435 601 l 1,12,-1
 846 1009 l 2,13,14
 887 1050 887 1050 933 1050 c 2,15,-1
 1097 1050 l 2,16,17
 1189 1050 1189 1050 1111 976 c 2,18,-1
 725 611 l 1,19,-1
 951 74 l 2,20,21
 982 0 982 0 903 0 c 2,22,-1
 732 0 l 2,23,24
 682 0 682 0 662 52 c 2,25,-1
 519 417 l 1,26,-1
 357 264 l 1,27,-1
 310 60 l 2,28,29
 296 0 296 0 236 0 c 2,30,-1
 76 0 l 2,0,1
975 16 m 10,4,-1
 743 579 l 25,5,-1
370 264 m 9,9,-1
 1114 976 l 2,10,11
1024 1201 m 10,0,-1
 301 516 l 25,1,-1
706 16 m 10,4,-1
 474 579 l 25,5,-1
EndSplineSet
Fore
SplineSet
76 0 m 2,0,1
 16 0 16 0 30 60 c 2,2,-1
 343 1416 l 2,3,4
 357 1476 357 1476 417 1476 c 2,5,-1
 577 1476 l 2,6,7
 637 1476 637 1476 623 1416 c 2,8,-1
 462 719 l 2,9,10
 453 681 453 681 440 639 c 1,11,-1
 444 639 l 1,12,-1
 822 1009 l 2,13,14
 864 1050 864 1050 909 1050 c 2,15,-1
 1100 1050 l 2,16,17
 1191 1050 1191 1050 1114 976 c 2,18,-1
 728 605 l 1,19,-1
 951 74 l 2,20,21
 982 0 982 0 903 0 c 2,22,-1
 760 0 l 2,23,24
 711 0 711 0 690 52 c 2,25,-1
 538 430 l 1,26,-1
 355 257 l 1,27,-1
 310 60 l 2,28,29
 296 0 296 0 236 0 c 2,30,-1
 76 0 l 2,0,1
EndSplineSet
EndChar

StartChar: f
Encoding: 102 102 49
Width: 682
GlyphClass: 1
Flags: W
HStem: -400 21G<-25 195> 850 200<154.927 233 559 713.805> 1300 196<627.215 894.68>
DStem2: -54.8521 -400 225.148 -400 0.224951 0.97437<54.1702 1282.72 1550.92 1804.09>
LayerCount: 2
Back
SplineSet
177.238 850 m 2,0,1
 118.238 850 118.238 850 129.781 900 c 2,2,-1
 152.868 1000 l 2,3,4
 164.411 1050 164.411 1050 223.411 1050 c 2,5,-1
 279.411 1050 l 1,6,-1
 311.733 1190 l 2,7,8
 354.213 1374 354.213 1374 473.296 1435 c 128,-1,9
 592.379 1496 592.379 1496 737.379 1496 c 256,10,11
 806.379 1496 806.379 1496 854.032 1488 c 128,-1,12
 901.685 1480 901.685 1480 936.914 1468 c 256,13,14
 970.145 1456 970.145 1456 951.371 1418 c 2,15,-1
 895.283 1305 l 2,16,17
 878.664 1272 878.664 1272 844.666 1285 c 256,18,19
 824.513 1293 824.513 1293 785.82 1296.5 c 128,-1,20
 747.129 1300 747.129 1300 724.129 1300 c 256,21,22
 651.129 1300 651.129 1300 622.354 1249 c 128,-1,23
 593.58 1198 593.58 1198 568.646 1090 c 2,24,-1
 559.412 1050 l 1,25,-1
 691.412 1050 l 2,26,27
 750.412 1050 750.412 1050 738.868 1000 c 2,28,-1
 715.781 900 l 2,29,30
 704.238 850 704.238 850 645.238 850 c 2,31,-1
 513.238 850 l 1,32,-1
 330.853 60 l 2,33,34
 317 0 317 0 257 0 c 2,35,-1
 97 0 l 2,36,37
 37 0 37 0 50.8525 60 c 2,38,-1
 233.238 850 l 1,39,-1
 177.238 850 l 2,0,1
EndSplineSet
Fore
SplineSet
177 850 m 2,0,1
 119 850 119 850 130 900 c 2,2,-1
 153 1000 l 2,3,4
 165 1050 165 1050 223 1050 c 2,5,-1
 279 1050 l 1,6,-1
 312 1190 l 2,7,8
 350 1353 350 1353 451 1424.5 c 128,-1,9
 552 1496 552 1496 732 1496 c 256,10,11
 791 1496 791 1496 837 1484.5 c 128,-1,12
 883 1473 883 1473 921 1458 c 256,13,14
 956 1444 956 1444 940 1405 c 2,15,-1
 895 1297 l 2,16,17
 885 1272 885 1272 846 1284 c 256,18,19
 817 1293 817 1293 782 1296.5 c 128,-1,20
 747 1300 747 1300 724 1300 c 256,21,22
 640 1300 640 1300 616.5 1242 c 128,-1,23
 593 1184 593 1184 569 1090 c 2,24,-1
 559 1050 l 1,25,-1
 691 1050 l 2,26,27
 751 1050 751 1050 739 1000 c 2,28,-1
 716 900 l 2,29,30
 704 850 704 850 645 850 c 2,31,-1
 513 850 l 1,32,-1
 239 -340 l 2,33,34
 225 -400 225 -400 165 -400 c 2,35,-1
 5 -400 l 2,36,37
 -55 -400 -55 -400 -41 -340 c 2,38,-1
 233 850 l 1,39,-1
 177 850 l 2,0,1
EndSplineSet
EndChar

StartChar: t
Encoding: 116 116 50
Width: 798
GlyphClass: 1
Flags: W
HStem: -33 196<386 627.503> 850 200<154.68 245 571 755.463>
DStem2: 41.5775 -33 321.654 -33 0.224951 0.97437<322.972 906.129 1174.34 1287.36>
LayerCount: 2
Back
SplineSet
177.238 850 m 2,0,1
 118.238 850 118.238 850 129.781 900 c 2,2,-1
 152.868 1000 l 2,3,4
 164.411 1050 164.411 1050 223.411 1050 c 2,5,-1
 291.411 1050 l 1,6,-1
 299.492 1085 l 2,7,8
 309.881 1130 309.881 1130 339.423 1167 c 2,9,-1
 447.591 1302 l 2,10,11
 478.363 1340 478.363 1340 508.363 1340 c 2,12,-1
 578.363 1340 l 2,13,14
 638.363 1340 638.363 1340 624.512 1280 c 2,15,-1
 571.412 1050 l 1,16,-1
 733.412 1050 l 2,17,18
 792.412 1050 792.412 1050 780.868 1000 c 2,19,-1
 757.781 900 l 2,20,21
 746.238 850 746.238 850 687.238 850 c 2,22,-1
 525.238 850 l 1,23,-1
 410.728 354 l 2,24,25
 387.179 252 387.179 252 391.405 207.5 c 128,-1,26
 395.632 163 395.632 163 456.632 163 c 256,27,28
 487.632 163 487.632 163 529.056 173.5 c 128,-1,29
 570.479 184 570.479 184 594.788 194 c 256,30,31
 633.482 210 633.482 210 635.479 171 c 2,32,-1
 639.159 57 l 2,33,34
 640.31 23 640.31 23 601.616 7 c 256,35,36
 565.153 -8 565.153 -8 504.768 -20.5 c 128,-1,37
 444.381 -33 444.381 -33 386.381 -33 c 256,38,39
 243.381 -33 243.381 -33 156.003 26 c 128,-1,40
 68.624 85 68.624 85 111.104 269 c 2,41,-1
 245.238 850 l 1,42,-1
 177.238 850 l 2,0,1
EndSplineSet
Fore
SplineSet
177 850 m 2,0,1
 118 850 118 850 130 900 c 2,2,-1
 153 1000 l 2,3,4
 165 1050 165 1050 223 1050 c 2,5,-1
 291 1050 l 1,6,-1
 299 1085 l 2,7,8
 309 1130 309 1130 339 1167 c 2,9,-1
 448 1302 l 2,10,11
 478 1340 478 1340 508 1340 c 2,12,-1
 578 1340 l 2,13,14
 638 1340 638 1340 625 1280 c 2,15,-1
 571 1050 l 1,16,-1
 733 1050 l 2,17,18
 792 1050 792 1050 781 1000 c 2,19,-1
 758 900 l 2,20,21
 746 850 746 850 687 850 c 2,22,-1
 525 850 l 1,23,-1
 411 354 l 2,24,25
 391 266 391 266 398.5 214.5 c 128,-1,26
 406 163 406 163 457 163 c 256,27,28
 488 163 488 163 526 170.5 c 128,-1,29
 564 178 564 178 589 188 c 256,30,31
 625 203 625 203 629 165 c 2,32,-1
 645 51 l 2,33,34
 649 18 649 18 608 1 c 256,35,36
 572 -14 572 -14 508 -23.5 c 128,-1,37
 444 -33 444 -33 386 -33 c 256,38,39
 202 -33 202 -33 145 68.5 c 128,-1,40
 88 170 88 170 130 350 c 2,41,-1
 245 850 l 1,42,-1
 177 850 l 2,0,1
EndSplineSet
EndChar

StartChar: l
Encoding: 108 108 51
Width: 552
GlyphClass: 1
Flags: W
HStem: 0 21G<46 266> 1476 20G<496.5 611>
VStem: 30 598
DStem2: 16.1479 0 296.148 0 0.224951 0.97437<54.1702 1413.6>
LayerCount: 2
Fore
SplineSet
76 0 m 2,0,1
 16 0 16 0 30 60 c 2,2,-1
 303 1241 l 2,3,4
 313 1286 313 1286 342 1323 c 2,5,-1
 451 1458 l 2,6,7
 482 1496 482 1496 511 1496 c 2,8,-1
 581 1496 l 2,9,10
 641 1496 641 1496 628 1436 c 2,11,-1
 310 60 l 2,12,13
 296 0 296 0 236 0 c 2,14,-1
 76 0 l 2,0,1
EndSplineSet
EndChar

StartChar: I
Encoding: 73 73 52
Width: 612
GlyphClass: 1
Flags: W
HStem: 0 21G<75 297> 1414 20G<406 628>
VStem: 57 589
DStem2: 39.6849 0 331.685 0 0.224951 0.97437<59.195 1478.34>
LayerCount: 2
Fore
SplineSet
110 0 m 2,0,1
 40 0 40 0 57 75 c 2,2,-1
 354 1359 l 2,3,4
 371 1434 371 1434 441 1434 c 2,5,-1
 593 1434 l 2,6,7
 663 1434 663 1434 646 1359 c 2,8,-1
 349 75 l 2,9,10
 332 0 332 0 262 0 c 2,11,-1
 110 0 l 2,0,1
EndSplineSet
EndChar

StartChar: H
Encoding: 72 72 53
Width: 1442
GlyphClass: 1
Flags: W
HStem: 0 21G<75 297 905 1127> 622 248<533 1014> 1414 20G<406 628 1236 1458>
DStem2: 39.6849 0 331.685 0 0.224951 0.97437<59.195 704.208 958.674 1478.34> 869.685 0 1161.68 0 0.224951 0.97437<59.195 638.522 892.988 1478.34>
LayerCount: 2
Fore
SplineSet
110 0 m 2,0,1
 40 0 40 0 57 75 c 2,2,-1
 354 1359 l 2,3,4
 371 1434 371 1434 441 1434 c 2,5,-1
 593 1434 l 2,6,7
 663 1434 663 1434 646 1359 c 2,8,-1
 533 870 l 1,9,-1
 1071 870 l 1,10,-1
 1184 1359 l 2,11,12
 1201 1434 1201 1434 1271 1434 c 2,13,-1
 1423 1434 l 2,14,15
 1493 1434 1493 1434 1476 1359 c 2,16,-1
 1179 75 l 2,17,18
 1162 0 1162 0 1092 0 c 2,19,-1
 940 0 l 2,20,21
 870 0 870 0 887 75 c 2,22,-1
 1014 622 l 1,23,-1
 476 622 l 1,24,-1
 349 75 l 2,25,26
 332 0 332 0 262 0 c 2,27,-1
 110 0 l 2,0,1
EndSplineSet
EndChar

StartChar: afii10033
Encoding: 1055 1055 54
Width: 1436
GlyphClass: 1
Flags: W
HStem: 0 21G<75 297 899 1121> 1186 248<606 1138>
DStem2: 39.6849 0 331.685 0 0.224951 0.97437<59.195 1283> 863.685 0 1155.68 0 0.224951 0.97437<59.195 1217.31>
LayerCount: 2
Fore
SplineSet
110 0 m 2,0,1
 40 0 40 0 57 75 c 2,2,-1
 354 1359 l 2,3,4
 371 1434 371 1434 441 1434 c 2,5,-1
 1417 1434 l 2,6,7
 1487 1434 1487 1434 1470 1359 c 2,8,-1
 1173 75 l 2,9,10
 1156 0 1156 0 1086 0 c 2,11,-1
 934 0 l 2,12,13
 864 0 864 0 881 75 c 2,14,-1
 1138 1186 l 1,15,-1
 606 1186 l 1,16,-1
 349 75 l 2,17,18
 332 0 332 0 262 0 c 2,19,-1
 110 0 l 2,0,1
EndSplineSet
EndChar

StartChar: E
Encoding: 69 69 55
Width: 1280
GlyphClass: 1
Flags: W
HStem: 0 248<389 1081.96> 620 248<532 1139.96> 1186 248<606 1323.96>
DStem2: 39.6849 0 331.745 0 0.224951 0.97437<320.223 702.034 956.5 1283>
LayerCount: 2
Fore
SplineSet
110 0 m 2,0,1
 40 0 40 0 57 75 c 2,2,-1
 354 1359 l 2,3,4
 371 1434 371 1434 441 1434 c 2,5,-1
 1299 1434 l 2,6,7
 1374 1434 1374 1434 1359 1369 c 2,8,-1
 1332 1251 l 2,9,10
 1317 1186 1317 1186 1242 1186 c 2,11,-1
 606 1186 l 9,12,-1
 532 868 l 1,13,-1
 1115 868 l 2,14,15
 1190 868 1190 868 1175 803 c 2,16,-1
 1148 685 l 2,17,18
 1133 620 1133 620 1058 620 c 2,19,-1
 475 620 l 1,20,-1
 389 248 l 17,21,-1
 1057 248 l 2,22,23
 1132 248 1132 248 1117 183 c 2,24,-1
 1090 65 l 2,25,26
 1075 0 1075 0 1000 0 c 2,27,-1
 110 0 l 2,0,1
EndSplineSet
EndChar

StartChar: O
Encoding: 79 79 60
Width: 1532
GlyphClass: 1
Flags: W
HStem: -34 236<564.859 930.096> 1232 236<691.904 1057.14>
VStem: 104 312<351.661 869.51> 1206 312<564.49 1082.34>
LayerCount: 2
Back
SplineSet
132 717 m 256,0,1
 212 1062 212 1062 436.5 1265 c 128,-1,2
 661 1468 661 1468 991 1468 c 256,3,4
 1321 1468 1321 1468 1452 1265 c 128,-1,5
 1583 1062 1583 1062 1504 717 c 256,6,7
 1424 372 1424 372 1199 169 c 128,-1,8
 974 -34 974 -34 644 -34 c 256,9,10
 314 -34 314 -34 183 169 c 128,-1,11
 52 372 52 372 132 717 c 256,0,1
444 717 m 256,12,13
 386 467 386 467 445 334.5 c 128,-1,14
 504 202 504 202 699 202 c 256,15,16
 894 202 894 202 1014 334.5 c 128,-1,17
 1134 467 1134 467 1192 717 c 256,18,19
 1250 967 1250 967 1190.5 1099.5 c 128,-1,20
 1131 1232 1131 1232 936 1232 c 256,21,22
 741 1232 741 1232 621.5 1099.5 c 128,-1,23
 502 967 502 967 444 717 c 256,12,13
EndSplineSet
Fore
SplineSet
104 587 m 256,0,1
 104 957 104 957 317 1212.5 c 128,-1,2
 530 1468 530 1468 880 1468 c 256,3,4
 1180 1468 1180 1468 1349 1312.5 c 128,-1,5
 1518 1157 1518 1157 1518 847 c 256,6,7
 1518 477 1518 477 1305 221.5 c 128,-1,8
 1092 -34 1092 -34 742 -34 c 256,9,10
 442 -34 442 -34 273 121.5 c 128,-1,11
 104 277 104 277 104 587 c 256,0,1
416 545 m 256,12,13
 416 385 416 385 501 293.5 c 128,-1,14
 586 202 586 202 756 202 c 256,15,16
 956 202 956 202 1081 390.5 c 128,-1,17
 1206 579 1206 579 1206 889 c 256,18,19
 1206 1049 1206 1049 1121 1140.5 c 128,-1,20
 1036 1232 1036 1232 866 1232 c 256,21,22
 666 1232 666 1232 541 1043.5 c 128,-1,23
 416 855 416 855 416 545 c 256,12,13
EndSplineSet
EndChar

StartChar: s
Encoding: 115 115 61
Width: 1005
GlyphClass: 1
Flags: W
LayerCount: 2
Fore
SplineSet
40 72 m 256,0,1
 -5 105 -5 105 21 149 c 2,2,-1
 75 239 l 2,3,4
 99 280 99 280 160 242 c 256,5,6
 214 208 214 208 289 192 c 128,-1,7
 364 176 364 176 428 176 c 256,8,9
 494 176 494 176 535 195 c 128,-1,10
 576 214 576 214 592 241 c 128,-1,11
 608 268 608 268 608 302 c 256,12,13
 608 326 608 326 599 346 c 128,-1,14
 590 366 590 366 567 382 c 128,-1,15
 544 398 544 398 513 410 c 256,16,17
 452 434 452 434 418.5 448.5 c 128,-1,18
 385 463 385 463 341 482 c 256,19,20
 271 512 271 512 233.5 550 c 128,-1,21
 196 588 196 588 178.5 634 c 128,-1,22
 161 680 161 680 161 749 c 256,23,24
 161 850 161 850 221.5 930 c 128,-1,25
 282 1010 282 1010 379 1040 c 128,-1,26
 476 1070 476 1070 614 1070 c 256,27,28
 700 1070 700 1070 781 1044 c 152,-1,29
 862 1018 862 1018 912 987 c 256,30,31
 970 951 970 951 933 903 c 26,32,-1
 870 821 l 18,33,34
 843 786 843 786 780 824 c 256,35,36
 750 842 750 842 697 858 c 128,-1,37
 644 874 644 874 595 874 c 256,38,39
 560 874 560 874 524 866 c 128,-1,40
 488 858 488 858 463 831.5 c 128,-1,41
 438 805 438 805 438 768 c 256,42,43
 438 744 438 744 445 724 c 128,-1,44
 452 704 452 704 474.5 683 c 128,-1,45
 497 662 497 662 523 651 c 256,46,47
 566 633 566 633 607 618 c 128,-1,48
 648 603 648 603 698 580 c 256,49,50
 765 549 765 549 806 510 c 128,-1,51
 847 471 847 471 866 424.5 c 128,-1,52
 885 378 885 378 885 312 c 256,53,54
 885 213 885 213 813.5 125.5 c 128,-1,55
 742 38 742 38 640.5 9 c 128,-1,56
 539 -20 539 -20 421 -20 c 256,57,58
 280 -20 280 -20 196 -0.5 c 152,-1,59
 112 19 112 19 40 72 c 256,0,1
EndSplineSet
EndChar

StartChar: afii10040
Encoding: 1062 1062 62
Width: 1522
GlyphClass: 1
Flags: W
HStem: -370 21G<1037 1227> 0 248<389 915> 1414 20G<406 628 1224 1446>
DStem2: -45.7363 -370 246.323 -370 0.224951 0.97437<699.955 1858.07> 772.323 -370 1064.32 -370 0.224951 0.97437<699.942 1858.06> 1006.84 -370 1256.84 -370 0.224951 0.97437<47.9133 379.674>
LayerCount: 2
Fore
SplineSet
110 0 m 2,0,1
 40 0 40 0 57 75 c 2,2,-1
 354 1359 l 2,3,4
 371 1434 371 1434 441 1434 c 2,5,-1
 593 1434 l 2,6,7
 663 1434 663 1434 646 1359 c 2,8,-1
 389 248 l 1,9,-1
 915 248 l 1,10,-1
 1172 1359 l 2,11,12
 1189 1434 1189 1434 1259 1434 c 2,13,-1
 1411 1434 l 2,14,15
 1481 1434 1481 1434 1464 1359 c 2,16,-1
 1207 248 l 1,17,-1
 1329 248 l 2,18,19
 1399 248 1399 248 1382 173 c 2,20,-1
 1273 -300 l 2,21,22
 1257 -370 1257 -370 1197 -370 c 2,23,-1
 1067 -370 l 2,24,25
 1007 -370 1007 -370 1023 -300 c 2,26,-1
 1092 0 l 1,27,-1
 110 0 l 2,0,1
EndSplineSet
EndChar

StartChar: afii10042
Encoding: 1064 1064 63
Width: 2140
GlyphClass: 1
Flags: W
HStem: 0 248<389 861 1153 1625> 1414 20G<406 628 1170 1392 1934 2156>
DStem2: 39.6849 0 331.745 0 0.224951 0.97437<320.223 1478.34> 803.745 0 1095.74 0 0.224951 0.97437<320.209 1478.32> 1567.74 0 1859.68 0 0.224951 0.97437<254.523 1478.32>
LayerCount: 2
Fore
SplineSet
110 0 m 2,0,1
 40 0 40 0 57 75 c 2,2,-1
 354 1359 l 2,3,4
 371 1434 371 1434 441 1434 c 2,5,-1
 593 1434 l 2,6,7
 663 1434 663 1434 646 1359 c 2,8,-1
 389 248 l 1,9,-1
 861 248 l 1,10,-1
 1118 1359 l 2,11,12
 1135 1434 1135 1434 1205 1434 c 2,13,-1
 1357 1434 l 2,14,15
 1427 1434 1427 1434 1410 1359 c 2,16,-1
 1153 248 l 1,17,-1
 1625 248 l 1,18,-1
 1882 1359 l 2,19,20
 1899 1434 1899 1434 1969 1434 c 2,21,-1
 2121 1434 l 2,22,23
 2191 1434 2191 1434 2174 1359 c 2,24,-1
 1877 75 l 2,25,26
 1860 0 1860 0 1790 0 c 2,27,-1
 110 0 l 2,0,1
EndSplineSet
EndChar

StartChar: afii10041
Encoding: 1063 1063 64
Width: 1308
GlyphClass: 1
Flags: W
HStem: 0 21G<771 993> 524 236<434 767.549> 1414 20G<358 580 1102 1324>
DStem2: -8.01739 0 283.749 0 0.224951 0.97437<905.447 1478.27> 735.685 0 1027.68 0 0.224951 0.97437<59.195 626.227 818.236 1478.34>
LayerCount: 2
Back
SplineSet
207 932 m 2,0,-1
 306 1359 l 2,1,2
 323 1434 323 1434 393 1434 c 2,3,-1
 545 1434 l 2,4,5
 615 1434 615 1434 598 1359 c 2,6,-1
 510 980 l 2,7,8
 482 858 482 858 514.5 809 c 128,-1,9
 547 760 547 760 624 760 c 256,10,11
 696 760 696 760 762.5 773 c 128,-1,12
 829 786 829 786 927 827 c 1,13,-1
 1050 1359 l 2,14,15
 1067 1434 1067 1434 1137 1434 c 2,16,-1
 1289 1434 l 2,17,18
 1359 1434 1359 1434 1342 1359 c 2,19,-1
 1045 75 l 2,20,21
 1028 0 1028 0 958 0 c 2,22,-1
 806 0 l 2,23,24
 736 0 736 0 753 75 c 2,25,-1
 849 491 l 2,26,27
 863 551 863 551 882 611 c 1,28,-1
 875 611 l 1,29,30
 794 574 794 574 687.5 549 c 128,-1,31
 581 524 581 524 496 524 c 256,32,33
 321 524 321 524 245 646 c 128,-1,34
 169 768 169 768 207 932 c 2,0,-1
EndSplineSet
Fore
SplineSet
212 953 m 2,0,-1
 306 1359 l 2,1,2
 323 1434 323 1434 393 1434 c 2,3,-1
 545 1434 l 2,4,5
 615 1434 615 1434 598 1359 c 2,6,-1
 510 980 l 2,7,8
 482 858 482 858 513 809 c 128,-1,9
 544 760 544 760 612 760 c 256,10,11
 684 760 684 760 756.5 773 c 128,-1,12
 829 786 829 786 927 827 c 1,13,-1
 1050 1359 l 2,14,15
 1067 1434 1067 1434 1137 1434 c 2,16,-1
 1289 1434 l 2,17,18
 1359 1434 1359 1434 1342 1359 c 2,19,-1
 1045 75 l 2,20,21
 1028 0 1028 0 958 0 c 2,22,-1
 806 0 l 2,23,24
 736 0 736 0 753 75 c 2,25,-1
 849 491 l 2,26,27
 862 549 862 549 882 611 c 1,28,-1
 875 611 l 1,29,30
 794 574 794 574 703 549 c 128,-1,31
 612 524 612 524 514 524 c 256,32,33
 354 524 354 524 262 647 c 128,-1,34
 170 770 170 770 212 953 c 2,0,-1
EndSplineSet
EndChar

StartChar: uni0237
Encoding: 567 567 65
Width: 562
GlyphClass: 1
Flags: MW
HStem: -420 196<-278.233 -52.1417> 1030 20G<298.5 518.5>
DStem2: -70.9672 -420 208.959 -420 0.224951 0.97437<224.473 1517.58>
LayerCount: 2
Back
SplineSet
-295.425 -409 m 256,0,1
 -331.809 -402 -331.809 -402 -312.42 -357 c 2,2,-1
 -265.024 -247 l 2,3,4
 -245.404 -201 -245.404 -201 -207.099 -217 c 256,5,6
 -190.715 -224 -190.715 -224 -136.715 -224 c 256,7,8
 -73.7148 -224 -73.7148 -224 -34.4775 -158 c 128,-1,9
 4.75977 -92 4.75977 -92 32.0029 26 c 2,10,-1
 254.56 990 l 2,11,12
 268.411 1050 268.411 1050 328.411 1050 c 2,13,-1
 488.411 1050 l 2,14,15
 548.412 1050 548.412 1050 534.56 990 c 2,16,-1
 305.076 -4 l 2,17,18
 247.821 -252 247.821 -252 131.429 -336 c 128,-1,19
 15.0352 -420 15.0352 -420 -146.965 -420 c 256,20,21
 -236.965 -420 -236.965 -420 -295.425 -409 c 256,0,1
EndSplineSet
Fore
SplineSet
-286 -405 m 260,0,1
 -323 -394 -323 -394 -307 -349 c 6,2,-1
 -270 -243 l 6,3,4
 -258 -208 -258 -208 -216 -215 c 260,5,6
 -167 -224 -167 -224 -149 -224 c 260,7,8
 -76 -224 -76 -224 -36 -159 c 132,-1,9
 4 -94 4 -94 32 26 c 6,10,-1
 255 990 l 2,11,12
 269 1050 269 1050 328 1050 c 2,13,-1
 488 1050 l 2,14,15
 549 1050 549 1050 535 990 c 2,16,-1
 305 -4 l 6,17,18
 248 -252 248 -252 137 -336 c 132,-1,19
 26 -420 26 -420 -145 -420 c 260,20,21
 -235 -420 -235 -420 -286 -405 c 260,0,1
EndSplineSet
EndChar

StartChar: four
Encoding: 52 52 67
Width: 1200
GlyphClass: 1
Flags: W
HStem: 0 21G<584.5 799.5> 312 248<380 624 961 1097> 1420 20G<906.5 1131>
DStem2: 112 608 380 560 0.677261 0.735743<146.19 739.969> 551.994 0 831.994 0 0.224951 0.97437<54.9309 320.201 637.654 1022.78>
LayerCount: 2
Back
SplineSet
79.0312 312 m 2,0,1
 14.0312 312 14.0312 312 29.0371 377 c 2,2,-1
 59.5117 509 l 2,3,4
 72.6719 566 72.6719 566 112.368 608 c 2,5,-1
 846.445 1388 l 2,6,7
 895.45 1440 895.45 1440 951.45 1440 c 2,8,-1
 1098.45 1440 l 2,9,10
 1164.45 1440 1164.45 1440 1149.44 1375 c 2,11,-1
 961.286 560 l 1,12,-1
 1082.29 560 l 2,13,14
 1147.29 560 1147.29 560 1132.28 495 c 2,15,-1
 1105.04 377 l 2,16,17
 1090.03 312 1090.03 312 1026.03 312 c 2,18,-1
 904.031 312 l 1,19,-1
 847.007 65 l 2,20,21
 832 0 832 0 767 0 c 2,22,-1
 617 0 l 2,23,24
 552 0 552 0 567.007 65 c 2,25,-1
 624.031 312 l 1,26,-1
 79.0312 312 l 2,0,1
350.286 560 m 1,27,-1
 681.286 560 l 1,28,-1
 770.632 947 l 2,29,30
 779.867 987 779.867 987 793.102 1027 c 1,31,-1
 789.102 1027 l 1,32,-1
 350.286 560 l 1,27,-1
377.824 558 m 2,5,-1
 1094.9 1338 l 2,6,7
112.368 608 m 2,5,-1
 829.445 1388 l 2,6,7
EndSplineSet
Fore
SplineSet
79 312 m 2,0,1
 14 312 14 312 29 377 c 2,2,-1
 60 509 l 2,3,4
 73 565 73 565 112 608 c 2,5,-1
 830 1388 l 2,6,7
 878 1440 878 1440 935 1440 c 2,8,-1
 1098 1440 l 2,9,10
 1164 1440 1164 1440 1149 1375 c 2,11,-1
 961 560 l 1,12,-1
 1082 560 l 2,13,14
 1147 560 1147 560 1132 495 c 2,15,-1
 1105 377 l 2,16,17
 1090 312 1090 312 1026 312 c 2,18,-1
 904 312 l 1,19,-1
 847 65 l 2,20,21
 832 0 832 0 767 0 c 2,22,-1
 617 0 l 2,23,24
 552 0 552 0 567 65 c 2,25,-1
 624 312 l 1,26,-1
 79 312 l 2,0,1
380 560 m 1,27,-1
 681 560 l 1,28,-1
 764 917 l 2,29,30
 773 957 773 957 786 997 c 1,31,-1
 782 997 l 1,32,-1
 380 560 l 1,27,-1
EndSplineSet
EndChar

StartChar: zero
Encoding: 48 48 68
Width: 1200
GlyphClass: 1
Flags: W
HStem: -34 218<447.203 669.906> 1238 218<618.094 840.797>
VStem: 100 296<242.269 800.852> 892 296<621.148 1179.73>
LayerCount: 2
Back
SplineSet
132 711 m 256,0,1
 226 1116 226 1116 391 1286 c 128,-1,2
 556 1456 556 1456 816 1456 c 256,3,4
 1076 1456 1076 1456 1163 1286 c 128,-1,5
 1250 1116 1250 1116 1156 711 c 256,6,7
 1062 306 1062 306 897 136 c 128,-1,8
 732 -34 732 -34 472 -34 c 256,9,10
 212 -34 212 -34 125 136 c 128,-1,11
 38 306 38 306 132 711 c 256,0,1
428 711 m 256,12,13
 385 526 385 526 376 355 c 128,-1,14
 367 184 367 184 522 184 c 256,15,16
 677 184 677 184 747 355 c 128,-1,17
 817 526 817 526 860 711 c 256,18,19
 903 896 903 896 912 1067 c 128,-1,20
 921 1238 921 1238 766 1238 c 256,21,22
 611 1238 611 1238 541 1067 c 128,-1,23
 471 896 471 896 428 711 c 256,12,13
EndSplineSet
Fore
SplineSet
100 489 m 256,0,1
 100 809 100 809 242.5 1132.5 c 128,-1,2
 385 1456 385 1456 760 1456 c 256,3,4
 950 1456 950 1456 1069 1339.5 c 128,-1,5
 1188 1223 1188 1223 1188 933 c 256,6,7
 1188 613 1188 613 1045.5 289.5 c 128,-1,8
 903 -34 903 -34 528 -34 c 256,9,10
 338 -34 338 -34 219 82.5 c 128,-1,11
 100 199 100 199 100 489 c 256,0,1
396 449 m 256,12,13
 396 309 396 309 433.5 246.5 c 128,-1,14
 471 184 471 184 546 184 c 256,15,16
 721 184 721 184 806.5 466 c 128,-1,17
 892 748 892 748 892 973 c 256,18,19
 892 1113 892 1113 854.5 1175.5 c 128,-1,20
 817 1238 817 1238 742 1238 c 256,21,22
 567 1238 567 1238 481.5 956 c 128,-1,23
 396 674 396 674 396 449 c 256,12,13
EndSplineSet
EndChar

StartChar: seven
Encoding: 55 55 69
Width: 1112
GlyphClass: 1
Flags: W
HStem: -6 21G<242 456.5> 1174 248<284 898>
VStem: 224 280<0.347656 231.711>
LayerCount: 2
Back
SplineSet
299 1174 m 2,0,1
 234 1174 234 1174 249 1239 c 2,2,-1
 276 1357 l 2,3,4
 291 1422 291 1422 356 1422 c 2,5,-1
 1172 1422 l 2,6,7
 1237 1422 1237 1422 1222 1357 c 2,8,-1
 1196 1244 l 2,9,10
 1184 1193 1184 1193 1121 1137 c 0,11,12
 863 906 863 906 728 676 c 128,-1,13
 593 446 593 446 518 121 c 2,14,-1
 504 59 l 2,15,16
 489 -6 489 -6 424 -6 c 2,17,-1
 274 -6 l 2,18,19
 209 -6 209 -6 224 59 c 2,20,-1
 230 86 l 2,21,22
 313 447 313 447 489.5 693 c 128,-1,23
 666 939 666 939 918 1174 c 1,24,-1
 919 1178 l 1,25,26
 878 1174 878 1174 838 1174 c 2,27,-1
 299 1174 l 2,0,1
EndSplineSet
Fore
SplineSet
299 1174 m 2,0,1
 234 1174 234 1174 249 1239 c 2,2,-1
 276 1357 l 2,3,4
 291 1422 291 1422 356 1422 c 2,5,-1
 1172 1422 l 2,6,7
 1237 1422 1237 1422 1222 1357 c 2,8,-1
 1196 1244 l 2,9,10
 1184 1191 1184 1191 1121 1137 c 0,11,12
 869 921 869 921 733 695 c 128,-1,13
 597 469 597 469 518 121 c 2,14,-1
 504 59 l 2,15,16
 489 -6 489 -6 424 -6 c 2,17,-1
 274 -6 l 2,18,19
 210 -6 210 -6 224 59 c 2,20,-1
 230 86 l 2,21,22
 319 489 319 489 501.5 738 c 128,-1,23
 684 987 684 987 897 1174 c 1,24,-1
 898 1178 l 1,25,26
 857 1174 857 1174 817 1174 c 2,27,-1
 299 1174 l 2,0,1
EndSplineSet
EndChar

StartChar: afii10046
Encoding: 1068 1068 70
Width: 1350
GlyphClass: 1
Flags: W
HStem: 0 244<388 817.541> 626 244<533 870.904> 1414 20G<406 628>
VStem: 923 312<327.341 574.61>
DStem2: 39.6849 0 331.668 0 0.224951 0.97437<316.1 708.33 958.674 1478.34>
LayerCount: 2
Back
SplineSet
110 0 m 2,0,1
 40 0 40 0 57 75 c 2,2,-1
 354 1359 l 2,3,4
 371 1434 371 1434 441 1434 c 2,5,-1
 593 1434 l 2,6,7
 663 1434 663 1434 646 1359 c 2,8,-1
 533 870 l 1,9,-1
 688 870 l 2,10,11
 1058 870 1058 870 1175 752.5 c 128,-1,12
 1292 635 1292 635 1245 435 c 256,13,14
 1199 235 1199 235 1028 117.5 c 128,-1,15
 857 0 857 0 487 0 c 2,16,-1
 110 0 l 2,0,1
388 244 m 1,17,-1
 514 244 l 2,18,19
 724 244 724 244 815 279.5 c 128,-1,20
 906 315 906 315 933 435 c 256,21,22
 961 555 961 555 887 590.5 c 128,-1,23
 813 626 813 626 603 626 c 2,24,-1
 477 626 l 1,25,-1
 388 244 l 1,17,-1
EndSplineSet
Fore
SplineSet
110 0 m 2,0,1
 40 0 40 0 57 75 c 2,2,-1
 354 1359 l 2,3,4
 371 1434 371 1434 441 1434 c 2,5,-1
 593 1434 l 2,6,7
 663 1434 663 1434 646 1359 c 2,8,-1
 533 870 l 1,9,-1
 668 870 l 2,10,11
 1000 870 1000 870 1117.5 755 c 128,-1,12
 1235 640 1235 640 1235 474 c 256,13,14
 1235 267 1235 267 1053.5 133.5 c 128,-1,15
 872 0 872 0 507 0 c 2,16,-1
 110 0 l 2,0,1
388 244 m 1,17,-1
 534 244 l 2,18,19
 724 244 724 244 823.5 288 c 128,-1,20
 923 332 923 332 923 457 c 256,21,22
 923 555 923 555 857.5 590.5 c 128,-1,23
 792 626 792 626 583 626 c 2,24,-1
 477 626 l 1,25,-1
 388 244 l 1,17,-1
EndSplineSet
EndChar

StartChar: afii10020
Encoding: 1043 1043 71
Width: 1118
GlyphClass: 1
Flags: W
HStem: 0 21G<75 297> 1186 248<606 1244.96>
DStem2: 39.6849 0 331.685 0 0.224951 0.97437<59.195 1283>
LayerCount: 2
Fore
SplineSet
110 0 m 2,0,1
 40 0 40 0 57 75 c 2,2,-1
 354 1359 l 2,3,4
 371 1434 371 1434 441 1434 c 2,5,-1
 1220 1434 l 2,6,7
 1295 1434 1295 1434 1280 1369 c 2,8,-1
 1253 1251 l 2,9,10
 1238 1186 1238 1186 1163 1186 c 2,11,-1
 606 1186 l 9,12,-1
 349 75 l 2,13,14
 332 0 332 0 262 0 c 2,15,-1
 110 0 l 2,0,1
EndSplineSet
EndChar

StartChar: afii10018
Encoding: 1041 1041 72
Width: 1370
GlyphClass: 1
Flags: W
HStem: 0 244<388 827.541> 632 244<534 881.441> 1186 248<606 1290.96>
VStem: 933 312<328.088 582.227>
DStem2: 39.6849 0 331.668 0 0.224951 0.97437<316.1 714.401 964.745 1283>
LayerCount: 2
Back
SplineSet
110 0 m 2,0,1
 40 0 40 0 57 75 c 2,2,-1
 354 1359 l 2,3,4
 371 1434 371 1434 441 1434 c 2,5,-1
 1290 1434 l 2,6,7
 1365 1434 1365 1434 1350 1369 c 2,8,-1
 1323 1251 l 2,9,10
 1308 1186 1308 1186 1233 1186 c 2,11,-1
 606 1186 l 1,12,-1
 534 876 l 1,13,-1
 699 876 l 2,14,15
 1069 876 1069 876 1185.5 757 c 128,-1,16
 1302 638 1302 638 1256 438 c 256,17,18
 1210 238 1210 238 1038.5 119 c 128,-1,19
 867 0 867 0 497 0 c 2,20,-1
 110 0 l 2,0,1
388 244 m 1,21,-1
 524 244 l 2,22,23
 734 244 734 244 825 281 c 128,-1,24
 916 318 916 318 944 438 c 256,25,26
 972 558 972 558 898 595 c 128,-1,27
 824 632 824 632 614 632 c 2,28,-1
 478 632 l 1,29,-1
 388 244 l 1,21,-1
EndSplineSet
Fore
SplineSet
110 0 m 2,0,1
 40 0 40 0 57 75 c 2,2,-1
 354 1359 l 2,3,4
 371 1434 371 1434 441 1434 c 2,5,-1
 1266 1434 l 2,6,7
 1341 1434 1341 1434 1326 1369 c 2,8,-1
 1299 1251 l 2,9,10
 1284 1186 1284 1186 1209 1186 c 2,11,-1
 606 1186 l 1,12,-1
 534 876 l 1,13,-1
 679 876 l 2,14,15
 1011 876 1011 876 1128 761 c 128,-1,16
 1245 646 1245 646 1245 477 c 256,17,18
 1245 267 1245 267 1063.5 133.5 c 128,-1,19
 882 0 882 0 517 0 c 2,20,-1
 110 0 l 2,0,1
388 244 m 1,21,-1
 544 244 l 2,22,23
 734 244 734 244 833.5 288 c 128,-1,24
 933 332 933 332 933 460 c 256,25,26
 933 561 933 561 868 596.5 c 128,-1,27
 803 632 803 632 594 632 c 2,28,-1
 478 632 l 1,29,-1
 388 244 l 1,21,-1
EndSplineSet
EndChar

StartChar: afii10194
Encoding: 1123 1123 73
Width: 1661
VWidth: 1000
GlyphClass: 1
Flags: MW
HStem: -20 196<990.145 1217.82> 0 21G<46 266> 468 196<1069.13 1320.5> 468 119<1027.95 1091.92> 874 196<655.339 890> 1030 20G<288.5 506.5>
VStem: 1269 296<226.205 443.795>
DStem2: 11.5305 -20 291.531 -20 0.224951 0.97437<74.6963 807.87 986.14 1106.58>
LayerCount: 2
Back
SplineSet
1124 990 m 6,0,-1
 1050 667 l 6,1,2
 1039 620 1039 620 1027 587 c 5,3,-1
 1032 587 l 5,4,5
 1065 628 1065 628 1132.5 646 c 132,-1,6
 1200 664 1200 664 1256 664 c 260,7,8
 1385 664 1385 664 1475 580 c 132,-1,9
 1565 496 1565 496 1565 359 c 260,10,11
 1565 222 1565 222 1441 101 c 132,-1,12
 1317 -20 1317 -20 1050 -20 c 260,13,14
 825 -20 825 -20 749.5 116 c 132,-1,15
 674 252 674 252 709 405 c 6,16,-1
 844 990 l 6,17,18
972 336 m 260,19,20
 954 260 954 260 989.5 218 c 132,-1,21
 1025 176 1025 176 1086 176 c 260,22,23
 1172 176 1172 176 1220.5 222 c 132,-1,24
 1269 268 1269 268 1269 358 c 260,25,26
 1269 415 1269 415 1234.5 441.5 c 132,-1,27
 1200 468 1200 468 1158 468 c 260,28,29
 1093 468 1093 468 1040.5 436 c 132,-1,30
 988 404 988 404 972 336 c 260,19,20
76 0 m 2,0,1
 16 0 16 0 30 60 c 2,2,-1
 245 990 l 2,3,4
 259 1050 259 1050 318 1050 c 2,5,-1
 476 1050 l 2,6,7
 536 1050 536 1050 523 990 c 2,8,-1
 502 900 l 1,9,-1
 506 900 l 1,10,11
 552 969 552 969 624 1019.5 c 128,-1,12
 696 1070 696 1070 772 1070 c 256,13,14
 897 1070 897 1070 951.5 998.5 c 128,-1,15
 1006 927 1006 927 1006 839 c 1,16,-1
 1010 839 l 1,17,18
 1083 951 1083 951 1173 1010.5 c 128,-1,19
 1263 1070 1263 1070 1392 1070 c 256,20,21
 1527 1070 1527 1070 1611 964 c 128,-1,22
 1695 858 1695 858 1635 600 c 2,23,-1
 1510 60 l 2,24,25
 1496 0 1496 0 1436 0 c 2,26,-1
 1276 0 l 2,27,28
 1216 0 1216 0 1230 60 c 2,29,-1
 1336 520 l 2,30,31
 1379 708 1379 708 1369 791 c 128,-1,32
 1359 874 1359 874 1284 874 c 256,33,34
 1214 874 1214 874 1137 792.5 c 128,-1,35
 1060 711 1060 711 991 412 c 2,36,-1
 910 60 l 2,37,38
 896 0 896 0 836 0 c 2,39,-1
 676 0 l 2,40,41
 616 0 616 0 630 60 c 2,42,-1
 731 500 l 2,43,44
 778 705 778 705 768.5 789.5 c 128,-1,45
 759 874 759 874 684 874 c 256,46,47
 615 874 615 874 531 764 c 128,-1,48
 447 654 447 654 391 412 c 2,49,-1
 310 60 l 2,50,51
 296 0 296 0 236 0 c 2,52,-1
 76 0 l 2,0,1
EndSplineSet
Fore
SplineSet
76 0 m 2,0,1
 16 0 16 0 30 60 c 2,2,-1
 245 990 l 2,3,4
 259 1050 259 1050 318 1050 c 2,5,-1
 476 1050 l 2,6,7
 537 1050 537 1050 523 990 c 2,8,-1
 497 880 l 1,9,-1
 501 880 l 1,10,11
 578 984 578 984 658 1027 c 128,-1,12
 738 1070 738 1070 825 1070 c 256,13,14
 955 1070 955 1070 1021 951.5 c 128,-1,15
 1087 833 1087 833 1059 707 c 2,16,-1
 1050 667 l 2,17,18
 1040 624 1040 624 1027 587 c 1,19,-1
 1032 587 l 1,20,21
 1065 628 1065 628 1132.5 646 c 128,-1,22
 1200 664 1200 664 1256 664 c 256,23,24
 1385 664 1385 664 1475 580 c 128,-1,25
 1565 496 1565 496 1565 359 c 256,26,27
 1565 222 1565 222 1441 101 c 128,-1,28
 1317 -20 1317 -20 1050 -20 c 256,29,30
 825 -20 825 -20 749.5 116.5 c 128,-1,31
 674 253 674 253 709 405 c 2,32,-1
 731 500 l 2,33,34
 778 704 778 704 771 789 c 128,-1,35
 764 874 764 874 704 874 c 256,36,37
 624 874 624 874 529 737 c 128,-1,38
 434 600 434 600 370 322 c 2,39,-1
 310 60 l 2,40,41
 296 0 296 0 236 0 c 2,42,-1
 76 0 l 2,0,1
972 336 m 256,43,44
 954 260 954 260 989.5 218 c 128,-1,45
 1025 176 1025 176 1086 176 c 256,46,47
 1172 176 1172 176 1220.5 222 c 128,-1,48
 1269 268 1269 268 1269 358 c 256,49,50
 1269 415 1269 415 1234.5 441.5 c 128,-1,51
 1200 468 1200 468 1158 468 c 256,52,53
 1093 468 1093 468 1040.5 436 c 128,-1,54
 988 404 988 404 972 336 c 256,43,44
EndSplineSet
EndChar

StartChar: period
Encoding: 46 46 74
Width: 668
GlyphClass: 1
Flags: W
HStem: 0 284<127.594 366.12>
VStem: 85 323
LayerCount: 2
Fore
SplineSet
138 0 m 2,0,1
 68 0 68 0 85 75 c 2,2,-1
 116 209 l 2,3,4
 133 284 133 284 204 284 c 2,5,-1
 356 284 l 2,6,7
 426 284 426 284 408 209 c 2,8,-1
 377 75 l 2,9,10
 360 0 360 0 290 0 c 2,11,-1
 138 0 l 2,0,1
EndSplineSet
EndChar

StartChar: h
Encoding: 104 104 75
Width: 1200
GlyphClass: 1
Flags: MW
HStem: 0 21G<46 266 696 916> 874 196<635.994 905.5> 1456 20G<387 607>
DStem2: 16.1479 0 296.148 0 0.224951 0.97437<54.1702 834.739 999.43 1523.63> 666.148 0 946.148 0 0.224951 0.97437<54.1702 832.507>
LayerCount: 2
Back
SplineSet
76 0 m 2,0,1
 16 0 16 0 30 60 c 2,2,-1
 343 1416 l 2,3,4
 357 1476 357 1476 417 1476 c 2,5,-1
 577 1476 l 2,6,7
 637 1476 637 1476 623 1416 c 2,8,-1
 530 1012 l 2,9,10
 521 972 521 972 507 932 c 1,11,-1
 513 932 l 1,12,13
 577 1011 577 1011 655 1040.5 c 128,-1,14
 733 1070 733 1070 833 1070 c 256,15,16
 989 1070 989 1070 1068.5 972 c 128,-1,17
 1148 874 1148 874 1088 614 c 2,18,-1
 960 60 l 2,19,20
 946 0 946 0 886 0 c 2,21,-1
 726 0 l 2,22,23
 666 0 666 0 680 60 c 2,24,-1
 791 542 l 2,25,26
 841 760 841 760 824.5 817 c 128,-1,27
 808 874 808 874 709 874 c 256,28,29
 604 874 604 874 532 792.5 c 128,-1,30
 460 711 460 711 401 454 c 2,31,-1
 310 60 l 2,32,33
 296 0 296 0 236 0 c 2,34,-1
 76 0 l 2,0,1
EndSplineSet
Fore
SplineSet
76 0 m 2,0,1
 16 0 16 0 30 60 c 2,2,-1
 343 1416 l 2,3,4
 357 1476 357 1476 417 1476 c 2,5,-1
 577 1476 l 2,6,7
 637 1476 637 1476 623 1416 c 2,8,-1
 526 992 l 6,9,10
 517 951 517 951 503 912 c 5,11,-1
 508 912 l 5,12,13
 588 1006 588 1006 660.5 1038 c 132,-1,14
 733 1070 733 1070 833 1070 c 260,15,16
 978 1070 978 1070 1061 963 c 132,-1,17
 1144 856 1144 856 1088 614 c 6,18,-1
 960 60 l 2,19,20
 946 0 946 0 886 0 c 2,21,-1
 726 0 l 2,22,23
 666 0 666 0 680 60 c 2,24,-1
 791 542 l 6,25,26
 840 754 840 754 816 814 c 132,-1,27
 792 874 792 874 709 874 c 260,28,29
 604 874 604 874 523 757 c 132,-1,30
 442 640 442 640 393 424 c 6,31,-1
 310 60 l 2,32,33
 296 0 296 0 236 0 c 2,34,-1
 76 0 l 2,0,1
EndSplineSet
EndChar

StartChar: b
Encoding: 98 98 76
Width: 1192
GlyphClass: 1
Flags: MW
HStem: -20 196<417.761 674.097> 0 21G<46 258> 874 196<624.046 789.936> 1456 20G<387 607>
VStem: 833 296<402.044 826.007>
DStem2: 11.5305 -20 290.961 -20 0.224951 0.97437<76.4933 181.068 352.806 871.865 1019.96 1544.15>
LayerCount: 2
Fore
SplineSet
76 0 m 2,0,1
 16 0 16 0 30 60 c 2,2,-1
 343 1416 l 6,3,4
 357 1476 357 1476 417 1476 c 6,5,-1
 577 1476 l 6,6,7
 637 1476 637 1476 623 1416 c 6,8,-1
 526 992 l 6,9,10
 517 951 517 951 503 912 c 5,11,-1
 507 912 l 5,12,13
 579 998 579 998 636 1034 c 128,-1,14
 693 1070 693 1070 766 1070 c 256,15,16
 964 1070 964 1070 1046.5 940 c 128,-1,17
 1129 810 1129 810 1129 651 c 256,18,19
 1129 388 1129 388 968.5 184 c 128,-1,20
 808 -20 808 -20 596 -20 c 256,21,22
 524 -20 524 -20 446 -1 c 128,-1,23
 368 18 368 18 318 96 c 1,24,-1
 314 96 l 1,25,-1
 302 60 l 2,26,27
 282 0 282 0 234 0 c 2,28,-1
 76 0 l 2,0,1
381 370 m 17,29,30
 381 274 381 274 414.5 225 c 128,-1,31
 448 176 448 176 548 176 c 256,32,33
 683 176 683 176 758 328 c 128,-1,34
 833 480 833 480 833 670 c 256,35,36
 833 774 833 774 794.5 824 c 128,-1,37
 756 874 756 874 688 874 c 256,38,39
 618 874 618 874 537.5 785 c 128,-1,40
 457 696 457 696 418 528 c 2,41,-1
 381 370 l 17,29,30
EndSplineSet
EndChar

StartChar: d
Encoding: 100 100 77
Width: 1192
GlyphClass: 1
Flags: MW
HStem: -20 196<405.064 570.954> 0 21G<692.5 906> 874 196<520.903 777.239> 1456 20G<1027 1247>
VStem: 66 296<223.993 647.956>
DStem2: 659.531 -20 931.531 -20 0.224951 0.97437<73.0249 161.255 322.616 816.61 999.833 1544.11>
LayerCount: 2
Fore
SplineSet
66 399 m 256,0,1
 66 662 66 662 226.5 866 c 128,-1,2
 387 1070 387 1070 599 1070 c 256,3,4
 671 1070 671 1070 749 1051 c 128,-1,5
 827 1032 827 1032 877 954 c 1,6,-1
 881 954 l 1,7,8
 885 985 885 985 896 1034 c 2,9,-1
 983 1416 l 2,10,11
 997 1476 997 1476 1057 1476 c 2,12,-1
 1217 1476 l 2,13,14
 1277 1476 1277 1476 1263 1416 c 2,15,-1
 950 60 l 2,16,17
 936 0 936 0 876 0 c 2,18,-1
 718 0 l 2,19,20
 667 0 667 0 678 60 c 2,21,-1
 692 138 l 1,22,-1
 688 138 l 1,23,24
 616 52 616 52 559 16 c 128,-1,25
 502 -20 502 -20 429 -20 c 256,26,27
 231 -20 231 -20 148.5 110 c 128,-1,28
 66 240 66 240 66 399 c 256,0,1
362 380 m 256,29,30
 362 276 362 276 400.5 226 c 128,-1,31
 439 176 439 176 507 176 c 256,32,33
 577 176 577 176 657.5 265 c 128,-1,34
 738 354 738 354 777 522 c 2,35,-1
 814 680 l 17,36,37
 814 776 814 776 780.5 825 c 128,-1,38
 747 874 747 874 647 874 c 256,39,40
 512 874 512 874 437 722 c 128,-1,41
 362 570 362 570 362 380 c 256,29,30
EndSplineSet
EndChar

StartChar: X
Encoding: 88 88 78
Width: 1392
GlyphClass: 1
Flags: MW
HStem: 0 21G<-60.5 254 959.5 1215> 1414 20G<304 556.5 1196 1508>
DStem2: -30 86 330 59 0.665728 0.746194<101.302 764.574 1191.25 1845.58> 607 1375 297 1348 0.430613 -0.902537<-85.9719 0 808.371 1404.96>
LayerCount: 2
Back
SplineSet
1172 1434 m 25,0,0
 -111 0 l 25,0,0
1558 1434 m 25,0,0
 275 0 l 25,0,0
579 1434 m 25,0,0
 1263 0 l 25,0,0
256 1434 m 25,0,0
 937 0 l 25,0,0
EndSplineSet
Fore
SplineSet
-12 0 m 2,0,1
 -109 0 -109 0 -30 86 c 2,2,-1
 594 764 l 1,3,-1
 297 1348 l 2,4,5
 253 1434 253 1434 355 1434 c 2,6,-1
 531 1434 l 2,7,8
 582 1434 582 1434 607 1375 c 2,9,-1
 782 958 l 1,10,-1
 1120 1375 l 2,11,12
 1168 1434 1168 1434 1224 1434 c 2,13,-1
 1459 1434 l 2,14,15
 1557 1434 1557 1434 1477 1348 c 2,16,-1
 898 722 l 1,17,-1
 1222 86 l 2,18,19
 1266 0 1266 0 1164 0 c 2,20,-1
 985 0 l 2,21,22
 934 0 934 0 909 59 c 2,23,-1
 709 528 l 1,24,-1
 330 59 l 2,25,26
 282 0 282 0 226 0 c 2,27,-1
 -12 0 l 2,0,1
EndSplineSet
EndChar

StartChar: comma
Encoding: 44 44 82
Width: 668
GlyphClass: 1
Flags: MW
HStem: 0 284<125.594 205>
LayerCount: 2
Back
SplineSet
136 0 m 2,0,1
 66 0 66 0 83.3154 75 c 2,2,-1
 114.251 209 l 2,3,4
 131.566 284 131.566 284 201.566 284 c 2,5,-1
 357.566 284 l 2,6,7
 427.566 284 427.566 284 410.252 209 c 2,8,-1
 379.315 75 l 258,9,10
 349.533 -54 349.533 -54 312.332 -141.5 c 128,-1,11
 275.131 -229 275.131 -229 192.664 -283 c 256,12,13
 132.66 -322 132.66 -322 110.817 -291 c 2,14,-1
 82.2832 -250 l 2,15,16
 55.0557 -212 55.0557 -212 110.598 -175 c 256,17,18
 148.37 -150 148.37 -150 168.604 -110 c 128,-1,19
 188.839 -70 188.839 -70 205 0 c 9,20,-1
 136 0 l 2,0,1
EndSplineSet
Fore
SplineSet
136 0 m 2,0,1
 66 0 66 0 83 75 c 2,2,-1
 114 209 l 2,3,4
 131 284 131 284 202 284 c 2,5,-1
 358 284 l 2,6,7
 428 284 428 284 410 209 c 2,8,-1
 379 75 l 258,9,10
 354 -34 354 -34 320 -122 c 128,-1,11
 286 -210 286 -210 197 -282 c 256,12,13
 145 -324 145 -324 115 -290 c 2,14,-1
 80 -253 l 2,15,16
 51 -223 51 -223 109 -178 c 256,17,18
 146 -149 146 -149 169 -103.5 c 128,-1,19
 192 -58 192 -58 205 0 c 9,20,-1
 136 0 l 2,0,1
EndSplineSet
EndChar

StartChar: afii10028
Encoding: 1050 1050 83
Width: 1348
GlyphClass: 1
Flags: W
HStem: 0 21G<75 297 941.5 1178> 611 244<529 656.217> 1414 20G<406 628 1205 1480.5>
DStem2: 39.6849 0 331.685 0 0.224951 0.97437<59.195 692.815 943.158 1478.34> 1190 86 779 384 0.366091 -0.930579<-638.309 1.92091> 842 1050 1090 954 0.674536 0.738242<-224.178 560.709>
LayerCount: 2
Back
SplineSet
110 0 m 2,0,1
 40 0 40 0 57.3154 75 c 2,2,-1
 353.75 1359 l 2,3,4
 371.065 1434 371.065 1434 441.065 1434 c 2,5,-1
 593.065 1434 l 2,6,7
 663.065 1434 663.065 1434 645.75 1359 c 2,8,-1
 529.393 855 l 1,9,-1
 559.393 855 l 2,10,11
 626.393 855 626.393 855 710.321 911 c 128,-1,12
 794.25 967 794.25 967 866.412 1050 c 2,13,-1
 1151.44 1375 l 2,14,15
 1203.06 1434 1203.06 1434 1255.06 1434 c 2,16,-1
 1432.06 1434 l 2,17,18
 1529.06 1434 1529.06 1434 1450.21 1348 c 2,19,-1
 1090.25 954 l 2,20,21
 1023.39 881 1023.39 881 963.582 832 c 128,-1,22
 903.77 783 903.77 783 819.688 735 c 1,23,-1
 819.457 734 l 1,24,25
 888.762 705 888.762 705 938.41 651.5 c 128,-1,26
 988.06 598 988.06 598 1034.82 480 c 2,27,-1
 1189.85 86 l 2,28,29
 1224 0 1224 0 1132 0 c 2,30,-1
 945 0 l 2,31,32
 889 0 889 0 868.621 59 c 2,33,-1
 754.653 384 l 2,34,35
 722.894 476 722.894 476 656.977 543.5 c 128,-1,36
 591.061 611 591.061 611 518.061 611 c 2,37,-1
 473.061 611 l 1,38,-1
 349.315 75 l 2,39,40
 332 0 332 0 262 0 c 2,41,-1
 110 0 l 2,0,1
EndSplineSet
Fore
SplineSet
110 0 m 2,0,1
 40 0 40 0 57 75 c 2,2,-1
 354 1359 l 2,3,4
 371 1434 371 1434 441 1434 c 2,5,-1
 593 1434 l 2,6,7
 663 1434 663 1434 646 1359 c 2,8,-1
 529 855 l 1,9,-1
 549 855 l 2,10,11
 615 855 615 855 691.5 910.5 c 128,-1,12
 768 966 768 966 842 1050 c 2,13,-1
 1127 1375 l 2,14,15
 1179 1434 1179 1434 1231 1434 c 2,16,-1
 1432 1434 l 2,17,18
 1529 1434 1529 1434 1450 1348 c 2,19,-1
 1090 954 l 2,20,21
 1024 882 1024 882 964 832.5 c 128,-1,22
 904 783 904 783 820 735 c 1,23,-1
 819 734 l 1,24,25
 888 705 888 705 943 639 c 128,-1,26
 998 573 998 573 1035 480 c 2,27,-1
 1190 86 l 2,28,29
 1224 0 1224 0 1132 0 c 2,30,-1
 969 0 l 2,31,32
 914 0 914 0 893 59 c 2,33,-1
 779 384 l 2,34,35
 752 462 752 462 688 536.5 c 128,-1,36
 624 611 624 611 528 611 c 2,37,-1
 473 611 l 1,38,-1
 349 75 l 2,39,40
 332 0 332 0 262 0 c 2,41,-1
 110 0 l 2,0,1
EndSplineSet
EndChar

StartChar: afii10024
Encoding: 1046 1046 84
Width: 2040
GlyphClass: 1
Flags: W
HStem: 0 21G<-69 215.5 789 1011 1633 1869.5> 611 244<802.592 895 1243 1345.25> 1414 20G<290 517 1120 1342 1896.5 2171.5>
DStem2: -42 86 291 59 0.644375 0.76471<79.6724 826.047> 697 1050 280 1348 0.402038 -0.915623<-438.264 196.013> 753.685 0 1045.68 0 0.224951 0.97437<59.195 627.129 943.158 1478.34> 1882 86 1476 384 0.355798 -0.934563<-616.992 2.84816> 1539 1050 1787 954 0.669381 0.742919<-224.372 557.039>
LayerCount: 2
Back
SplineSet
-24 0 m 2,0,1
 -115 0 -115 0 -42 86 c 2,2,-1
 290 480 l 2,3,4
 388 596 388 596 464 650.5 c 128,-1,5
 540 705 540 705 622 734 c 1,6,-1
 623 735 l 1,7,8
 573 765 573 765 526 830.5 c 128,-1,9
 479 896 479 896 453 954 c 2,10,-1
 280 1348 l 2,11,12
 242 1434 242 1434 338 1434 c 2,13,-1
 515 1434 l 2,14,15
 568 1434 568 1434 591 1375 c 2,16,-1
 721 1050 l 2,17,18
 754 968 754 968 812.5 911.5 c 128,-1,19
 871 855 871 855 928 855 c 2,20,-1
 951 855 l 1,21,-1
 1068 1359 l 2,22,23
 1085 1434 1085 1434 1155 1434 c 2,24,-1
 1307 1434 l 2,25,26
 1377 1434 1377 1434 1360 1359 c 2,27,-1
 1243 855 l 1,28,-1
 1266 855 l 2,29,30
 1323 855 1323 855 1407.5 911.5 c 128,-1,31
 1492 968 1492 968 1563 1050 c 2,32,-1
 1843 1375 l 2,33,34
 1894 1434 1894 1434 1947 1434 c 2,35,-1
 2124 1434 l 2,36,37
 2220 1434 2220 1434 2142 1348 c 2,38,-1
 1787 954 l 2,39,40
 1735 896 1735 896 1658 830.5 c 128,-1,41
 1581 765 1581 765 1517 735 c 1,42,-1
 1516 734 l 1,43,44
 1585 705 1585 705 1636.5 650.5 c 128,-1,45
 1688 596 1688 596 1732 480 c 2,46,-1
 1882 86 l 2,47,48
 1915 0 1915 0 1824 0 c 2,49,-1
 1637 0 l 2,50,51
 1580 0 1580 0 1561 59 c 2,52,-1
 1452 384 l 2,53,54
 1421 476 1421 476 1354.5 543.5 c 128,-1,55
 1288 611 1288 611 1225 611 c 2,56,-1
 1187 611 l 1,57,-1
 1063 75 l 2,58,59
 1046 0 1046 0 976 0 c 2,60,-1
 824 0 l 2,61,62
 754 0 754 0 771 75 c 2,63,-1
 895 611 l 1,64,-1
 857 611 l 2,65,66
 794 611 794 611 696.5 543.5 c 128,-1,67
 599 476 599 476 526 384 c 2,68,-1
 267 59 l 2,69,70
 220 0 220 0 163 0 c 2,71,-1
 -24 0 l 2,0,1
EndSplineSet
Fore
SplineSet
-24 0 m 2,0,1
 -114 0 -114 0 -42 86 c 2,2,-1
 290 480 l 2,3,4
 387 596 387 596 463.5 650.5 c 128,-1,5
 540 705 540 705 622 734 c 1,6,-1
 623 735 l 1,7,8
 573 765 573 765 521 841 c 128,-1,9
 469 917 469 917 453 954 c 2,10,-1
 280 1348 l 2,11,12
 242 1434 242 1434 338 1434 c 2,13,-1
 491 1434 l 2,14,15
 543 1434 543 1434 567 1375 c 2,16,-1
 697 1050 l 2,17,18
 730 968 730 968 789 911.5 c 128,-1,19
 848 855 848 855 918 855 c 2,20,-1
 951 855 l 1,21,-1
 1068 1359 l 2,22,23
 1085 1434 1085 1434 1155 1434 c 2,24,-1
 1307 1434 l 2,25,26
 1377 1434 1377 1434 1360 1359 c 2,27,-1
 1243 855 l 1,28,-1
 1256 855 l 2,29,30
 1306 855 1306 855 1387.5 912 c 128,-1,31
 1469 969 1469 969 1539 1050 c 2,32,-1
 1819 1375 l 2,33,34
 1870 1434 1870 1434 1923 1434 c 2,35,-1
 2124 1434 l 2,36,37
 2219 1434 2219 1434 2142 1348 c 2,38,-1
 1787 954 l 2,39,40
 1734 895 1734 895 1657.5 830 c 128,-1,41
 1581 765 1581 765 1517 735 c 1,42,-1
 1516 734 l 1,43,44
 1585 705 1585 705 1640.5 639 c 128,-1,45
 1696 573 1696 573 1732 480 c 2,46,-1
 1882 86 l 2,47,48
 1915 0 1915 0 1824 0 c 2,49,-1
 1661 0 l 2,50,51
 1605 0 1605 0 1585 59 c 2,52,-1
 1476 384 l 2,53,54
 1452 456 1452 456 1381 533.5 c 128,-1,55
 1310 611 1310 611 1235 611 c 2,56,-1
 1187 611 l 1,57,-1
 1063 75 l 2,58,59
 1046 0 1046 0 976 0 c 2,60,-1
 824 0 l 2,61,62
 754 0 754 0 771 75 c 2,63,-1
 895 611 l 1,64,-1
 867 611 l 2,65,66
 797 611 797 611 710.5 543.5 c 128,-1,67
 624 476 624 476 550 384 c 2,68,-1
 291 59 l 2,69,70
 244 0 244 0 187 0 c 2,71,-1
 -24 0 l 2,0,1
EndSplineSet
EndChar

StartChar: P
Encoding: 80 80 85
Width: 1328
GlyphClass: 1
Flags: W
HStem: 0 21G<75 297> 536 244<512 934.519> 1190 244<607 992.406>
VStem: 1052 296<881.844 1132.3>
DStem2: 39.6849 0 331.685 0 0.224951 0.97437<59.195 615.913 866.256 1287.12>
LayerCount: 2
Back
SplineSet
110 0 m 2,0,1
 40 0 40 0 57 75 c 2,2,-1
 354 1359 l 2,3,4
 371 1434 371 1434 441 1434 c 2,5,-1
 815 1434 l 2,6,7
 1175 1434 1175 1434 1287.5 1317 c 128,-1,8
 1400 1200 1400 1200 1350 985 c 256,9,10
 1300 770 1300 770 1134 653 c 128,-1,11
 968 536 968 536 608 536 c 2,12,-1
 456 536 l 1,13,-1
 349 75 l 2,14,15
 332 0 332 0 262 0 c 2,16,-1
 110 0 l 2,0,1
512 780 m 1,17,-1
 663 780 l 2,18,19
 863 780 863 780 946 827.5 c 128,-1,20
 1029 875 1029 875 1054 985 c 256,21,22
 1079 1095 1079 1095 1018.5 1142.5 c 128,-1,23
 958 1190 958 1190 758 1190 c 2,24,-1
 607 1190 l 1,25,-1
 512 780 l 1,17,-1
EndSplineSet
Fore
SplineSet
110 0 m 2,0,1
 40 0 40 0 57 75 c 2,2,-1
 354 1359 l 2,3,4
 371 1434 371 1434 441 1434 c 2,5,-1
 795 1434 l 2,6,7
 1076 1434 1076 1434 1212 1341 c 128,-1,8
 1348 1248 1348 1248 1348 1047 c 256,9,10
 1348 820 1348 820 1168 678 c 128,-1,11
 988 536 988 536 628 536 c 2,12,-1
 456 536 l 1,13,-1
 349 75 l 2,14,15
 332 0 332 0 262 0 c 2,16,-1
 110 0 l 2,0,1
512 780 m 1,17,-1
 683 780 l 2,18,19
 892 780 892 780 972 846 c 128,-1,20
 1052 912 1052 912 1052 1011 c 256,21,22
 1052 1113 1052 1113 984 1151.5 c 128,-1,23
 916 1190 916 1190 738 1190 c 2,24,-1
 607 1190 l 1,25,-1
 512 780 l 1,17,-1
EndSplineSet
EndChar

StartChar: B
Encoding: 66 66 86
Width: 1379
GlyphClass: 1
Flags: W
HStem: 0 244<388 858.146> 618 236<529 877.788> 1190 244<607 976.786>
VStem: 940 312<317.033 560.443> 1022 296<950.232 1148.65>
DStem2: 39.6849 0 331.668 0 0.224951 0.97437<316.1 700.085 942.184 1287.12>
LayerCount: 2
Back
SplineSet
120 0 m 2,0,1
 40 0 40 0 57 75 c 2,2,-1
 354 1359 l 2,3,4
 371 1434 371 1434 451 1434 c 2,5,-1
 791 1434 l 2,6,7
 1175 1434 1175 1434 1287.5 1339.5 c 128,-1,8
 1400 1245 1400 1245 1355 1049 c 256,9,10
 1323 912 1323 912 1205.5 837 c 128,-1,11
 1088 762 1088 762 991 750 c 1,12,-1
 990 747 l 1,13,14
 1080 741 1080 741 1183 655 c 128,-1,15
 1286 569 1286 569 1250 412 c 256,16,17
 1208 228 1208 228 1031.5 114 c 128,-1,18
 855 0 855 0 510 0 c 2,19,-1
 120 0 l 2,0,1
388 244 m 1,20,-1
 534 244 l 2,21,22
 746 244 746 244 831 281 c 128,-1,23
 916 318 916 318 943 431 c 256,24,25
 967 537 967 537 888 577.5 c 128,-1,26
 809 618 809 618 621 618 c 2,27,-1
 475 618 l 1,28,-1
 388 244 l 1,20,-1
529 854 m 1,29,-1
 660 854 l 2,30,31
 789 854 789 854 912 899 c 128,-1,32
 1035 944 1035 944 1057 1039 c 256,33,34
 1074 1113 1074 1113 1020.5 1151.5 c 128,-1,35
 967 1190 967 1190 738 1190 c 2,36,-1
 607 1190 l 1,37,-1
 529 854 l 1,29,-1
EndSplineSet
Fore
SplineSet
120 0 m 2,0,1
 40 0 40 0 57 75 c 2,2,-1
 354 1359 l 2,3,4
 371 1434 371 1434 451 1434 c 2,5,-1
 771 1434 l 2,6,7
 1068 1434 1068 1434 1193 1335 c 128,-1,8
 1318 1236 1318 1236 1318 1076 c 256,9,10
 1318 920 1318 920 1193 840 c 128,-1,11
 1068 760 1068 760 948 750 c 1,12,-1
 948 747 l 1,13,14
 1064 736 1064 736 1158 658 c 128,-1,15
 1252 580 1252 580 1252 423 c 256,16,17
 1252 244 1252 244 1068 122 c 128,-1,18
 884 0 884 0 530 0 c 2,19,-1
 120 0 l 2,0,1
388 244 m 1,20,-1
 554 244 l 2,21,22
 784 244 784 244 862 290 c 128,-1,23
 940 336 940 336 940 452 c 256,24,25
 940 544 940 544 864.5 581 c 128,-1,26
 789 618 789 618 601 618 c 2,27,-1
 475 618 l 1,28,-1
 388 244 l 1,20,-1
529 854 m 1,29,-1
 680 854 l 2,30,31
 840 854 840 854 931 913 c 128,-1,32
 1022 972 1022 972 1022 1056 c 256,33,34
 1022 1132 1022 1132 957 1161 c 128,-1,35
 892 1190 892 1190 718 1190 c 2,36,-1
 607 1190 l 1,37,-1
 529 854 l 1,29,-1
EndSplineSet
EndChar

StartChar: hyphen
Encoding: 45 45 89
Width: 700
GlyphClass: 1
Flags: W
HStem: 446 214<76.0312 640.312>
VStem: 48 620
LayerCount: 2
Fore
SplineSet
96 446 m 2,0,1
 36 446 36 446 48 496 c 2,2,-1
 74 610 l 2,3,4
 86 660 86 660 145 660 c 2,5,-1
 619 660 l 2,6,7
 679 660 679 660 668 610 c 2,8,-1
 642 496 l 2,9,10
 630 446 630 446 570 446 c 2,11,-1
 96 446 l 2,0,1
EndSplineSet
EndChar

StartChar: endash
Encoding: 8211 8211 90
Width: 1032
GlyphClass: 1
Flags: W
HStem: 453 200<43.2344 996.766>
LayerCount: 2
Fore
SplineSet
103 453 m 6,0,1
 43 453 43 453 43 503 c 6,2,-1
 43 603 l 6,3,4
 43 653 43 653 103 653 c 6,5,-1
 937 653 l 6,6,7
 997 653 997 653 997 603 c 6,8,-1
 997 503 l 6,9,10
 997 453 997 453 937 453 c 6,11,-1
 103 453 l 6,0,1
EndSplineSet
EndChar

StartChar: C
Encoding: 67 67 91
Width: 1404
GlyphClass: 1
Flags: W
HStem: -34 236<553.238 939.685> 1232 236<687.734 1040>
VStem: 100 312<351.997 866.768>
LayerCount: 2
Back
SplineSet
104 587 m 256,0,1
 104 957 104 957 317 1212.5 c 128,-1,2
 530 1468 530 1468 880 1468 c 256,3,4
 1180 1468 1180 1468 1349 1312.5 c 128,-1,5
 1518 1157 1518 1157 1518 847 c 256,6,7
 1518 477 1518 477 1305 221.5 c 128,-1,8
 1092 -34 1092 -34 742 -34 c 256,9,10
 442 -34 442 -34 273 121.5 c 128,-1,11
 104 277 104 277 104 587 c 256,0,1
416 545 m 256,12,13
 416 385 416 385 501 293.5 c 128,-1,14
 586 202 586 202 756 202 c 256,15,16
 956 202 956 202 1081 390.5 c 128,-1,17
 1206 579 1206 579 1206 889 c 256,18,19
 1206 1049 1206 1049 1121 1140.5 c 128,-1,20
 1036 1232 1036 1232 866 1232 c 256,21,22
 666 1232 666 1232 541 1043.5 c 128,-1,23
 416 855 416 855 416 545 c 256,12,13
EndSplineSet
Fore
SplineSet
100 588 m 256,0,1
 100 936 100 936 302 1202 c 128,-1,2
 504 1468 504 1468 892 1468 c 256,3,4
 1072 1468 1072 1468 1198 1405.5 c 128,-1,5
 1324 1343 1324 1343 1380 1251 c 256,6,7
 1420 1185 1420 1185 1363 1147 c 258,8,-1
 1239 1064 l 258,9,10
 1193 1033 1193 1033 1143 1100 c 256,11,12
 1093 1166 1093 1166 1018 1199 c 128,-1,13
 943 1232 943 1232 871 1232 c 256,14,15
 660 1232 660 1232 536 1040 c 128,-1,16
 412 848 412 848 412 550 c 256,17,18
 412 399 412 399 490 300.5 c 128,-1,19
 568 202 568 202 757 202 c 256,20,21
 865 202 865 202 937 243.5 c 152,-1,22
 1009 285 1009 285 1050 342 c 256,23,24
 1103 415 1103 415 1150 389 c 258,25,-1
 1277 319 l 258,26,27
 1339 285 1339 285 1295 221 c 256,28,29
 1219 111 1219 111 1078 38.5 c 152,-1,30
 937 -34 937 -34 736 -34 c 256,31,32
 436 -34 436 -34 268 119.5 c 128,-1,33
 100 273 100 273 100 588 c 256,0,1
EndSplineSet
EndChar

StartChar: T
Encoding: 84 84 92
Width: 1246
GlyphClass: 1
Flags: W
HStem: 0 21G<382 624> 1178 256<237.877 629 921 1371.12>
DStem2: 357.302 0 649.302 0 0.224951 0.97437<55.5241 1208.93>
LayerCount: 2
Back
SplineSet
76 1313 m 2,0,-1
 76 1372 l 2,1,2
 76 1406 76 1406 84.5 1415.5 c 128,-1,3
 93 1425 93 1425 116 1429 c 0,4,5
 120 1430 120 1430 123 1430 c 2,6,-1
 1339 1430 l 2,7,8
 1384 1430 1384 1430 1394.5 1417 c 128,-1,9
 1405 1404 1405 1404 1405 1362 c 2,10,-1
 1405 1327 l 2,11,12
 1405 1290 1405 1290 1394 1278 c 128,-1,13
 1383 1266 1383 1266 1346 1266 c 2,14,-1
 836 1266 l 1,15,-1
 836 61 l 2,16,17
 836 17 836 17 819 6 c 1,18,19
 817 6 817 6 814.5 5 c 128,-1,20
 812 4 812 4 811 4 c 2,21,22
 803 0 803 0 786 0 c 2,23,-1
 711 0 l 2,24,25
 686 0 686 0 672 2.5 c 128,-1,26
 658 5 658 5 652.5 16 c 128,-1,27
 647 27 647 27 646 35.5 c 128,-1,28
 645 44 645 44 645 68 c 2,29,-1
 645 1266 l 1,30,-1
 133 1266 l 2,31,32
 118 1266 118 1266 108 1267.5 c 128,-1,33
 98 1269 98 1269 91.5 1275.5 c 128,-1,34
 85 1282 85 1282 82 1284.5 c 128,-1,35
 79 1287 79 1287 77.5 1298.5 c 128,-1,36
 76 1310 76 1310 76 1313 c 2,0,-1
EndSplineSet
Fore
SplineSet
261 1178 m 2,0,1
 186 1178 186 1178 201 1243 c 2,2,-1
 230 1369 l 2,3,4
 245 1434 245 1434 320 1434 c 2,5,-1
 1348 1434 l 2,6,7
 1423 1434 1423 1434 1408 1369 c 2,8,-1
 1379 1243 l 2,9,10
 1364 1178 1364 1178 1289 1178 c 2,11,-1
 921 1178 l 1,12,-1
 662 55 l 2,13,14
 649 0 649 0 599 0 c 2,15,-1
 407 0 l 2,16,17
 357 0 357 0 370 55 c 2,18,-1
 629 1178 l 1,19,-1
 261 1178 l 2,0,1
EndSplineSet
EndChar

StartChar: V
Encoding: 86 86 93
Width: 1370
GlyphClass: 1
Flags: W
HStem: 0 21G<463 667> 1414 20G<265.5 473.5 1278.5 1527>
DStem2: 516 1365 239 1368 0.139267 -0.990255<-72.9647 926.005> 705 530 748 81 0.515866 0.85667<-170.059 1081.88>
LayerCount: 2
Back
SplineSet
239 1368 m 2,0,1
 229 1434 229 1434 301 1434 c 2,2,-1
 460 1434 l 2,3,4
 527 1434 527 1434 536 1365 c 2,5,-1
 649 530 l 2,6,7
 657 466 657 466 656.5 444.5 c 128,-1,8
 656 423 656 423 649 373 c 1,9,-1
 653 373 l 1,10,11
 670 423 670 423 679 444.5 c 128,-1,12
 688 466 688 466 725 530 c 2,13,-1
 1224 1365 l 2,14,15
 1265 1434 1265 1434 1332 1434 c 2,16,-1
 1491 1434 l 2,17,18
 1563 1434 1563 1434 1523 1368 c 2,19,-1
 748 81 l 2,20,21
 699 0 699 0 635 0 c 2,22,-1
 495 0 l 2,23,24
 431 0 431 0 420 81 c 2,25,-1
 239 1368 l 2,0,1
EndSplineSet
Fore
SplineSet
239 1368 m 2,0,1
 230 1434 230 1434 301 1434 c 2,2,-1
 440 1434 l 2,3,4
 507 1434 507 1434 516 1365 c 2,5,-1
 629 530 l 2,6,7
 636 470 636 470 636 446 c 128,-1,8
 636 422 636 422 629 373 c 1,9,-1
 633 373 l 1,10,11
 650 422 650 422 660.5 447 c 128,-1,12
 671 472 671 472 705 530 c 2,13,-1
 1204 1365 l 2,14,15
 1245 1434 1245 1434 1312 1434 c 2,16,-1
 1491 1434 l 2,17,18
 1563 1434 1563 1434 1523 1368 c 2,19,-1
 748 81 l 2,20,21
 699 0 699 0 635 0 c 2,22,-1
 495 0 l 2,23,24
 431 0 431 0 420 81 c 2,25,-1
 239 1368 l 2,0,1
EndSplineSet
EndChar

StartChar: A
Encoding: 65 65 94
Width: 1394
GlyphClass: 1
Flags: W
HStem: 0 21G<-66 182 1012 1220> 338 248<561 883> 1414 20G<780.5 983.5>
DStem2: -63 66 256 69 0.510462 0.859901<59.3913 477.894 765.676 1305.28> 1029 1353 827 904 0.165517 -0.986207<332.562 732.255 983.455 1330.5>
LayerCount: 2
Back
SplineSet
-30 0 m 2,0,1
 -102 0 -102 0 -62.9717 66 c 2,2,-1
 700.589 1353 l 2,3,4
 748.806 1434 748.806 1434 811.806 1434 c 2,5,-1
 951.806 1434 l 2,6,7
 1014.81 1434 1014.81 1434 1028.59 1353 c 2,8,-1
 1245.03 66 l 2,9,10
 1256 0 1256 0 1184 0 c 2,11,-1
 1025 0 l 2,12,13
 959 0 959 0 947.666 69 c 2,14,-1
 902.844 338 l 1,15,-1
 394.844 338 l 1,16,-1
 235.666 69 l 2,17,18
 195 0 195 0 129 0 c 2,19,-1
 -30 0 l 2,0,1
540.559 586 m 1,20,-1
 862.559 586 l 1,21,-1
 807.151 904 l 2,22,23
 797.055 960 797.055 960 797.975 985.5 c 128,-1,24
 798.895 1011 798.895 1011 804.522 1061 c 1,25,-1
 800.522 1061 l 1,26,27
 784.895 1011 784.895 1011 774.975 985.5 c 128,-1,28
 765.055 960 765.055 960 731.151 904 c 2,29,-1
 540.559 586 l 1,20,-1
556 1373 m 2,8,-1
 1054 66 l 2,9,10
340 66 m 2,2,-1
 838 1373 l 2,3,4
43 66 m 2,2,-1
 541 1373 l 2,3,4
853 1373 m 2,8,-1
 1351 66 l 2,9,10
EndSplineSet
Fore
SplineSet
-30 0 m 2,0,1
 -102 0 -102 0 -63 66 c 2,2,-1
 701 1353 l 2,3,4
 749 1434 749 1434 812 1434 c 2,5,-1
 952 1434 l 2,6,7
 1015 1434 1015 1434 1029 1353 c 2,8,-1
 1245 66 l 2,9,10
 1256 0 1256 0 1184 0 c 2,11,-1
 1045 0 l 2,12,13
 979 0 979 0 968 69 c 2,14,-1
 923 338 l 1,15,-1
 415 338 l 1,16,-1
 256 69 l 2,17,18
 215 0 215 0 149 0 c 2,19,-1
 -30 0 l 2,0,1
561 586 m 1,20,-1
 883 586 l 1,21,-1
 827 904 l 2,22,23
 819 951 819 951 819 981.5 c 128,-1,24
 819 1012 819 1012 825 1061 c 1,25,-1
 821 1061 l 1,26,27
 805 1012 805 1012 795.5 987 c 128,-1,28
 786 962 786 962 751 904 c 2,29,-1
 561 586 l 1,20,-1
EndSplineSet
EndChar

StartChar: afii10029
Encoding: 1051 1051 98
Width: 1482
GlyphClass: 1
Flags: W
HStem: -34 236<-27.2188 248.587> 0 21G<945 1167> 1186 248<858 1184>
DStem2: 326.504 -34 576.433 -34 0.224951 0.97437<574.128 1308.29> 901.835 -34 1193.84 -34 0.224951 0.97437<94.0893 1252.2>
LayerCount: 2
Back
SplineSet
-54 -10 m 256,0,1
 -93 4 -93 4 -69 58 c 2,2,-1
 -16 172 l 2,3,4
 8 225 8 225 55 210 c 256,5,6
 81 202 81 202 112 202 c 0,7,8
 265 202 265 202 373.5 420.5 c 128,-1,9
 482 639 482 639 586 1090 c 2,10,-1
 648 1359 l 2,11,12
 665 1434 665 1434 735 1434 c 2,13,-1
 1475 1434 l 2,14,15
 1545 1434 1545 1434 1528 1359 c 2,16,-1
 1231 75 l 2,17,18
 1214 0 1214 0 1144 0 c 2,19,-1
 992 0 l 2,20,21
 922 0 922 0 939 75 c 2,22,-1
 1196 1186 l 1,23,-1
 858 1186 l 1,24,-1
 823 1034 l 2,25,26
 686 439 686 439 514 202.5 c 128,-1,27
 342 -34 342 -34 80 -34 c 0,28,29
 14 -34 14 -34 -54 -10 c 256,0,1
EndSplineSet
Fore
SplineSet
-44 -10 m 256,0,1
 -77 2 -77 2 -59 58 c 2,2,-1
 -23 172 l 2,3,4
 -6 227 -6 227 48 210 c 256,5,6
 74 202 74 202 115 202 c 0,7,8
 276 202 276 202 377 411 c 128,-1,9
 478 620 478 620 586 1090 c 2,10,-1
 648 1359 l 2,11,12
 665 1434 665 1434 735 1434 c 2,13,-1
 1463 1434 l 2,14,15
 1533 1434 1533 1434 1516 1359 c 2,16,-1
 1219 75 l 2,17,18
 1202 0 1202 0 1132 0 c 2,19,-1
 980 0 l 2,20,21
 910 0 910 0 927 75 c 2,22,-1
 1184 1186 l 1,23,-1
 858 1186 l 1,24,-1
 823 1034 l 2,25,26
 685 434 685 434 531.5 200 c 128,-1,27
 378 -34 378 -34 78 -34 c 0,28,29
 24 -34 24 -34 -44 -10 c 256,0,1
EndSplineSet
EndChar

StartChar: afii10038
Encoding: 1060 1060 99
Width: 1838
GlyphClass: 1
Flags: W
HStem: -15 21G<685 907> 160 230<509.327 690 1035 1297.01> 1070 230<637.986 900 1245 1425.67> 1422 20G<1021.5 1243.5>
VStem: 121 302<473.836 839.044> 1512 302<620.956 986.164>
DStem2: 649.685 -15 941.685 -15 0.224951 0.97437<59.195 179.584 481.297 1113.5 1415.21 1501.92>
LayerCount: 2
Back
SplineSet
134.534 730 m 256,0,1
 196.868 1000 196.868 1000 403.498 1150 c 128,-1,2
 610.129 1300 610.129 1300 920.129 1300 c 2,3,-1
 963.129 1300 l 1,4,-1
 978.597 1367 l 2,5,6
 995.912 1442 995.912 1442 1065.91 1442 c 2,7,-1
 1217.91 1442 l 2,8,9
 1287.91 1442 1287.91 1442 1270.6 1367 c 2,10,-1
 1255.13 1300 l 1,11,-1
 1298.13 1300 l 2,12,13
 1608.13 1300 1608.13 1300 1745.5 1150 c 128,-1,14
 1882.87 1000 1882.87 1000 1820.53 730 c 256,15,16
 1758.2 460 1758.2 460 1551.57 310 c 128,-1,17
 1344.94 160 1344.94 160 1034.94 160 c 2,18,-1
 991.938 160 l 1,19,-1
 968.853 60 l 2,20,21
 951.537 -15 951.537 -15 881.537 -15 c 2,22,-1
 729.537 -15 l 2,23,24
 659.537 -15 659.537 -15 676.853 60 c 2,25,-1
 699.938 160 l 1,26,-1
 656.938 160 l 2,27,28
 346.938 160 346.938 160 209.569 310 c 128,-1,29
 72.1992 460 72.1992 460 134.534 730 c 256,0,1
436.534 730 m 256,30,31
 400.749 575 400.749 575 459.394 482.5 c 128,-1,32
 518.039 390 518.039 390 723.039 390 c 2,33,-1
 753.039 390 l 1,34,-1
 910.029 1070 l 1,35,-1
 880.029 1070 l 2,36,37
 675.029 1070 675.029 1070 573.674 977.5 c 128,-1,38
 472.318 885 472.318 885 436.534 730 c 256,30,31
1045.04 390 m 1,39,-1
 1075.04 390 l 2,40,41
 1280.04 390 1280.04 390 1381.39 482.5 c 128,-1,42
 1482.75 575 1482.75 575 1518.53 730 c 256,43,44
 1554.32 885 1554.32 885 1495.67 977.5 c 128,-1,45
 1437.03 1070 1437.03 1070 1232.03 1070 c 2,46,-1
 1202.03 1070 l 1,47,-1
 1045.04 390 l 1,39,-1
EndSplineSet
Fore
SplineSet
121 648 m 256,0,1
 121 914 121 914 320.5 1107 c 128,-1,2
 520 1300 520 1300 910 1300 c 2,3,-1
 953 1300 l 1,4,-1
 969 1367 l 2,5,6
 987 1442 987 1442 1056 1442 c 2,7,-1
 1208 1442 l 2,8,9
 1279 1442 1279 1442 1261 1367 c 2,10,-1
 1245 1300 l 1,11,-1
 1288 1300 l 2,12,13
 1568 1300 1568 1300 1691 1184 c 128,-1,14
 1814 1068 1814 1068 1814 812 c 256,15,16
 1814 546 1814 546 1614.5 353 c 128,-1,17
 1415 160 1415 160 1025 160 c 2,18,-1
 982 160 l 1,19,-1
 959 60 l 2,20,21
 942 -15 942 -15 872 -15 c 2,22,-1
 720 -15 l 2,23,24
 650 -15 650 -15 667 60 c 2,25,-1
 690 160 l 1,26,-1
 647 160 l 2,27,28
 367 160 367 160 244 276 c 128,-1,29
 121 392 121 392 121 648 c 256,0,1
423 632 m 256,30,31
 423 520 423 520 480 455 c 128,-1,32
 537 390 537 390 713 390 c 2,33,-1
 743 390 l 1,34,-1
 900 1070 l 1,35,-1
 870 1070 l 2,36,37
 622 1070 622 1070 522.5 933.5 c 128,-1,38
 423 797 423 797 423 632 c 256,30,31
1035 390 m 1,39,-1
 1065 390 l 2,40,41
 1313 390 1313 390 1412.5 526.5 c 128,-1,42
 1512 663 1512 663 1512 828 c 256,43,44
 1512 940 1512 940 1455 1005 c 128,-1,45
 1398 1070 1398 1070 1222 1070 c 2,46,-1
 1192 1070 l 1,47,-1
 1035 390 l 1,39,-1
EndSplineSet
EndChar

StartChar: g
Encoding: 103 103 100
Width: 1192
GlyphClass: 1
Flags: MW
HStem: -420 196<122.359 531.75> -11 196<410.923 573.002> 874 196<520.903 777.239> 1030 20G<936.5 1148.5>
VStem: 66 296<237.122 648.414>
DStem2: 558.878 -420 839.496 -420 0.224951 0.97437<270.626 581.421 729.034 1241.17 1411.25 1515.82>
LayerCount: 2
Back
SplineSet
81 525 m 256,0,1
 132 745 132 745 265 907.5 c 128,-1,2
 398 1070 398 1070 633 1070 c 256,3,4
 723 1070 723 1070 781 1044 c 128,-1,5
 839 1018 839 1018 871 932 c 1,6,-1
 875 932 l 1,7,-1
 893 990 l 2,8,9
 911 1050 911 1050 960 1050 c 2,10,-1
 1118 1050 l 2,11,12
 1178 1050 1178 1050 1165 990 c 2,13,-1
 939 11 l 2,14,15
 882 -234 882 -234 728.5 -327 c 128,-1,16
 575 -420 575 -420 325 -420 c 256,17,18
 219 -420 219 -420 131.5 -409 c 152,-1,19
 44 -398 44 -398 -38 -354 c 256,20,21
 -81 -331 -81 -331 -34 -267 c 2,22,-1
 19 -195 l 2,23,24
 51 -151 51 -151 97 -175 c 256,25,26
 134 -194 134 -194 190.5 -209 c 128,-1,27
 247 -224 247 -224 340 -224 c 256,28,29
 468 -224 468 -224 547 -176.5 c 128,-1,30
 626 -129 626 -129 663 31 c 2,31,-1
 667 48 l 2,32,33
 676 88 676 88 690 128 c 1,34,-1
 686 128 l 1,35,36
 614 42 614 42 544 16 c 128,-1,37
 474 -10 474 -10 384 -10 c 256,38,39
 149 -10 149 -10 91 152.5 c 128,-1,40
 33 315 33 315 81 525 c 256,0,1
377 525 m 256,41,42
 342 375 342 375 362 280.5 c 128,-1,43
 382 186 382 186 517 186 c 256,44,45
 592 186 592 186 665 270.5 c 128,-1,46
 738 355 738 355 769 490 c 2,47,-1
 788 570 l 2,48,49
 819 705 819 705 785 789.5 c 128,-1,50
 751 874 751 874 676 874 c 256,51,52
 541 874 541 874 477.5 779.5 c 128,-1,53
 414 685 414 685 377 525 c 256,41,42
EndSplineSet
Fore
SplineSet
66 402 m 256,0,1
 66 662 66 662 226.5 866 c 128,-1,2
 387 1070 387 1070 599 1070 c 256,3,4
 671 1070 671 1070 749 1051 c 128,-1,5
 827 1032 827 1032 877 954 c 1,6,-1
 881 954 l 1,7,-1
 893 990 l 2,8,9
 913 1050 913 1050 960 1050 c 2,10,-1
 1118 1050 l 2,11,12
 1179 1050 1179 1050 1165 990 c 2,13,-1
 939 11 l 2,14,15
 885 -223 885 -223 740.5 -321.5 c 128,-1,16
 596 -420 596 -420 325 -420 c 256,17,18
 210 -420 210 -420 141.5 -403 c 152,-1,19
 73 -386 73 -386 -9 -342 c 256,20,21
 -51 -320 -51 -320 -18 -263 c 2,22,-1
 25 -190 l 2,23,24
 52 -144 52 -144 103 -170 c 256,25,26
 140 -189 140 -189 197 -206.5 c 128,-1,27
 254 -224 254 -224 340 -224 c 256,28,29
 448 -224 448 -224 538 -176 c 128,-1,30
 628 -128 628 -128 663 31 c 2,31,-1
 671 67 l 2,32,33
 679 103 679 103 694 147 c 1,34,-1
 690 147 l 1,35,36
 618 61 618 61 561 25 c 128,-1,37
 504 -11 504 -11 431 -11 c 260,38,39
 233 -11 233 -11 149.5 122.5 c 128,-1,40
 66 256 66 256 66 402 c 256,0,1
362 383 m 256,41,42
 362 294 362 294 401.5 239.5 c 128,-1,43
 441 185 441 185 509 185 c 260,44,45
 579 185 579 185 660 276.5 c 128,-1,46
 741 368 741 368 777 522 c 2,47,-1
 814 680 l 17,48,49
 814 776 814 776 780.5 825 c 128,-1,50
 747 874 747 874 647 874 c 256,51,52
 512 874 512 874 437 722 c 128,-1,53
 362 570 362 570 362 383 c 256,41,42
EndSplineSet
EndChar

StartChar: u
Encoding: 117 117 101
Width: 1194
GlyphClass: 1
Flags: MW
HStem: -20 196<295 552.19> 0 21G<689.5 908> 1030 20G<286.5 506 930.5 1150>
DStem2: 9.7241 -20 289.102 -20 0.224951 0.97437<328.636 1106.96> 655.531 -20 933.531 -20 0.224951 0.97437<74.6699 171.598 336.96 1106.55>
LayerCount: 2
Back
SplineSet
115 436 m 2,0,-1
 243 990 l 2,1,2
 257 1050 257 1050 316 1050 c 2,3,-1
 476 1050 l 2,4,5
 536 1050 536 1050 523 990 c 2,6,-1
 411 508 l 2,7,8
 361 290 361 290 378 233 c 128,-1,9
 395 176 395 176 491 176 c 256,10,11
 593 176 593 176 664.5 257.5 c 128,-1,12
 736 339 736 339 796 596 c 2,13,-1
 887 990 l 2,14,15
 901 1050 901 1050 960 1050 c 2,16,-1
 1120 1050 l 2,17,18
 1180 1050 1180 1050 1167 990 c 2,19,-1
 952 60 l 2,20,21
 938 0 938 0 878 0 c 2,22,-1
 720 0 l 2,23,24
 660 0 660 0 674 60 c 2,25,-1
 687 118 l 1,26,-1
 683 118 l 1,27,28
 619 39 619 39 541 9.5 c 128,-1,29
 463 -20 463 -20 366 -20 c 256,30,31
 213 -20 213 -20 134 78 c 128,-1,32
 55 176 55 176 115 436 c 2,0,-1
EndSplineSet
Fore
SplineSet
115 436 m 2,0,-1
 243 990 l 2,1,2
 257 1050 257 1050 316 1050 c 2,3,-1
 476 1050 l 2,4,5
 536 1050 536 1050 523 990 c 2,6,-1
 411 508 l 2,7,8
 362 296 362 296 386.5 236 c 128,-1,9
 411 176 411 176 491 176 c 256,10,11
 592 176 592 176 673.5 295 c 128,-1,12
 755 414 755 414 806 635 c 2,13,-1
 887 990 l 2,14,15
 901 1050 901 1050 960 1050 c 2,16,-1
 1120 1050 l 2,17,18
 1180 1050 1180 1050 1167 990 c 2,19,-1
 952 60 l 2,20,21
 938 0 938 0 878 0 c 2,22,-1
 720 0 l 2,23,24
 659 0 659 0 674 60 c 2,25,-1
 695 147 l 1,26,-1
 691 147 l 1,27,28
 611 53 611 53 538.5 16.5 c 128,-1,29
 466 -20 466 -20 366 -20 c 256,30,31
 224 -20 224 -20 141.5 87 c 128,-1,32
 59 194 59 194 115 436 c 2,0,-1
EndSplineSet
EndChar

StartChar: z
Encoding: 122 122 102
Width: 964
GlyphClass: 1
Flags: W
HStem: 0 200<341 802.225> 850 200<196.791 602>
DStem2: 27 234 342 200 0.681726 0.731608<189.869 841.981>
LayerCount: 2
Back
SplineSet
310 166 m 2,5,-1
 1012 920 l 9,6,-1
-36 166 m 2,5,-1
 666 920 l 9,6,-1
EndSplineSet
Fore
SplineSet
-8 0 m 2,0,1
 -67 0 -67 0 -56 50 c 2,2,-1
 -39 126 l 2,3,4
 -28 175 -28 175 27 234 c 2,5,-1
 601 850 l 9,6,-1
 602 854 l 25,7,8
 561 850 561 850 521 850 c 2,9,-1
 212 850 l 2,10,11
 153 850 153 850 164 900 c 2,12,-1
 171 932 l 2,13,14
 197 1050 197 1050 258 1050 c 2,15,-1
 950 1050 l 2,16,17
 1010 1050 1010 1050 999 1000 c 2,18,-1
 983 930 l 2,19,20
 971 876 971 876 915 816 c 2,21,-1
 342 200 l 9,22,-1
 341 196 l 17,23,24
 395 200 395 200 422 200 c 2,25,-1
 778 200 l 2,26,27
 838 200 838 200 827 150 c 2,28,-1
 804 50 l 2,29,30
 792 0 792 0 732 0 c 2,31,-1
 -8 0 l 2,0,1
EndSplineSet
EndChar

StartChar: m
Encoding: 109 109 103
Width: 1750
GlyphClass: 1
Flags: W
HStem: 0 21G<46 266 646 866 1246 1466> 874 196<632.742 834.5 1198.75 1459.5> 1030 20G<288.5 506>
DStem2: 16.1479 0 296.148 0 0.224951 0.97437<54.1702 826.805 986.226 1086.02> 616.148 0 896.148 0 0.224951 0.97437<54.1702 832.469> 1216.15 0 1496.15 0 0.224951 0.97437<54.1702 833.24>
LayerCount: 2
Back
SplineSet
76 0 m 2,0,1
 16 0 16 0 29.8525 60 c 2,2,-1
 244.56 990 l 2,3,4
 258.411 1050 258.411 1050 318.411 1050 c 2,5,-1
 476.411 1050 l 2,6,7
 536.412 1050 536.412 1050 522.56 990 c 2,8,-1
 509.169 932 l 1,9,-1
 513.169 932 l 1,10,11
 556.944 996 556.944 996 634.486 1033 c 128,-1,12
 712.029 1070 712.029 1070 772.029 1070 c 256,13,14
 892.029 1070 892.029 1070 945.601 1014 c 128,-1,15
 999.172 958 999.172 958 1008.24 889 c 1,16,-1
 1012.24 889 l 1,17,18
 1125.33 1002 1125.33 1002 1203.68 1036 c 128,-1,19
 1282.03 1070 1282.03 1070 1392.03 1070 c 256,20,21
 1540.03 1070 1540.03 1070 1618.9 972 c 128,-1,22
 1697.78 874 1697.78 874 1637.75 614 c 2,23,-1
 1509.85 60 l 2,24,25
 1496 0 1496 0 1436 0 c 2,26,-1
 1276 0 l 2,27,28
 1216 0 1216 0 1229.85 60 c 2,29,-1
 1341.13 542 l 2,30,31
 1391.46 760 1391.46 760 1375.12 817 c 128,-1,32
 1358.78 874 1358.78 874 1283.78 874 c 256,33,34
 1213.78 874 1213.78 874 1136.85 792 c 128,-1,35
 1059.92 710 1059.92 710 1000.81 454 c 2,36,-1
 909.853 60 l 2,37,38
 896 0 896 0 836 0 c 2,39,-1
 676 0 l 2,40,41
 616 0 616 0 629.853 60 c 2,42,-1
 741.131 542 l 2,43,44
 791.46 760 791.46 760 775.119 817 c 128,-1,45
 758.779 874 758.779 874 683.779 874 c 256,46,47
 613.779 874 613.779 874 536.963 792.5 c 128,-1,48
 460.147 711 460.147 711 400.814 454 c 2,49,-1
 309.853 60 l 2,50,51
 296 0 296 0 236 0 c 2,52,-1
 76 0 l 2,0,1
EndSplineSet
Fore
SplineSet
76 0 m 2,0,1
 16 0 16 0 30 60 c 2,2,-1
 245 990 l 2,3,4
 259 1050 259 1050 318 1050 c 2,5,-1
 476 1050 l 2,6,7
 536 1050 536 1050 523 990 c 2,8,-1
 502 900 l 1,9,-1
 506 900 l 1,10,11
 552 969 552 969 624 1019.5 c 128,-1,12
 696 1070 696 1070 772 1070 c 256,13,14
 897 1070 897 1070 951.5 998.5 c 128,-1,15
 1006 927 1006 927 1006 839 c 1,16,-1
 1010 839 l 1,17,18
 1083 951 1083 951 1173 1010.5 c 128,-1,19
 1263 1070 1263 1070 1392 1070 c 256,20,21
 1527 1070 1527 1070 1611 964 c 128,-1,22
 1695 858 1695 858 1635 600 c 2,23,-1
 1510 60 l 2,24,25
 1496 0 1496 0 1436 0 c 2,26,-1
 1276 0 l 2,27,28
 1216 0 1216 0 1230 60 c 2,29,-1
 1336 520 l 2,30,31
 1379 708 1379 708 1369 791 c 128,-1,32
 1359 874 1359 874 1284 874 c 256,33,34
 1214 874 1214 874 1137 792.5 c 128,-1,35
 1060 711 1060 711 991 412 c 2,36,-1
 910 60 l 2,37,38
 896 0 896 0 836 0 c 2,39,-1
 676 0 l 2,40,41
 616 0 616 0 630 60 c 2,42,-1
 731 500 l 2,43,44
 778 705 778 705 768.5 789.5 c 128,-1,45
 759 874 759 874 684 874 c 256,46,47
 615 874 615 874 531 764 c 128,-1,48
 447 654 447 654 391 412 c 2,49,-1
 310 60 l 2,50,51
 296 0 296 0 236 0 c 2,52,-1
 76 0 l 2,0,1
EndSplineSet
EndChar

StartChar: afii10044
Encoding: 1066 1066 105
Width: 1746
GlyphClass: 1
Flags: W
HStem: 0 244<784 1213.54> 626 244<929 1266.9> 1186 248<238.039 710>
VStem: 1319 312<327.341 574.61>
DStem2: 435.685 0 727.668 0 0.224951 0.97437<316.1 708.33 958.674 1217.31>
LayerCount: 2
Back
SplineSet
263 1186 m 2,0,1
 188 1186 188 1186 203 1251 c 2,2,-1
 230 1369 l 2,3,4
 245 1434 245 1434 320 1434 c 2,5,-1
 989 1434 l 2,6,7
 1059 1434 1059 1434 1042 1359 c 2,8,-1
 929 870 l 1,9,-1
 1084 870 l 2,10,11
 1454 870 1454 870 1571 752.5 c 128,-1,12
 1688 635 1688 635 1641 435 c 256,13,14
 1595 235 1595 235 1424 117.5 c 128,-1,15
 1253 0 1253 0 883 0 c 2,16,-1
 506 0 l 2,17,18
 436 0 436 0 453 75 c 2,19,-1
 710 1186 l 1,20,-1
 263 1186 l 2,0,1
784 244 m 1,21,-1
 910 244 l 2,22,23
 1120 244 1120 244 1211 279.5 c 128,-1,24
 1302 315 1302 315 1329 435 c 256,25,26
 1357 555 1357 555 1283 590.5 c 128,-1,27
 1209 626 1209 626 999 626 c 2,28,-1
 873 626 l 1,29,-1
 784 244 l 1,21,-1
EndSplineSet
Fore
SplineSet
263 1186 m 2,0,1
 188 1186 188 1186 203 1251 c 2,2,-1
 230 1369 l 2,3,4
 245 1434 245 1434 320 1434 c 2,5,-1
 989 1434 l 2,6,7
 1059 1434 1059 1434 1042 1359 c 2,8,-1
 929 870 l 1,9,-1
 1064 870 l 2,10,11
 1396 870 1396 870 1513.5 755 c 128,-1,12
 1631 640 1631 640 1631 474 c 256,13,14
 1631 267 1631 267 1449.5 133.5 c 128,-1,15
 1268 0 1268 0 903 0 c 2,16,-1
 506 0 l 2,17,18
 436 0 436 0 453 75 c 2,19,-1
 710 1186 l 1,20,-1
 263 1186 l 2,0,1
784 244 m 1,21,-1
 930 244 l 2,22,23
 1120 244 1120 244 1219.5 288 c 128,-1,24
 1319 332 1319 332 1319 457 c 256,25,26
 1319 555 1319 555 1253.5 590.5 c 128,-1,27
 1188 626 1188 626 979 626 c 2,28,-1
 873 626 l 1,29,-1
 784 244 l 1,21,-1
EndSplineSet
EndChar

StartChar: afii10043
Encoding: 1065 1065 106
Width: 2232
GlyphClass: 1
Flags: W
HStem: -370 21G<1747 1937> 0 248<389 861 1153 1625> 1414 20G<406 628 1170 1392 1934 2156>
DStem2: -45.7363 -370 246.323 -370 0.224951 0.97437<699.955 1858.07> 718.323 -370 1010.32 -370 0.224951 0.97437<699.942 1858.06> 1482.32 -370 1774.32 -370 0.224951 0.97437<699.942 1858.06> 1716.84 -370 1966.84 -370 0.224951 0.97437<47.9133 379.674>
LayerCount: 2
Fore
SplineSet
110 0 m 2,0,1
 40 0 40 0 57 75 c 2,2,-1
 354 1359 l 2,3,4
 371 1434 371 1434 441 1434 c 2,5,-1
 593 1434 l 2,6,7
 663 1434 663 1434 646 1359 c 2,8,-1
 389 248 l 1,9,-1
 861 248 l 1,10,-1
 1118 1359 l 2,11,12
 1135 1434 1135 1434 1205 1434 c 2,13,-1
 1357 1434 l 2,14,15
 1427 1434 1427 1434 1410 1359 c 2,16,-1
 1153 248 l 1,17,-1
 1625 248 l 1,18,-1
 1882 1359 l 2,19,20
 1899 1434 1899 1434 1969 1434 c 2,21,-1
 2121 1434 l 2,22,23
 2191 1434 2191 1434 2174 1359 c 2,24,-1
 1917 248 l 17,25,-1
 2039 248 l 2,26,27
 2109 248 2109 248 2092 173 c 2,28,-1
 1983 -300 l 2,29,30
 1967 -370 1967 -370 1907 -370 c 2,31,-1
 1777 -370 l 2,32,33
 1717 -370 1717 -370 1733 -300 c 2,34,-1
 1802 0 l 25,35,-1
 110 0 l 2,0,1
EndSplineSet
EndChar

StartChar: afii10048
Encoding: 1070 1070 107
Width: 2096
GlyphClass: 1
Flags: W
HStem: -34 236<1128.86 1494.1> 0 21G<75 297> 622 248<533 669> 1232 236<1254.84 1621.14> 1414 20G<406 628>
VStem: 668 312<352.935 620.602> 1770 312<564.49 1082.34>
DStem2: 31.8354 -34 323.835 -34 0.224951 0.97437<94.0893 739.102 993.568 1513.23>
LayerCount: 2
Back
SplineSet
668 587 m 256,0,1
 668 957 668 957 881 1212.5 c 128,-1,2
 1094 1468 1094 1468 1444 1468 c 256,3,4
 1744 1468 1744 1468 1913 1312.5 c 128,-1,5
 2082 1157 2082 1157 2082 847 c 256,6,7
 2082 477 2082 477 1869 221.5 c 128,-1,8
 1656 -34 1656 -34 1306 -34 c 256,9,10
 1006 -34 1006 -34 837 121.5 c 128,-1,11
 668 277 668 277 668 587 c 256,0,1
980 545 m 256,12,13
 980 385 980 385 1065 293.5 c 128,-1,14
 1150 202 1150 202 1320 202 c 256,15,16
 1520 202 1520 202 1645 390.5 c 128,-1,17
 1770 579 1770 579 1770 889 c 256,18,19
 1770 1049 1770 1049 1685 1140.5 c 128,-1,20
 1600 1232 1600 1232 1430 1232 c 256,21,22
 1230 1232 1230 1232 1105 1043.5 c 128,-1,23
 980 855 980 855 980 545 c 256,12,13
EndSplineSet
Fore
SplineSet
110 0 m 2,0,1
 40 0 40 0 57 75 c 2,2,-1
 354 1359 l 2,3,4
 371 1434 371 1434 441 1434 c 2,5,-1
 593 1434 l 2,6,7
 663 1434 663 1434 646 1359 c 2,8,-1
 533 870 l 1,9,-1
 703 870 l 1,10,11
 746 1068 746 1068 934 1268 c 128,-1,12
 1122 1468 1122 1468 1444 1468 c 256,13,14
 1744 1468 1744 1468 1913 1312.5 c 128,-1,15
 2082 1157 2082 1157 2082 847 c 256,16,17
 2082 477 2082 477 1869 221.5 c 128,-1,18
 1656 -34 1656 -34 1306 -34 c 256,19,20
 1006 -34 1006 -34 837 121.5 c 128,-1,21
 668 277 668 277 668 587 c 256,22,23
 668 605 668 605 669 622 c 257,24,-1
 476 622 l 1,25,-1
 349 75 l 2,26,27
 332 0 332 0 262 0 c 2,28,-1
 110 0 l 2,0,1
980 545 m 256,29,30
 980 385 980 385 1065 293.5 c 128,-1,31
 1150 202 1150 202 1320 202 c 256,32,33
 1520 202 1520 202 1645 390.5 c 128,-1,34
 1770 579 1770 579 1770 889 c 256,35,36
 1770 1049 1770 1049 1685 1140.5 c 128,-1,37
 1600 1232 1600 1232 1430 1232 c 256,38,39
 1230 1232 1230 1232 1105 1043.5 c 128,-1,40
 980 855 980 855 980 545 c 256,29,30
EndSplineSet
EndChar

StartChar: M
Encoding: 77 77 108
Width: 1828
GlyphClass: 1
Flags: W
HStem: 0 21G<75 297 678.5 909.5 1291 1513> 1414 20G<406 746.5 1476 1844>
DStem2: 39.6849 0 331.685 0 0.224951 0.97437<59.195 1110.72> 782 1354 570 1021 0.076372 -0.997079<315.837 1057.26> 930 477 984 81 0.473988 0.880531<-193.842 744.442> 1255.68 0 1547.68 0 0.224951 0.97437<59.195 1047.13>
LayerCount: 2
Back
SplineSet
110 0 m 2,0,1
 40 0 40 0 57 75 c 2,2,-1
 354 1359 l 2,3,4
 371 1434 371 1434 441 1434 c 2,5,-1
 731 1434 l 2,6,7
 789 1434 789 1434 796 1354 c 2,8,-1
 864 477 l 2,9,10
 869 420 869 420 867.5 383.5 c 128,-1,11
 866 347 866 347 860 297 c 1,12,-1
 866 297 l 1,13,14
 883 347 883 347 898 383.5 c 128,-1,15
 913 420 913 420 944 477 c 2,16,-1
 1418 1354 l 2,17,18
 1461 1434 1461 1434 1519 1434 c 2,19,-1
 1809 1434 l 2,20,21
 1879 1434 1879 1434 1862 1359 c 2,22,-1
 1565 75 l 2,23,24
 1548 0 1548 0 1478 0 c 2,25,-1
 1326 0 l 2,26,27
 1256 0 1256 0 1273 75 c 2,28,-1
 1464 901 l 2,29,30
 1478 961 1478 961 1497 1021 c 9,31,-1
 1490 1021 l 25,32,-1
 984 81 l 2,33,34
 940 0 940 0 879 0 c 2,35,-1
 709 0 l 2,36,37
 648 0 648 0 642 81 c 2,38,-1
 570 1021 l 25,39,-1
 563 1021 l 17,40,41
 554 961 554 961 540 901 c 2,42,-1
 349 75 l 2,43,44
 332 0 332 0 262 0 c 2,45,-1
 110 0 l 2,0,1
EndSplineSet
Fore
SplineSet
110 0 m 2,0,1
 40 0 40 0 57 75 c 2,2,-1
 354 1359 l 2,3,4
 371 1434 371 1434 441 1434 c 2,5,-1
 717 1434 l 2,6,7
 776 1434 776 1434 782 1354 c 2,8,-1
 850 477 l 2,9,10
 855 415 855 415 853.5 381 c 128,-1,11
 852 347 852 347 846 297 c 1,12,-1
 852 297 l 1,13,14
 869 347 869 347 883.5 383 c 128,-1,15
 898 419 898 419 930 477 c 2,16,-1
 1404 1354 l 2,17,18
 1447 1434 1447 1434 1505 1434 c 2,19,-1
 1809 1434 l 2,20,21
 1879 1434 1879 1434 1862 1359 c 2,22,-1
 1565 75 l 2,23,24
 1548 0 1548 0 1478 0 c 2,25,-1
 1326 0 l 2,26,27
 1256 0 1256 0 1273 75 c 2,28,-1
 1464 901 l 2,29,30
 1478 960 1478 960 1497 1021 c 9,31,-1
 1490 1021 l 25,32,-1
 984 81 l 2,33,34
 940 0 940 0 879 0 c 2,35,-1
 709 0 l 2,36,37
 648 0 648 0 642 81 c 2,38,-1
 570 1021 l 25,39,-1
 563 1021 l 17,40,41
 554 963 554 963 540 901 c 2,42,-1
 349 75 l 2,43,44
 332 0 332 0 262 0 c 2,45,-1
 110 0 l 2,0,1
EndSplineSet
EndChar

StartChar: Z
Encoding: 90 90 109
Width: 1252
GlyphClass: 1
Flags: W
HStem: 0 248<396 1077.96> 1186 248<305.039 896>
DStem2: 58 290 398 250 0.683608 0.72985<203.233 1223.98>
LayerCount: 2
Back
SplineSet
-157 62 m 2,5,-1
 1104 1408 l 9,6,-1
222 62 m 2,5,-1
 1483 1408 l 9,6,-1
EndSplineSet
Fore
SplineSet
16 0 m 2,0,1
 -59 0 -59 0 -44 65 c 2,2,-1
 -25 147 l 2,3,4
 -8 219 -8 219 58 290 c 2,5,-1
 894 1184 l 9,6,-1
 896 1191 l 25,7,8
 835 1186 835 1186 775 1186 c 2,9,-1
 330 1186 l 2,10,11
 255 1186 255 1186 270 1251 c 2,12,-1
 297 1369 l 2,13,14
 312 1434 312 1434 387 1434 c 2,15,-1
 1299 1434 l 2,16,17
 1374 1434 1374 1434 1359 1369 c 2,18,-1
 1344 1302 l 2,19,20
 1332 1247 1332 1247 1285 1197 c 2,21,-1
 398 250 l 9,22,-1
 396 243 l 17,23,24
 457 248 457 248 517 248 c 2,25,-1
 1053 248 l 2,26,27
 1128 248 1128 248 1113 183 c 2,28,-1
 1086 65 l 2,29,30
 1071 0 1071 0 996 0 c 2,31,-1
 16 0 l 2,0,1
EndSplineSet
EndChar

StartChar: afii10026
Encoding: 1048 1048 110
Width: 1492
GlyphClass: 1
Flags: W
HStem: 0 21G<75 354 955 1177> 1414 20G<406 628 1229 1508>
DStem2: 39.6849 0 332.403 0 0.224951 0.97437<555.204 1478.34> 444 476 454 70 0.610788 0.791795<0 806.142> 919.685 0 1211.68 0 0.224951 0.97437<59.195 982.329>
LayerCount: 2
Back
SplineSet
110 0 m 2,0,1
 40 0 40 0 57 75 c 2,2,-1
 354 1359 l 2,3,4
 371 1434 371 1434 441 1434 c 2,5,-1
 593 1434 l 2,6,7
 663 1434 663 1434 646 1359 c 2,8,-1
 464 570 l 2,9,10
 450 510 450 510 431 450 c 25,11,-1
 438 450 l 17,12,-1
 1139 1364 l 2,13,14
 1193 1434 1193 1434 1285 1434 c 2,15,-1
 1473 1434 l 2,16,17
 1543 1434 1543 1434 1526 1359 c 2,18,-1
 1229 75 l 2,19,20
 1212 0 1212 0 1142 0 c 2,21,-1
 990 0 l 2,22,23
 920 0 920 0 937 75 c 2,24,-1
 1119 864 l 2,25,26
 1133 924 1133 924 1152 984 c 9,27,-1
 1145 984 l 17,28,-1
 444 70 l 2,29,30
 390 0 390 0 298 0 c 2,31,-1
 110 0 l 2,0,1
EndSplineSet
Fore
SplineSet
110 0 m 2,0,1
 40 0 40 0 57 75 c 2,2,-1
 354 1359 l 2,3,4
 371 1434 371 1434 441 1434 c 2,5,-1
 593 1434 l 2,6,7
 663 1434 663 1434 646 1359 c 2,8,-1
 470 596 l 2,9,10
 457 538 457 538 437 476 c 25,11,-1
 444 476 l 17,12,-1
 1129 1364 l 2,13,14
 1183 1434 1183 1434 1275 1434 c 2,15,-1
 1473 1434 l 2,16,17
 1543 1434 1543 1434 1526 1359 c 2,18,-1
 1229 75 l 2,19,20
 1212 0 1212 0 1142 0 c 2,21,-1
 990 0 l 2,22,23
 920 0 920 0 937 75 c 2,24,-1
 1113 838 l 2,25,26
 1126 896 1126 896 1146 958 c 9,27,-1
 1139 958 l 17,28,-1
 454 70 l 2,29,30
 400 0 400 0 308 0 c 2,31,-1
 110 0 l 2,0,1
EndSplineSet
EndChar

StartChar: afii10049
Encoding: 1071 1071 111
Width: 1416
GlyphClass: 1
Flags: W
HStem: 0 21G<-16 269.5 879 1101> 573 244<780.677 976> 1190 244<643.818 1119>
VStem: 243 296<878.179 1101.89>
DStem2: 13 86 347 59 0.65502 0.755612<81.3324 710.928> 843.685 0 1135.68 0 0.224951 0.97437<59.195 588.078 838.647 1221.43>
LayerCount: 2
Back
SplineSet
13 86 m 2,0,-1
 301 406 l 2,1,2
 340 449 340 449 423.5 523.5 c 128,-1,3
 507 598 507 598 580 636 c 1,4,-1
 580 638 l 1,5,6
 381 648 381 648 297 757.5 c 128,-1,7
 213 867 213 867 246 1011 c 256,8,9
 294 1218 294 1218 457 1326 c 128,-1,10
 620 1434 620 1434 943 1434 c 2,11,-1
 1407 1434 l 2,12,13
 1477 1434 1477 1434 1460 1359 c 2,14,-1
 1163 75 l 2,15,16
 1146 0 1146 0 1076 0 c 2,17,-1
 924 0 l 2,18,19
 854 0 854 0 871 75 c 2,20,-1
 986 573 l 1,21,-1
 925 573 l 2,22,23
 828 573 828 573 757.5 523 c 128,-1,24
 687 473 687 473 607 382 c 2,25,-1
 324 59 l 2,26,27
 272 0 272 0 220 0 c 2,28,-1
 31 0 l 2,29,30
 -65 0 -65 0 13 86 c 2,0,-1
543 1013 m 256,31,32
 513 882 513 882 612.5 849.5 c 128,-1,33
 712 817 712 817 853 817 c 2,34,-1
 1043 817 l 1,35,-1
 1129 1190 l 1,36,-1
 901 1190 l 2,37,38
 750 1190 750 1190 657.5 1150 c 128,-1,39
 565 1110 565 1110 543 1013 c 256,31,32
EndSplineSet
Fore
SplineSet
31 0 m 2,0,1
 -63 0 -63 0 13 86 c 2,2,-1
 295 407 l 2,3,4
 359 480 359 480 425.5 532.5 c 128,-1,5
 492 585 492 585 580 636 c 1,6,-1
 580 638 l 1,7,8
 429 648 429 648 336 744 c 128,-1,9
 243 840 243 840 243 963 c 256,10,11
 243 1191 243 1191 412.5 1312.5 c 128,-1,12
 582 1434 582 1434 933 1434 c 2,13,-1
 1397 1434 l 2,14,15
 1467 1434 1467 1434 1450 1359 c 2,16,-1
 1153 75 l 2,17,18
 1136 0 1136 0 1066 0 c 2,19,-1
 914 0 l 2,20,21
 844 0 844 0 861 75 c 2,22,-1
 976 573 l 1,23,-1
 931 573 l 2,24,25
 843 573 843 573 776.5 525.5 c 128,-1,26
 710 478 710 478 627 382 c 2,27,-1
 347 59 l 2,28,29
 296 0 296 0 243 0 c 2,30,-1
 31 0 l 2,0,1
539 983 m 256,31,32
 539 897 539 897 614.5 857 c 128,-1,33
 690 817 690 817 851 817 c 2,34,-1
 1033 817 l 1,35,-1
 1119 1190 l 1,36,-1
 901 1190 l 2,37,38
 717 1190 717 1190 628 1138 c 128,-1,39
 539 1086 539 1086 539 983 c 256,31,32
EndSplineSet
EndChar

StartChar: S
Encoding: 83 83 112
Width: 1299
GlyphClass: 1
Flags: W
LayerCount: 2
Fore
SplineSet
84 114 m 256,0,1
 26 165 26 165 64 212 c 258,2,-1
 151 319 l 258,3,4
 191 368 191 368 262 314 c 256,5,6
 318 272 318 272 405.5 237 c 128,-1,7
 493 202 493 202 595 202 c 256,8,9
 697 202 697 202 761.5 229 c 128,-1,10
 826 256 826 256 853.5 299 c 128,-1,11
 881 342 881 342 881 397 c 256,12,13
 881 436 881 436 860.5 473 c 128,-1,14
 840 510 840 510 803.5 530 c 128,-1,15
 767 550 767 550 720 567 c 256,16,17
 660 589 660 589 603 611.5 c 128,-1,18
 546 634 546 634 468 672 c 256,19,20
 405 703 405 703 361.5 735.5 c 128,-1,21
 318 768 318 768 279 844 c 128,-1,22
 240 920 240 920 240 1035 c 256,23,24
 240 1162 240 1162 325.5 1277.5 c 128,-1,25
 411 1393 411 1393 537.5 1430.5 c 128,-1,26
 664 1468 664 1468 799 1468 c 256,27,28
 935 1468 935 1468 1052.5 1431 c 152,-1,29
 1170 1394 1170 1394 1228 1337 c 256,30,31
 1286 1280 1286 1280 1249 1238 c 258,32,-1
 1161 1138 l 258,33,34
 1118 1089 1118 1089 1051 1141 c 256,35,36
 1000 1182 1000 1182 929 1207 c 128,-1,37
 858 1232 858 1232 773 1232 c 256,38,39
 688 1232 688 1232 638.5 1214 c 128,-1,40
 589 1196 589 1196 559.5 1154 c 128,-1,41
 530 1112 530 1112 530 1068 c 256,42,43
 530 1033 530 1033 542 1000.5 c 128,-1,44
 554 968 554 968 579 941 c 128,-1,45
 604 914 604 914 650 892 c 256,46,47
 714 862 714 862 797 837.5 c 128,-1,48
 880 813 880 813 933 791 c 256,49,50
 1011 759 1011 759 1067.5 706.5 c 128,-1,51
 1124 654 1124 654 1150.5 580 c 128,-1,52
 1177 506 1177 506 1177 416 c 256,53,54
 1177 292 1177 292 1111.5 197 c 128,-1,55
 1046 102 1046 102 913 34 c 128,-1,56
 780 -34 780 -34 559 -34 c 256,57,58
 381 -34 381 -34 278.5 -0.5 c 152,-1,59
 176 33 176 33 84 114 c 256,0,1
EndSplineSet
EndChar

StartChar: afii10025
Encoding: 1047 1047 113
Width: 1354
GlyphClass: 1
Flags: W
HStem: -34 236<394.097 789.963> 636 236<444.104 816.434> 1232 236<503.405 918.066>
VStem: 916 312<299.875 544.023> 975 296<960.902 1178.24>
LayerCount: 2
Back
SplineSet
93 0 m 6,0,1
 13 0 13 0 30 75 c 6,2,-1
 327 1359 l 6,3,4
 344 1434 344 1434 424 1434 c 6,5,-1
 744 1434 l 6,6,7
 1041 1434 1041 1434 1166 1335 c 132,-1,8
 1291 1236 1291 1236 1291 1076 c 260,9,10
 1291 920 1291 920 1166 840 c 132,-1,11
 1041 760 1041 760 921 750 c 5,12,-1
 921 747 l 5,13,14
 1037 736 1037 736 1131 658 c 132,-1,15
 1225 580 1225 580 1225 423 c 260,16,17
 1225 244 1225 244 1041 122 c 132,-1,18
 857 0 857 0 503 0 c 6,19,-1
 93 0 l 6,0,1
361 244 m 5,20,-1
 527 244 l 6,21,22
 757 244 757 244 835 290 c 132,-1,23
 913 336 913 336 913 452 c 260,24,25
 913 544 913 544 837.5 581 c 132,-1,26
 762 618 762 618 574 618 c 6,27,-1
 448 618 l 5,28,-1
 361 244 l 5,20,-1
502 854 m 5,29,-1
 653 854 l 6,30,31
 813 854 813 854 904 913 c 132,-1,32
 995 972 995 972 995 1056 c 260,33,34
 995 1132 995 1132 930 1161 c 132,-1,35
 865 1190 865 1190 691 1190 c 6,36,-1
 580 1190 l 5,37,-1
 502 854 l 5,29,-1
86 156 m 0,0,1
 41 225 41 225 91 268 c 2,2,-1
 176 342 l 2,3,4
 229 388 229 388 293 318 c 0,5,6
 347 258 347 258 434.5 230 c 128,-1,7
 522 202 522 202 594 202 c 0,8,9
 824 202 824 202 928.5 326 c 128,-1,10
 1033 450 1033 450 1056 622 c 1,11,-1
 523 622 l 2,12,13
 448 622 448 622 463 687 c 2,14,-1
 490 805 l 2,15,16
 505 870 505 870 580 870 c 2,17,-1
 1079 870 l 1,18,19
 1091 1029 1091 1029 1001 1130.5 c 128,-1,20
 911 1232 911 1232 704 1232 c 0,21,22
 608 1232 608 1232 530.5 1194.5 c 128,-1,23
 453 1157 453 1157 407 1107 c 0,24,25
 364 1060 364 1060 320 1095 c 2,26,-1
 221 1172 l 2,27,28
 161 1219 161 1219 203 1270 c 0,29,30
 293 1378 293 1378 431 1423 c 128,-1,31
 569 1468 569 1468 727 1468 c 0,32,33
 1046 1468 1046 1468 1216 1308.5 c 128,-1,34
 1386 1149 1386 1149 1386 846 c 0,35,36
 1386 447 1386 447 1190.5 206.5 c 128,-1,37
 995 -34 995 -34 570 -34 c 0,38,39
 380 -34 380 -34 264.5 12 c 128,-1,40
 149 58 149 58 86 156 c 0,0,1
EndSplineSet
Fore
SplineSet
87 156 m 256,0,1
 38 220 38 220 78 255 c 258,2,-1
 181 344 l 258,3,4
 233 389 233 389 291 327 c 256,5,6
 339 276 339 276 406.5 239 c 128,-1,7
 474 202 474 202 602 202 c 256,8,9
 699 202 699 202 807.5 254 c 128,-1,10
 916 306 916 306 916 418 c 256,11,12
 916 516 916 516 839 576 c 128,-1,13
 762 636 762 636 639 636 c 2,14,-1
 473 636 l 2,15,16
 397 636 397 636 412 699 c 2,17,-1
 437 807 l 2,18,19
 452 872 452 872 527 872 c 2,20,-1
 651 872 l 2,21,22
 840 872 840 872 907.5 935.5 c 128,-1,23
 975 999 975 999 975 1077 c 256,24,25
 975 1167 975 1167 896.5 1199.5 c 128,-1,26
 818 1232 818 1232 682 1232 c 256,27,28
 597 1232 597 1232 522 1196.5 c 128,-1,29
 447 1161 447 1161 408 1125 c 256,30,31
 347 1070 347 1070 297 1116 c 258,32,-1
 210 1197 l 258,33,34
 159 1245 159 1245 223 1297 c 256,35,36
 330 1385 330 1385 447 1426.5 c 128,-1,37
 564 1468 564 1468 702 1468 c 256,38,39
 987 1468 987 1468 1129 1356.5 c 128,-1,40
 1271 1245 1271 1245 1271 1104 c 256,41,42
 1271 954 1271 954 1180 865.5 c 128,-1,43
 1089 777 1089 777 934 752 c 1,44,-1
 933 748 l 1,45,46
 1068 717 1068 717 1148 627 c 128,-1,47
 1228 537 1228 537 1228 427 c 256,48,49
 1228 243 1228 243 1043 104.5 c 128,-1,50
 858 -34 858 -34 597 -34 c 256,51,52
 369 -34 369 -34 262.5 16 c 128,-1,53
 156 66 156 66 87 156 c 256,0,1
EndSplineSet
EndChar

StartChar: afii10021
Encoding: 1044 1044 114
Width: 1538
GlyphClass: 1
Flags: W
HStem: -370 21G<-115 75 1053 1243> 0 248<442 933> 1186 248<824 1150>
DStem2: -145.161 -370 104.839 -370 0.224951 0.97437<47.9133 435.912> 214.624 -370 464.552 -370 0.224951 0.97437<973.526 1653.2> 790.323 -370 1082.32 -370 0.224951 0.97437<699.942 1597.03> 1022.84 -370 1272.84 -370 0.224951 0.97437<47.9133 379.674>
LayerCount: 2
Back
SplineSet
-85 -370 m 2,0,1
 -145 -370 -145 -370 -129 -300 c 2,2,-1
 -20 173 l 2,3,4
 -3 248 -3 248 87 248 c 2,5,-1
 130 248 l 1,6,7
 292 384 292 384 378.5 550 c 128,-1,8
 465 716 465 716 554 1100 c 2,9,-1
 614 1359 l 2,10,11
 631 1434 631 1434 701 1434 c 2,12,-1
 1441 1434 l 2,13,14
 1511 1434 1511 1434 1494 1359 c 2,15,-1
 1237 248 l 1,16,-1
 1337 248 l 2,17,18
 1427 248 1427 248 1410 173 c 2,19,-1
 1301 -300 l 2,20,21
 1285 -370 1285 -370 1225 -370 c 2,22,-1
 1095 -370 l 2,23,24
 1035 -370 1035 -370 1051 -300 c 2,25,-1
 1120 0 l 1,26,-1
 190 0 l 1,27,-1
 121 -300 l 2,28,29
 105 -370 105 -370 45 -370 c 2,30,-1
 -85 -370 l 2,0,1
426 248 m 1,31,-1
 945 248 l 1,32,-1
 1162 1186 l 1,33,-1
 824 1186 l 1,34,-1
 791 1044 l 2,35,36
 709 688 709 688 613.5 496 c 128,-1,37
 518 304 518 304 426 248 c 1,31,-1
EndSplineSet
Fore
SplineSet
-85 -370 m 2,0,1
 -145 -370 -145 -370 -129 -300 c 2,2,-1
 -20 173 l 2,3,4
 -3 248 -3 248 87 248 c 2,5,-1
 130 248 l 1,6,7
 294 381 294 381 387 580 c 128,-1,8
 480 779 480 779 554 1100 c 2,9,-1
 614 1359 l 2,10,11
 631 1434 631 1434 701 1434 c 2,12,-1
 1429 1434 l 2,13,14
 1499 1434 1499 1434 1482 1359 c 2,15,-1
 1225 248 l 1,16,-1
 1325 248 l 2,17,18
 1415 248 1415 248 1398 173 c 2,19,-1
 1289 -300 l 2,20,21
 1273 -370 1273 -370 1213 -370 c 2,22,-1
 1083 -370 l 2,23,24
 1023 -370 1023 -370 1039 -300 c 2,25,-1
 1108 0 l 1,26,-1
 190 0 l 1,27,-1
 121 -300 l 2,28,29
 105 -370 105 -370 45 -370 c 2,30,-1
 -85 -370 l 2,0,1
442 248 m 1,31,-1
 933 248 l 1,32,-1
 1150 1186 l 1,33,-1
 824 1186 l 1,34,-1
 791 1044 l 2,35,36
 702 663 702 663 618 483 c 128,-1,37
 534 303 534 303 442 248 c 1,31,-1
EndSplineSet
EndChar

StartChar: afii10047
Encoding: 1069 1069 115
Width: 1388
GlyphClass: 1
Flags: W
HStem: -34 236<393.357 803.719> 622 248<498.039 1044> 1232 236<519.105 930.01>
VStem: 1067 307<870 1088.36>
LayerCount: 2
Back
SplineSet
1370 846 m 256,0,1
 1370 498 1370 498 1168 232 c 128,-1,2
 966 -34 966 -34 578 -34 c 256,3,4
 398 -34 398 -34 272 28.5 c 128,-1,5
 146 91 146 91 90 183 c 256,6,7
 50 249 50 249 107 287 c 258,8,-1
 231 370 l 258,9,10
 277 401 277 401 327 334 c 256,11,12
 377 268 377 268 452 235 c 128,-1,13
 527 202 527 202 599 202 c 256,14,15
 810 202 810 202 934 394 c 128,-1,16
 1058 586 1058 586 1058 884 c 256,17,18
 1058 1035 1058 1035 980 1133.5 c 128,-1,19
 902 1232 902 1232 713 1232 c 256,20,21
 605 1232 605 1232 533 1190.5 c 152,-1,22
 461 1149 461 1149 420 1092 c 256,23,24
 367 1019 367 1019 320 1045 c 258,25,-1
 193 1115 l 258,26,27
 131 1149 131 1149 175 1213 c 256,28,29
 251 1323 251 1323 392 1395.5 c 152,-1,30
 533 1468 533 1468 734 1468 c 256,31,32
 1034 1468 1034 1468 1202 1314.5 c 128,-1,33
 1370 1161 1370 1161 1370 846 c 256,0,1
1145 622 m 257,34,-1
 503 622 l 2,35,36
 428 622 428 622 443 687 c 2,37,-1
 470 805 l 2,38,39
 485 870 485 870 560 870 c 2,40,-1
 1198 870 l 257,41,-1
 1145 622 l 257,34,-1
EndSplineSet
Fore
SplineSet
86 156 m 0,0,1
 41 225 41 225 91 268 c 2,2,-1
 176 342 l 2,3,4
 229 388 229 388 293 318 c 0,5,6
 347 258 347 258 434.5 230 c 128,-1,7
 522 202 522 202 594 202 c 0,8,9
 801 202 801 202 907.5 329 c 128,-1,10
 1014 456 1014 456 1044 622 c 1,11,-1
 523 622 l 2,12,13
 448 622 448 622 463 687 c 2,14,-1
 490 805 l 2,15,16
 505 870 505 870 580 870 c 2,17,-1
 1067 870 l 1,18,19
 1067 1053 1067 1053 986.5 1142.5 c 128,-1,20
 906 1232 906 1232 724 1232 c 0,21,22
 624 1232 624 1232 544.5 1199.5 c 128,-1,23
 465 1167 465 1167 407 1107 c 0,24,25
 363 1062 363 1062 320 1095 c 2,26,-1
 221 1172 l 2,27,28
 161 1219 161 1219 203 1270 c 0,29,30
 293 1378 293 1378 437.5 1423 c 128,-1,31
 582 1468 582 1468 747 1468 c 0,32,33
 1066 1468 1066 1468 1220 1308.5 c 128,-1,34
 1374 1149 1374 1149 1374 846 c 0,35,36
 1374 474 1374 474 1174.5 220 c 128,-1,37
 975 -34 975 -34 570 -34 c 0,38,39
 380 -34 380 -34 264.5 12 c 128,-1,40
 149 58 149 58 86 156 c 0,0,1
EndSplineSet
EndChar

StartChar: afii10037
Encoding: 1059 1059 120
Width: 1382
GlyphClass: 1
Flags: W
HStem: -34 236<127.162 487.917> 1414 20G<274 499.5 1258 1517>
DStem2: 698 754 253 1348 0.276827 -0.96092<-719.154 224.725>
LayerCount: 2
Back
SplineSet
125 0 m 256,0,1
 70.2334 27 70.2334 27 97.0078 78 c 2,2,-1
 163.79 207 l 2,3,4
 187.179 252 187.179 252 242.407 227 c 256,5,6
 298.636 202 298.636 202 345.636 202 c 256,7,8
 403.636 202 403.636 202 451.329 218 c 128,-1,9
 499.023 234 499.023 234 536.183 291 c 2,10,-1
 557.801 324 l 9,11,-1
 253.21 1348 l 18,12,13
 228.065 1434 228.065 1434 320.065 1434 c 2,14,-1
 497.065 1434 l 2,15,16
 555.065 1434 555.065 1434 573.135 1365 c 10,17,-1
 730.074 754 l 2,18,19
 745.453 695 745.453 695 747.063 637 c 128,-1,20
 748.673 579 748.673 579 743.975 524 c 1,21,-1
 747.975 524 l 1,22,23
 770.365 582 770.365 582 795.641 639.5 c 128,-1,24
 820.915 697 820.915 697 854.074 754 c 2,25,-1
 1216.13 1365 l 18,26,27
 1257.06 1434 1257.06 1434 1324.06 1434 c 2,28,-1
 1496.06 1434 l 2,29,30
 1578.06 1434 1578.06 1434 1523.21 1348 c 10,31,-1
 871.417 331 l 2,32,33
 729.165 109 729.165 109 615.657 37.5 c 128,-1,34
 502.15 -34 502.15 -34 324.15 -34 c 256,35,36
 195.15 -34 195.15 -34 125 0 c 256,0,1
EndSplineSet
Fore
SplineSet
253 1348 m 18,0,1
 228 1434 228 1434 320 1434 c 2,2,-1
 470 1434 l 2,3,4
 529 1434 529 1434 546 1365 c 10,5,-1
 698 754 l 2,6,7
 710 706 710 706 717 651 c 128,-1,8
 724 596 724 596 726 526 c 1,9,-1
 730 526 l 1,10,11
 752 600 752 600 778.5 651.5 c 128,-1,12
 805 703 805 703 834 754 c 2,13,-1
 1184 1365 l 18,14,15
 1224 1434 1224 1434 1292 1434 c 2,16,-1
 1476 1434 l 2,17,18
 1558 1434 1558 1434 1503 1348 c 10,19,-1
 851 331 l 2,20,21
 680 64 680 64 568 15 c 128,-1,22
 456 -34 456 -34 313 -34 c 256,23,24
 196 -34 196 -34 126 0 c 256,25,26
 79 23 79 23 98 78 c 2,27,-1
 143 206 l 2,28,29
 160 254 160 254 221 226 c 256,30,31
 275 202 275 202 338 202 c 256,32,33
 386 202 386 202 435.5 215.5 c 128,-1,34
 485 229 485 229 526 291 c 2,35,-1
 548 324 l 9,36,-1
 253 1348 l 18,0,1
EndSplineSet
EndChar

StartChar: cyrBreve
Encoding: 63185 63185 122
Width: 1492
GlyphClass: 1
Flags: W
HStem: 1540 158<887.136 1155.23>
VStem: 636 235<1730.49 1871.62>
LayerCount: 2
Back
SplineSet
636 1809 m 2,0,1
 647 1877 647 1877 714 1877 c 2,2,-1
 822 1877 l 2,3,4
 882 1877 882 1877 875 1829 c 2,5,-1
 871 1796 l 2,6,7
 866 1762 866 1762 897.5 1730 c 128,-1,8
 929 1698 929 1698 1018 1698 c 256,9,10
 1107 1698 1107 1698 1153.5 1730 c 128,-1,11
 1200 1762 1200 1762 1211 1796 c 2,12,-1
 1221 1829 l 2,13,14
 1236 1877 1236 1877 1296 1877 c 2,15,-1
 1404 1877 l 2,16,17
 1472 1877 1472 1877 1452 1809 c 2,18,-1
 1435 1756 l 2,19,20
 1398 1636 1398 1636 1265 1588 c 128,-1,21
 1132 1540 1132 1540 982 1540 c 256,22,23
 832 1540 832 1540 720.5 1588 c 128,-1,24
 609 1636 609 1636 627 1756 c 2,25,-1
 636 1809 l 2,0,1
EndSplineSet
Fore
SplineSet
636 1809 m 2,0,1
 646 1877 646 1877 714 1877 c 2,2,-1
 822 1877 l 2,3,4
 881 1877 881 1877 875 1829 c 2,5,-1
 871 1796 l 2,6,7
 867 1761 867 1761 889.5 1729.5 c 128,-1,8
 912 1698 912 1698 988 1698 c 256,9,10
 1106 1698 1106 1698 1187 1765 c 128,-1,11
 1268 1832 1268 1832 1311 1886 c 256,12,13
 1349 1934 1349 1934 1389 1904 c 258,14,-1
 1443 1863 l 258,15,16
 1477 1837 1477 1837 1445 1793 c 256,17,18
 1374 1694 1374 1694 1254 1617 c 128,-1,19
 1134 1540 1134 1540 951 1540 c 256,20,21
 790 1540 790 1540 702 1603 c 128,-1,22
 614 1666 614 1666 628 1756 c 2,23,-1
 636 1809 l 2,0,1
EndSplineSet
EndChar

StartChar: dieresis
Encoding: 168 168 123
Width: 614
GlyphClass: 1
Flags: W
HStem: 1206 236<180.156 378.844 606.156 804.844>
LayerCount: 2
Back
SplineSet
61 1240 m 2,0,1
 16 1240 16 1240 16 1285 c 2,2,-1
 16 1371 l 2,3,4
 16 1416 16 1416 61 1416 c 2,5,-1
 147 1416 l 2,6,7
 192 1416 192 1416 192 1371 c 2,8,-1
 192 1285 l 2,9,10
 192 1240 192 1240 147 1240 c 2,11,-1
 61 1240 l 2,0,1
467 1240 m 2,12,13
 422 1240 422 1240 422 1285 c 2,14,-1
 422 1371 l 2,15,16
 422 1416 422 1416 467 1416 c 2,17,-1
 553 1416 l 2,18,19
 598 1416 598 1416 598 1371 c 2,20,-1
 598 1285 l 2,21,22
 598 1240 598 1240 553 1240 c 2,23,-1
 467 1240 l 2,12,13
EndSplineSet
Fore
SplineSet
194 1206 m 2,0,1
 134 1206 134 1206 148 1266 c 2,2,-1
 175 1382 l 2,3,4
 189 1442 189 1442 249 1442 c 2,5,-1
 365 1442 l 2,6,7
 425 1442 425 1442 411 1382 c 2,8,-1
 384 1266 l 2,9,10
 370 1206 370 1206 310 1206 c 2,11,-1
 194 1206 l 2,0,1
620 1206 m 2,12,13
 560 1206 560 1206 574 1266 c 2,14,-1
 601 1382 l 2,15,16
 615 1442 615 1442 675 1442 c 2,17,-1
 791 1442 l 2,18,19
 851 1442 851 1442 837 1382 c 2,20,-1
 810 1266 l 2,21,22
 796 1206 796 1206 736 1206 c 2,23,-1
 620 1206 l 2,12,13
EndSplineSet
EndChar

StartChar: dieresis.cap
Encoding: 63179 63179 125
Width: 820
GlyphClass: 1
Flags: W
HStem: 1530 256<296.875 541.967 804.875 1049.97>
LayerCount: 2
Back
SplineSet
125 1550 m 2,0,1
 80 1550 80 1550 80 1595 c 2,2,-1
 80 1687 l 2,3,4
 80 1732 80 1732 125 1732 c 2,5,-1
 217 1732 l 2,6,7
 262 1732 262 1732 262 1687 c 2,8,-1
 262 1595 l 2,9,10
 262 1550 262 1550 217 1550 c 2,11,-1
 125 1550 l 2,0,1
603 1550 m 2,12,13
 558 1550 558 1550 558 1595 c 2,14,-1
 558 1687 l 2,15,16
 558 1732 558 1732 603 1732 c 2,17,-1
 695 1732 l 2,18,19
 740 1732 740 1732 740 1687 c 2,20,-1
 740 1595 l 2,21,22
 740 1550 740 1550 695 1550 c 2,23,-1
 603 1550 l 2,12,13
EndSplineSet
Fore
SplineSet
313 1530 m 2,0,1
 243 1530 243 1530 261 1605 c 2,2,-1
 285 1711 l 2,3,4
 302 1786 302 1786 372 1786 c 2,5,-1
 524 1786 l 2,6,7
 594 1786 594 1786 577 1711 c 2,8,-1
 553 1605 l 2,9,10
 536 1530 536 1530 465 1530 c 2,11,-1
 313 1530 l 2,0,1
821 1530 m 2,12,13
 751 1530 751 1530 769 1605 c 2,14,-1
 793 1711 l 2,15,16
 810 1786 810 1786 880 1786 c 2,17,-1
 1032 1786 l 2,18,19
 1102 1786 1102 1786 1085 1711 c 2,20,-1
 1061 1605 l 2,21,22
 1044 1530 1044 1530 973 1530 c 2,23,-1
 821 1530 l 2,12,13
EndSplineSet
EndChar

StartChar: r
Encoding: 114 114 129
Width: 786
GlyphClass: 1
Flags: W
HStem: 0 21G<46 266> 874 196<628.846 843.872> 874 176<770.807 844>
DStem2: 16.1479 0 296.148 0 0.224951 0.97437<54.1702 778.978 951.597 1086.91>
LayerCount: 2
Back
SplineSet
76 0 m 2,0,1
 16 0 16 0 30 60 c 2,2,-1
 245 990 l 2,3,4
 259 1050 259 1050 318 1050 c 2,5,-1
 476 1050 l 2,6,7
 536 1050 536 1050 523 990 c 2,8,-1
 504 908 l 1,9,-1
 508 908 l 1,10,11
 549 972 549 972 621 1021 c 128,-1,12
 693 1070 693 1070 776 1070 c 256,13,14
 833 1070 833 1070 867 1056 c 256,15,16
 899 1043 899 1043 883 1008 c 2,17,-1
 827 889 l 2,18,19
 809 849 809 849 768 865 c 256,20,21
 744 874 744 874 720 874 c 256,22,23
 624 874 624 874 534.5 759 c 128,-1,24
 445 644 445 644 394 424 c 2,25,-1
 310 60 l 2,26,27
 296 0 296 0 236 0 c 2,28,-1
 76 0 l 2,0,1
EndSplineSet
Fore
SplineSet
76 0 m 2,0,1
 16 0 16 0 30 60 c 2,2,-1
 245 990 l 2,3,4
 259 1050 259 1050 318 1050 c 2,5,-1
 472 1050 l 2,6,7
 533 1050 533 1050 519 990 c 2,8,-1
 491 867 l 1,9,-1
 495 867 l 1,10,11
 537 952 537 952 609 1011 c 128,-1,12
 681 1070 681 1070 769 1070 c 256,13,14
 827 1070 827 1070 861 1056 c 256,15,16
 890 1044 890 1044 877 1008 c 2,17,-1
 833 889 l 2,18,19
 818 848 818 848 774 865 c 256,20,21
 750 874 750 874 720 874 c 256,22,23
 630 874 630 874 532.5 738 c 128,-1,24
 435 602 435 602 376 347 c 2,25,-1
 310 60 l 2,26,27
 296 0 296 0 236 0 c 2,28,-1
 76 0 l 2,0,1
EndSplineSet
EndChar

StartChar: F
Encoding: 70 70 130
Width: 1176
GlyphClass: 1
Flags: W
HStem: 0 21G<75 297> 590 248<525 1036.96> 1186 248<606 1256.96>
DStem2: 39.6849 0 331.685 0 0.224951 0.97437<59.195 671.228 925.694 1283>
LayerCount: 2
Fore
SplineSet
110 0 m 2,0,1
 40 0 40 0 57 75 c 2,2,-1
 354 1359 l 2,3,4
 371 1434 371 1434 441 1434 c 2,5,-1
 1232 1434 l 2,6,7
 1307 1434 1307 1434 1292 1369 c 2,8,-1
 1265 1251 l 2,9,10
 1250 1186 1250 1186 1175 1186 c 2,11,-1
 606 1186 l 9,12,-1
 525 838 l 1,13,-1
 1012 838 l 2,14,15
 1087 838 1087 838 1072 773 c 2,16,-1
 1045 655 l 2,17,18
 1030 590 1030 590 955 590 c 2,19,-1
 468 590 l 1,20,-1
 349 75 l 2,21,22
 332 0 332 0 262 0 c 2,23,-1
 110 0 l 2,0,1
EndSplineSet
EndChar

StartChar: w
Encoding: 119 119 133
Width: 1604
GlyphClass: 1
Flags: W
HStem: 0 21G<228 464 899.5 1135.5> 1030 20G<169.5 378 797.5 1027 1446.5 1678.5>
VStem: 146 257<717.606 1049.69> 870 187<238 811>
DStem2: 472 413 524 67 0.425448 0.904983<-188.032 527.017> 1083.5 312 1197 67 0.460117 0.887858<-77.3889 587.399>
LayerCount: 2
Back
SplineSet
146.404 972 m 2,0,1
 142.411 1050 142.411 1050 197.411 1050 c 2,2,-1
 366.411 1050 l 2,3,4
 414.411 1050 414.411 1050 414.638 999 c 2,5,-1
 414.349 413 l 2,6,7
 414.574 362 414.574 362 412.724 315 c 128,-1,8
 410.873 268 410.873 268 405.946 238 c 1,9,-1
 411.946 238 l 1,10,11
 420.873 268 420.873 268 441.069 316.5 c 128,-1,12
 461.267 365 461.267 365 484.349 413 c 2,13,-1
 761.638 999 l 2,14,15
 785.412 1050 785.412 1050 833.412 1050 c 2,16,-1
 1015.41 1050 l 2,17,18
 1063.41 1050 1063.41 1050 1063.64 999 c 2,19,-1
 1070.35 413 l 2,20,21
 1071.27 365 1071.27 365 1069.07 316.5 c 128,-1,22
 1066.87 268 1066.87 268 1061.95 238 c 1,23,-1
 1067.95 238 l 1,24,25
 1076.87 268 1076.87 268 1096.72 315 c 128,-1,26
 1116.57 362 1116.57 362 1140.35 413 c 2,27,-1
 1410.64 999 l 2,28,29
 1434.41 1050 1434.41 1050 1482.41 1050 c 2,30,-1
 1651.41 1050 l 2,31,32
 1706.41 1050 1706.41 1050 1666.4 972 c 2,33,-1
 1197.47 67 l 2,34,35
 1163 0 1163 0 1109 0 c 2,36,-1
 928 0 l 2,37,38
 871 0 871 0 870.468 67 c 2,39,-1
 862.373 660 l 2,40,41
 861.147 711 861.147 711 862.805 742 c 128,-1,42
 864.461 773 864.461 773 871.234 811 c 1,43,-1
 867.234 811 l 1,44,45
 856.461 773 856.461 773 843.805 742 c 128,-1,46
 831.147 711 831.147 711 806.373 660 c 2,47,-1
 524.468 67 l 2,48,49
 493 0 493 0 436 0 c 2,50,-1
 255 0 l 2,51,52
 201 0 201 0 197.468 67 c 2,53,-1
 146.404 972 l 2,0,1
EndSplineSet
Fore
SplineSet
146 972 m 2,0,1
 142 1050 142 1050 197 1050 c 2,2,-1
 354 1050 l 2,3,4
 402 1050 402 1050 403 999 c 2,5,-1
 402 413 l 2,6,7
 402 356 402 356 400.5 312 c 128,-1,8
 399 268 399 268 394 238 c 1,9,-1
 400 238 l 1,10,11
 409 268 409 268 427.5 313 c 128,-1,12
 446 358 446 358 472 413 c 2,13,-1
 750 999 l 2,14,15
 774 1050 774 1050 821 1050 c 2,16,-1
 1003 1050 l 2,17,18
 1051 1050 1051 1050 1052 999 c 2,19,-1
 1058 413 l 2,20,21
 1059 358 1059 358 1057 313 c 128,-1,22
 1055 268 1055 268 1050 238 c 1,23,-1
 1056 238 l 1,24,25
 1065 268 1065 268 1083.5 312 c 128,-1,26
 1102 356 1102 356 1128 413 c 2,27,-1
 1399 999 l 2,28,29
 1423 1050 1423 1050 1470 1050 c 2,30,-1
 1651 1050 l 2,31,32
 1706 1050 1706 1050 1666 972 c 2,33,-1
 1197 67 l 2,34,35
 1162 0 1162 0 1109 0 c 2,36,-1
 928 0 l 2,37,38
 871 0 871 0 870 67 c 2,39,-1
 862 660 l 2,40,41
 861 719 861 719 863 746 c 128,-1,42
 865 773 865 773 871 811 c 1,43,-1
 867 811 l 1,44,45
 856 773 856 773 845.5 746 c 128,-1,46
 835 719 835 719 806 660 c 2,47,-1
 524 67 l 2,48,49
 492 0 492 0 436 0 c 2,50,-1
 255 0 l 2,51,52
 201 0 201 0 197 67 c 2,53,-1
 146 972 l 2,0,1
EndSplineSet
EndChar

StartChar: L
Encoding: 76 76 134
Width: 1162
GlyphClass: 1
Flags: W
HStem: 0 248<389 996.961> 1414 20G<406 633>
DStem2: 39.6849 0 331.745 0 0.224951 0.97437<320.223 1478.37>
LayerCount: 2
Fore
SplineSet
110 0 m 2,0,1
 40 0 40 0 57 75 c 2,2,-1
 354 1359 l 2,3,4
 371 1434 371 1434 441 1434 c 2,5,-1
 603 1434 l 2,6,7
 663 1434 663 1434 646 1359 c 2,8,-1
 389 248 l 17,9,-1
 972 248 l 2,10,11
 1047 248 1047 248 1032 183 c 2,12,-1
 1005 65 l 2,13,14
 990 0 990 0 915 0 c 2,15,-1
 110 0 l 2,0,1
EndSplineSet
EndChar

StartChar: D
Encoding: 68 68 135
Width: 1402
GlyphClass: 1
Flags: W
HStem: 0 248<389 793.272> 1188 246<606 959.666>
VStem: 1098 312<570.241 1051.36>
DStem2: 39.6849 0 331.745 0 0.224951 0.97437<320.223 1284.94>
LayerCount: 2
Back
SplineSet
110 0 m 2,0,1
 40 0 40 0 57 75 c 2,2,-1
 354 1359 l 2,3,4
 371 1434 371 1434 441 1434 c 2,5,-1
 790 1434 l 2,6,7
 1250 1434 1250 1434 1369.5 1248 c 128,-1,8
 1489 1062 1489 1062 1410 719 c 256,9,10
 1331 376 1331 376 1125 188 c 128,-1,11
 919 0 919 0 459 0 c 10,12,-1
 110 0 l 2,0,1
389 248 m 1,13,-1
 497 248 l 2,14,15
 807 248 807 248 925 363.5 c 128,-1,16
 1043 479 1043 479 1098 719 c 256,17,18
 1153 959 1153 959 1088.5 1073.5 c 128,-1,19
 1024 1188 1024 1188 714 1188 c 2,20,-1
 606 1188 l 1,21,-1
 389 248 l 1,13,-1
EndSplineSet
Fore
SplineSet
110 0 m 2,0,1
 40 0 40 0 57 75 c 2,2,-1
 354 1359 l 2,3,4
 371 1434 371 1434 441 1434 c 2,5,-1
 740 1434 l 2,6,7
 1098 1434 1098 1434 1254 1269 c 128,-1,8
 1410 1104 1410 1104 1410 831 c 256,9,10
 1410 471 1410 471 1183 235.5 c 128,-1,11
 956 0 956 0 489 0 c 10,12,-1
 110 0 l 2,0,1
389 248 m 1,13,-1
 527 248 l 2,14,15
 828 248 828 248 963 408 c 128,-1,16
 1098 568 1098 568 1098 852 c 256,17,18
 1098 1005 1098 1005 1024.5 1096.5 c 128,-1,19
 951 1188 951 1188 684 1188 c 2,20,-1
 606 1188 l 1,21,-1
 389 248 l 1,13,-1
EndSplineSet
EndChar

StartChar: exclam
Encoding: 33 33 136
Width: 668
GlyphClass: 1
Flags: W
HStem: 0 284<127.594 366.12> 1414 20G<429 661>
VStem: 85 593
DStem2: 67.6849 0 359.685 0 0.224951 0.97437<59.195 298.028 498.946 1479.34>
LayerCount: 2
Fore
SplineSet
378 1359 m 2,0,1
 393 1434 393 1434 465 1434 c 2,2,-1
 625 1434 l 2,3,4
 697 1434 697 1434 678 1359 c 2,5,-1
 449 485 l 2,6,7
 432 420 432 420 369 420 c 2,8,-1
 253 420 l 2,9,10
 190 420 190 420 203 485 c 2,11,-1
 378 1359 l 2,0,1
138 0 m 2,12,13
 68 0 68 0 85 75 c 2,14,-1
 116 209 l 2,15,16
 133 284 133 284 204 284 c 2,17,-1
 356 284 l 2,18,19
 426 284 426 284 408 209 c 2,20,-1
 377 75 l 2,21,22
 360 0 360 0 290 0 c 2,23,-1
 138 0 l 2,12,13
EndSplineSet
EndChar

StartChar: one
Encoding: 49 49 137
Width: 907
GlyphClass: 1
Flags: W
HStem: 0 21G<349 569> 1420 20G<692 901.5>
VStem: 293 625
DStem2: 319.148 0 599.148 0 0.224951 0.97437<54.1702 1098.73>
LayerCount: 2
Back
SplineSet
298 1138 m 2,0,1
 283 1187 283 1187 350 1214 c 256,2,3
 414 1240 414 1240 488 1287 c 128,-1,4
 562 1334 562 1334 614 1384 c 256,5,6
 672 1440 672 1440 712 1440 c 2,7,-1
 871 1440 l 2,8,9
 931 1440 931 1440 918 1380 c 2,10,-1
 613 60 l 2,11,12
 599 0 599 0 539 0 c 2,13,-1
 379 0 l 2,14,15
 319 0 319 0 333 60 c 2,16,-1
 552 1011 l 2,17,18
 561 1051 561 1051 575 1091 c 1,19,-1
 571 1091 l 1,20,21
 531 1052 531 1052 487.5 1024 c 128,-1,22
 444 996 444 996 402 980 c 256,23,24
 350 960 350 960 337 1006 c 258,25,-1
 298 1138 l 2,0,1
EndSplineSet
Fore
SplineSet
293 1138 m 2,0,1
 275 1186 275 1186 345 1214 c 256,2,3
 409 1240 409 1240 485.5 1287 c 128,-1,4
 562 1334 562 1334 614 1384 c 256,5,6
 672 1440 672 1440 712 1440 c 2,7,-1
 871 1440 l 2,8,9
 932 1440 932 1440 918 1380 c 2,10,-1
 613 60 l 2,11,12
 599 0 599 0 539 0 c 2,13,-1
 379 0 l 2,14,15
 319 0 319 0 333 60 c 2,16,-1
 547 991 l 2,17,18
 557 1033 557 1033 570 1071 c 1,19,-1
 566 1071 l 1,20,21
 535 1034 535 1034 495.5 1011 c 128,-1,22
 456 988 456 988 411 972 c 256,23,24
 362 955 362 955 346 998 c 258,25,-1
 293 1138 l 2,0,1
EndSplineSet
EndChar

StartChar: one.tab
Encoding: 65536 -1 138
Width: 1200
GlyphClass: 1
Flags: W
HStem: 0 200<103.684 386 666 903.225> 1420 20G<710.5 922>
DStem2: 339.826 0 619.826 0 0.224951 0.97437<268.247 1109.15>
LayerCount: 2
Back
SplineSet
318.728 1138 m 258,0,1
 304.041 1187 304.041 1187 371.274 1214 c 256,2,3
 435.276 1240 435.276 1240 509.127 1287 c 128,-1,4
 582.979 1334 582.979 1334 634.521 1384 c 0,5,6
 692.45 1440 692.45 1440 733.45 1440 c 2,7,-1
 892.45 1440 l 2,8,9
 952.45 1440 952.45 1440 938.598 1380 c 2,10,-1
 666.174 200 l 1,11,-1
 879.174 200 l 2,12,13
 939.174 200 939.174 200 927.63 150 c 2,14,-1
 904.543 50 l 2,15,16
 893 0 893 0 834 0 c 2,17,-1
 126 0 l 2,18,19
 67 0 67 0 78.543 50 c 2,20,-1
 101.63 150 l 2,21,22
 113.174 200 113.174 200 173.174 200 c 2,23,-1
 386.174 200 l 1,24,-1
 573.408 1011 l 2,25,26
 582.643 1051 582.643 1051 595.877 1091 c 1,27,-1
 591.877 1091 l 1,28,29
 551.873 1052 551.873 1052 508.409 1024 c 128,-1,30
 464.944 996 464.944 996 423.251 980 c 256,31,32
 371.634 960 371.634 960 358.253 1006 c 258,33,-1
 318.728 1138 l 258,0,1
EndSplineSet
Fore
SplineSet
310 1143 m 258,0,1
 291 1186 291 1186 362 1219 c 256,2,3
 430 1250 430 1250 503 1291 c 128,-1,4
 576 1332 576 1332 635 1389 c 0,5,6
 688 1440 688 1440 733 1440 c 2,7,-1
 892 1440 l 2,8,9
 952 1440 952 1440 939 1380 c 2,10,-1
 666 200 l 1,11,-1
 879 200 l 2,12,13
 939 200 939 200 928 150 c 2,14,-1
 905 50 l 2,15,16
 893 0 893 0 834 0 c 2,17,-1
 126 0 l 2,18,19
 67 0 67 0 79 50 c 2,20,-1
 102 150 l 2,21,22
 114 200 114 200 173 200 c 2,23,-1
 386 200 l 1,24,-1
 571 1001 l 2,25,26
 580 1041 580 1041 594 1081 c 1,27,-1
 590 1081 l 1,28,29
 550 1042 550 1042 516 1017 c 128,-1,30
 482 992 482 992 438 974 c 256,31,32
 393 955 393 955 373 1000 c 258,33,-1
 310 1143 l 258,0,1
EndSplineSet
EndChar

StartChar: U
Encoding: 85 85 139
Width: 1422
GlyphClass: 1
Flags: W
HStem: -34 236<491.592 780.864> 1414 20G<406 628 1216 1438>
DStem2: 32.3222 -34 324.013 -34 0.224951 0.97437<430.668 1514.97> 842.013 -34 1134.32 -34 0.224951 0.97437<367.225 1514.3>
LayerCount: 2
Back
SplineSet
178 597 m 2,0,-1
 358 1379 l 2,1,2
 371 1434 371 1434 441 1434 c 2,3,-1
 593 1434 l 2,4,5
 663 1434 663 1434 650 1379 c 2,6,-1
 472 607 l 2,7,8
 410 337 410 337 474 269.5 c 128,-1,9
 538 202 538 202 638 202 c 256,10,11
 738 202 738 202 833 269.5 c 128,-1,12
 928 337 928 337 990 607 c 2,13,-1
 1168 1379 l 2,14,15
 1181 1434 1181 1434 1251 1434 c 2,16,-1
 1403 1434 l 2,17,18
 1473 1434 1473 1434 1460 1379 c 2,19,-1
 1280 597 l 2,20,21
 1199 247 1199 247 1018.5 106.5 c 128,-1,22
 838 -34 838 -34 583 -34 c 256,23,24
 328 -34 328 -34 212.5 106.5 c 128,-1,25
 97 247 97 247 178 597 c 2,0,-1
EndSplineSet
Fore
SplineSet
178 597 m 2,0,-1
 358 1379 l 2,1,2
 371 1434 371 1434 441 1434 c 2,3,-1
 593 1434 l 2,4,5
 663 1434 663 1434 650 1379 c 2,6,-1
 472 607 l 2,7,8
 410 339 410 339 465 270.5 c 128,-1,9
 520 202 520 202 637 202 c 256,10,11
 738 202 738 202 836.5 284.5 c 128,-1,12
 935 367 935 367 990 607 c 2,13,-1
 1168 1379 l 2,14,15
 1181 1434 1181 1434 1251 1434 c 2,16,-1
 1403 1434 l 2,17,18
 1473 1434 1473 1434 1460 1379 c 2,19,-1
 1280 597 l 2,20,21
 1196 233 1196 233 1042 99.5 c 128,-1,22
 888 -34 888 -34 607 -34 c 256,23,24
 366 -34 366 -34 233.5 114.5 c 128,-1,25
 101 263 101 263 178 597 c 2,0,-1
EndSplineSet
EndChar

StartChar: N
Encoding: 78 78 140
Width: 1472
GlyphClass: 1
Flags: W
HStem: 0 21G<75 297 954 1157> 1414 20G<406 619 1266 1488>
DStem2: 39.6849 0 331.685 0 0.224951 0.97437<59.195 1013.15> 690 1364 548 926 0.36444 -0.931227<356.127 902.131> 900.321 0 1191.68 0 0.224951 0.97437<540.732 1478.19>
LayerCount: 2
Back
SplineSet
110 0 m 2,0,1
 40 0 40 0 57.3154 75 c 2,2,-1
 353.75 1359 l 2,3,4
 371.065 1434 371.065 1434 441.065 1434 c 2,5,-1
 589.065 1434 l 2,6,7
 675.065 1434 675.065 1434 702.904 1364 c 2,8,-1
 1023.82 545 l 9,9,-1
 1030.82 545 l 25,10,11
 1039.68 605 1039.68 605 1053.53 665 c 2,12,-1
 1213.75 1359 l 2,13,14
 1231.06 1434 1231.06 1434 1301.06 1434 c 2,15,-1
 1453.06 1434 l 2,16,17
 1523.06 1434 1523.06 1434 1505.75 1359 c 2,18,-1
 1209.32 75 l 2,19,20
 1192 0 1192 0 1122 0 c 2,21,-1
 984 0 l 2,22,23
 898 0 898 0 870.161 70 c 2,24,-1
 542.705 904 l 9,25,-1
 535.705 904 l 17,26,27
 526.853 844 526.853 844 513.001 784 c 2,28,-1
 349.315 75 l 2,29,30
 332 0 332 0 262 0 c 2,31,-1
 110 0 l 2,0,1
983.215 616 m 2,4,-1
 655.759 1450 l 9,5,-1
883.161 70 m 2,4,-1
 555.705 904 l 9,5,-1
EndSplineSet
Fore
SplineSet
110 0 m 2,0,1
 40 0 40 0 57 75 c 2,2,-1
 354 1359 l 2,3,4
 371 1434 371 1434 441 1434 c 2,5,-1
 576 1434 l 2,6,7
 662 1434 662 1434 690 1364 c 2,8,-1
 1019 524 l 9,9,-1
 1026 524 l 25,10,11
 1035 584 1035 584 1049 644 c 2,12,-1
 1214 1359 l 2,13,14
 1231 1434 1231 1434 1301 1434 c 2,15,-1
 1453 1434 l 2,16,17
 1523 1434 1523 1434 1506 1359 c 2,18,-1
 1209 75 l 2,19,20
 1192 0 1192 0 1122 0 c 2,21,-1
 997 0 l 2,22,23
 911 0 911 0 883 70 c 2,24,-1
 548 926 l 9,25,-1
 541 926 l 17,26,27
 532 866 532 866 518 806 c 2,28,-1
 349 75 l 2,29,30
 332 0 332 0 262 0 c 2,31,-1
 110 0 l 2,0,1
EndSplineSet
EndChar

StartChar: G
Encoding: 71 71 141
Width: 1510
GlyphClass: 1
Flags: W
HStem: -34 236<547.166 968.878> 476 248<874.039 1116> 1232 236<681.976 1070.44>
VStem: 100 312<348.534 885.286>
LayerCount: 2
Back
SplineSet
100 588 m 260,0,1
 100 936 100 936 302 1202 c 132,-1,2
 504 1468 504 1468 892 1468 c 260,3,4
 1072 1468 1072 1468 1198 1405.5 c 132,-1,5
 1324 1343 1324 1343 1380 1251 c 260,6,7
 1420 1185 1420 1185 1363 1147 c 262,8,-1
 1239 1064 l 262,9,10
 1193 1033 1193 1033 1143 1100 c 260,11,12
 1093 1166 1093 1166 1018 1199 c 132,-1,13
 943 1232 943 1232 871 1232 c 260,14,15
 660 1232 660 1232 536 1040 c 132,-1,16
 412 848 412 848 412 550 c 260,17,18
 412 399 412 399 490 300.5 c 132,-1,19
 568 202 568 202 757 202 c 260,20,21
 865 202 865 202 937 243.5 c 156,-1,22
 1009 285 1009 285 1050 342 c 260,23,24
 1103 415 1103 415 1150 389 c 262,25,-1
 1277 319 l 262,26,27
 1339 285 1339 285 1295 221 c 260,28,29
 1219 111 1219 111 1078 38.5 c 156,-1,30
 937 -34 937 -34 736 -34 c 260,31,32
 436 -34 436 -34 268 119.5 c 132,-1,33
 100 273 100 273 100 588 c 260,0,1
136 717 m 256,0,1
 216 1062 216 1062 442.5 1265 c 128,-1,2
 669 1468 669 1468 999 1468 c 256,3,4
 1198 1468 1198 1468 1299.5 1417 c 128,-1,5
 1401 1366 1401 1366 1463 1259 c 256,6,7
 1500 1194 1500 1194 1436 1158 c 258,8,-1
 1305 1084 l 258,9,10
 1247 1051 1247 1051 1205 1113 c 256,11,12
 1170 1164 1170 1164 1105.5 1198 c 128,-1,13
 1041 1232 1041 1232 954 1232 c 256,14,15
 744 1232 744 1232 624.5 1099.5 c 128,-1,16
 505 967 505 967 448 717 c 256,17,18
 390 467 390 467 448.5 334.5 c 128,-1,19
 507 202 507 202 717 202 c 256,20,21
 819 202 819 202 897.5 222.5 c 152,-1,22
 976 243 976 243 1055 297 c 9,23,-1
 1096 476 l 1,24,-1
 879 476 l 2,25,26
 804 476 804 476 819 541 c 2,27,-1
 846 659 l 2,28,29
 861 724 861 724 936 724 c 2,30,-1
 1370 724 l 2,31,32
 1445 724 1445 724 1430 659 c 2,33,-1
 1313 151 l 17,34,35
 1149 48 1149 48 997 7 c 152,-1,36
 845 -34 845 -34 652 -34 c 256,37,38
 327 -34 327 -34 191.5 169 c 128,-1,39
 56 372 56 372 136 717 c 256,0,1
EndSplineSet
Fore
SplineSet
100 588 m 256,0,1
 100 951 100 951 300.5 1209.5 c 128,-1,2
 501 1468 501 1468 902 1468 c 256,3,4
 1082 1468 1082 1468 1213 1410.5 c 128,-1,5
 1344 1353 1344 1353 1400 1261 c 256,6,7
 1440 1195 1440 1195 1383 1157 c 258,8,-1
 1259 1074 l 258,9,10
 1213 1043 1213 1043 1163 1110 c 256,11,12
 1113 1176 1113 1176 1033 1204 c 128,-1,13
 953 1232 953 1232 881 1232 c 256,14,15
 657 1232 657 1232 534.5 1054 c 128,-1,16
 412 876 412 876 412 550 c 256,17,18
 412 399 412 399 485 300.5 c 128,-1,19
 558 202 558 202 766 202 c 256,20,21
 859 202 859 202 937 233 c 152,-1,22
 1015 264 1015 264 1078 312 c 265,23,-1
 1116 476 l 1,24,-1
 899 476 l 2,25,26
 824 476 824 476 839 541 c 2,27,-1
 866 659 l 2,28,29
 881 724 881 724 956 724 c 2,30,-1
 1390 724 l 2,31,32
 1465 724 1465 724 1450 659 c 2,33,-1
 1330 138 l 273,34,35
 1207 66 1207 66 1055.5 16 c 152,-1,36
 904 -34 904 -34 745 -34 c 256,37,38
 447 -34 447 -34 273.5 119.5 c 128,-1,39
 100 273 100 273 100 588 c 256,0,1
EndSplineSet
EndChar

StartChar: J
Encoding: 74 74 142
Width: 947
GlyphClass: 1
Flags: W
HStem: -34 236<39.8833 367.046> 1414 20G<741 963>
DStem2: 367.401 -34 659.401 -34 0.224951 0.97437<302.242 1513.11>
LayerCount: 2
Back
SplineSet
-39 19 m 256,0,1
 -85 50 -85 50 -61 94 c 2,2,-1
 12 231 l 2,3,4
 44 290 44 290 109 243 c 256,5,6
 165 202 165 202 245 202 c 256,7,8
 355 202 355 202 406 278 c 128,-1,9
 457 354 457 354 498 531 c 2,10,-1
 689 1359 l 2,11,12
 706 1434 706 1434 776 1434 c 2,13,-1
 928 1434 l 2,14,15
 998 1434 998 1434 981 1359 c 2,16,-1
 794 551 l 2,17,18
 709 183 709 183 560.5 74.5 c 128,-1,19
 412 -34 412 -34 193 -34 c 256,20,21
 40 -34 40 -34 -39 19 c 256,0,1
EndSplineSet
Fore
SplineSet
-26 22 m 256,0,1
 -66 47 -66 47 -48 97 c 2,2,-1
 2 231 l 2,3,4
 23 287 23 287 92 243 c 256,5,6
 156 202 156 202 228 202 c 256,7,8
 343 202 343 202 401 282.5 c 128,-1,9
 459 363 459 363 498 531 c 2,10,-1
 689 1359 l 2,11,12
 706 1434 706 1434 776 1434 c 2,13,-1
 928 1434 l 2,14,15
 998 1434 998 1434 981 1359 c 2,16,-1
 794 551 l 2,17,18
 709 183 709 183 569 74.5 c 128,-1,19
 429 -34 429 -34 207 -34 c 256,20,21
 66 -34 66 -34 -26 22 c 256,0,1
EndSplineSet
EndChar

StartChar: K
Encoding: 75 75 143
Width: 1361
GlyphClass: 1
Flags: W
HStem: 0 21G<75 297 963 1191.5> 1414 20G<406 628 1189.5 1507>
DStem2: 39.6849 0 331.685 0 0.224951 0.97437<59.195 520.348 961.402 1478.34> 530 873 894 845 0.752171 0.658968<255.339 900.15> 894 845 673 652 0.377064 -0.926187<95.4229 817.181>
LayerCount: 2
Back
SplineSet
110 0 m 2,0,1
 40 0 40 0 57 75 c 2,2,-1
 354 1359 l 2,3,4
 371 1434 371 1434 441 1434 c 2,5,-1
 593 1434 l 2,6,7
 663 1434 663 1434 646 1359 c 2,8,-1
 554 961 l 2,9,10
 540 901 540 901 521 841 c 1,11,-1
 528 841 l 1,12,-1
 1137 1375 l 2,13,14
 1205 1434 1205 1434 1243 1434 c 2,15,-1
 1444 1434 l 2,16,17
 1561 1434 1561 1434 1462 1348 c 2,18,-1
 892 850 l 1,19,-1
 1203 86 l 2,20,21
 1238 0 1238 0 1145 0 c 2,22,-1
 958 0 l 2,23,24
 906 0 906 0 882 59 c 2,25,-1
 647 636 l 1,26,-1
 435 447 l 1,27,-1
 349 75 l 2,28,29
 332 0 332 0 262 0 c 2,30,-1
 110 0 l 2,0,1
608.003 810 m 5,19,-1
 918.62 46 l 6,20,21
892.238 850 m 1,19,-1
 1202.85 86 l 2,20,21
111.016 159.25 m 1,12,-1
 1481.9 1360.75 l 2,13,14
528.16 871 m 1,12,-1
 1137.44 1405 l 2,13,14
EndSplineSet
Fore
SplineSet
110 0 m 2,0,1
 40 0 40 0 57 75 c 2,2,-1
 354 1359 l 2,3,4
 371 1434 371 1434 441 1434 c 2,5,-1
 593 1434 l 2,6,7
 663 1434 663 1434 646 1359 c 2,8,-1
 561 993 l 2,9,10
 547 935 547 935 523 873 c 1,11,-1
 530 873 l 1,12,-1
 1103 1375 l 2,13,14
 1170 1434 1170 1434 1209 1434 c 2,15,-1
 1449 1434 l 2,16,17
 1565 1434 1565 1434 1467 1348 c 2,18,-1
 894 845 l 1,19,-1
 1203 86 l 2,20,21
 1238 0 1238 0 1145 0 c 2,22,-1
 989 0 l 2,23,24
 937 0 937 0 913 59 c 2,25,-1
 673 652 l 1,26,-1
 434 443 l 1,27,-1
 349 75 l 2,28,29
 332 0 332 0 262 0 c 2,30,-1
 110 0 l 2,0,1
EndSplineSet
EndChar

StartChar: Q
Encoding: 81 81 144
Width: 1532
GlyphClass: 1
Flags: MW
HStem: -407 205<933.566 1236.42> -24 226<586 599 892 930.243> 1232 236<691.904 1057.14>
VStem: 104 312<351.95 869.51> 1206 312<564.773 1082.34>
LayerCount: 2
Back
SplineSet
104 587 m 260,0,1
 104 957 104 957 317 1212.5 c 132,-1,2
 530 1468 530 1468 880 1468 c 260,3,4
 1180 1468 1180 1468 1349 1312.5 c 132,-1,5
 1518 1157 1518 1157 1518 847 c 260,6,7
 1518 477 1518 477 1305 221.5 c 132,-1,8
 1092 -34 1092 -34 742 -34 c 260,9,10
 442 -34 442 -34 273 121.5 c 132,-1,11
 104 277 104 277 104 587 c 260,0,1
416 545 m 260,12,13
 416 385 416 385 501 293.5 c 132,-1,14
 586 202 586 202 756 202 c 260,15,16
 956 202 956 202 1081 390.5 c 132,-1,17
 1206 579 1206 579 1206 889 c 260,18,19
 1206 1049 1206 1049 1121 1140.5 c 132,-1,20
 1036 1232 1036 1232 866 1232 c 260,21,22
 666 1232 666 1232 541 1043.5 c 132,-1,23
 416 855 416 855 416 545 c 260,12,13
EndSplineSet
Fore
SplineSet
104 587 m 0,12,13
 104 957 104 957 317 1212.5 c 128,-1,14
 530 1468 530 1468 880 1468 c 0,15,16
 1180 1468 1180 1468 1349 1312.5 c 128,-1,17
 1518 1157 1518 1157 1518 847 c 0,18,19
 1518 478 1518 478 1305 222 c 0,20,21
 1140 24 1140 24 892 -21 c 1,22,23
 898 -111 898 -111 930 -156.5 c 128,-1,24
 962 -202 962 -202 1069 -202 c 0,25,26
 1119 -202 1119 -202 1173 -185 c 256,27,28
 1221 -170 1221 -170 1231 -207 c 258,29,-1
 1264 -323 l 258,30,31
 1274 -358 1274 -358 1228 -373 c 256,32,33
 1125 -407 1125 -407 1007 -407 c 0,34,35
 790 -407 790 -407 698.5 -305 c 128,-1,36
 607 -203 607 -203 599 -24 c 1,37,38
 399 6 399 6 273 122 c 0,39,40
 104 278 104 278 104 587 c 0,12,13
416 545 m 0,0,1
 416 385 416 385 501 293.5 c 128,-1,2
 586 202 586 202 756 202 c 0,3,4
 956 202 956 202 1081 390.5 c 128,-1,5
 1206 579 1206 579 1206 889 c 0,6,7
 1206 1049 1206 1049 1121 1140.5 c 128,-1,8
 1036 1232 1036 1232 866 1232 c 0,9,10
 666 1232 666 1232 541 1043.5 c 128,-1,11
 416 855 416 855 416 545 c 0,0,1
EndSplineSet
EndChar

StartChar: R
Encoding: 82 82 145
Width: 1428
GlyphClass: 1
Flags: W
HStem: 0 21G<75 297 973.5 1199.5> 579 248<523 703.128> 1190 244<607 1074.09>
VStem: 1121 286<936.656 1142.97>
DStem2: 39.6849 0 331.685 0 0.224951 0.97437<59.195 660.06 914.526 1287.12> 1212 86 806 396 0.36024 -0.93286<-585.465 5.63515>
LayerCount: 2
Back
SplineSet
110 0 m 2,0,1
 40 0 40 0 57.3154 75 c 2,2,-1
 353.75 1359 l 2,3,4
 371.065 1434 371.065 1434 441.065 1434 c 2,5,-1
 904.065 1434 l 2,6,7
 1213.06 1434 1213.06 1434 1333.02 1338.5 c 128,-1,8
 1452.97 1243 1452.97 1243 1403.33 1028 c 256,9,10
 1366.39 868 1366.39 868 1229.46 773 c 128,-1,11
 1092.53 678 1092.53 678 908.372 647 c 1,12,-1
 907.91 645 l 1,13,14
 995.599 609 995.599 609 1029.82 545 c 128,-1,15
 1064.05 481 1064.05 481 1083.97 433 c 2,16,-1
 1223.85 86 l 2,17,18
 1259 0 1259 0 1166 0 c 2,19,-1
 992 0 l 2,20,21
 937 0 937 0 915.621 59 c 2,22,-1
 791.424 396 l 2,23,24
 770.891 450 770.891 450 698.281 514.5 c 128,-1,25
 625.673 579 625.673 579 539.673 579 c 2,26,-1
 465.673 579 l 1,27,-1
 349.315 75 l 2,28,29
 332 0 332 0 262 0 c 2,30,-1
 110 0 l 2,0,1
522.928 827 m 1,31,-1
 701.928 827 l 2,32,33
 901.928 827 901.928 827 996.933 872.5 c 128,-1,34
 1091.94 918 1091.94 918 1114.79 1017 c 256,35,36
 1139.73 1125 1139.73 1125 1065.73 1157.5 c 128,-1,37
 991.733 1190 991.733 1190 833.733 1190 c 2,38,-1
 606.733 1190 l 1,39,-1
 522.928 827 l 1,31,-1
EndSplineSet
Fore
SplineSet
110 0 m 2,0,1
 40 0 40 0 57 75 c 2,2,-1
 354 1359 l 2,3,4
 371 1434 371 1434 441 1434 c 2,5,-1
 851 1434 l 2,6,7
 1152 1434 1152 1434 1279.5 1339.5 c 128,-1,8
 1407 1245 1407 1245 1407 1077 c 256,9,10
 1407 917 1407 917 1276.5 797.5 c 128,-1,11
 1146 678 1146 678 908 647 c 1,12,-1
 908 645 l 1,13,14
 987 612 987 612 1022 549 c 128,-1,15
 1057 486 1057 486 1078 433 c 2,16,-1
 1212 86 l 2,17,18
 1245 0 1245 0 1154 0 c 2,19,-1
 1001 0 l 2,20,21
 946 0 946 0 925 59 c 2,22,-1
 806 396 l 2,23,24
 779 473 779 473 713.5 526 c 128,-1,25
 648 579 648 579 560 579 c 2,26,-1
 466 579 l 1,27,-1
 349 75 l 2,28,29
 332 0 332 0 262 0 c 2,30,-1
 110 0 l 2,0,1
523 827 m 1,31,-1
 732 827 l 2,32,33
 876 827 876 827 998.5 883 c 128,-1,34
 1121 939 1121 939 1121 1049 c 256,35,36
 1121 1137 1121 1137 1034.5 1163.5 c 128,-1,37
 948 1190 948 1190 794 1190 c 2,38,-1
 607 1190 l 1,39,-1
 523 827 l 1,31,-1
EndSplineSet
EndChar

StartChar: Y
Encoding: 89 89 146
Width: 1368
GlyphClass: 1
Flags: W
HStem: 0 21G<453 675> 1414 20G<260 480 1250 1530>
DStem2: 657 994 242 1348 0.339448 -0.940625<-482.148 247.376> 418.302 0 710.302 0 0.224951 0.97437<57.9503 538.695> 869 994 831 525 0.63528 0.772282<-285.722 606.503>
LayerCount: 2
Back
SplineSet
242 1348 m 18,0,1
 211 1434 211 1434 309 1434 c 2,2,-1
 484 1434 l 2,3,4
 536 1434 536 1434 560 1365 c 10,5,-1
 687 994 l 2,6,7
 693 979 693 979 719 900.5 c 128,-1,8
 745 822 745 822 735 748 c 1,9,-1
 739 748 l 1,10,11
 763 822 763 822 825 900.5 c 128,-1,12
 887 979 887 979 899 994 c 2,13,-1
 1198 1365 l 18,14,15
 1254 1434 1254 1434 1306 1434 c 2,16,-1
 1481 1434 l 2,17,18
 1579 1434 1579 1434 1508 1348 c 10,19,-1
 831 525 l 1,20,-1
 723 55 l 2,21,22
 710 0 710 0 640 0 c 2,23,-1
 488 0 l 2,24,25
 418 0 418 0 431 55 c 2,26,-1
 539 525 l 1,27,-1
 242 1348 l 18,0,1
EndSplineSet
Fore
SplineSet
242 1348 m 18,0,1
 211 1434 211 1434 309 1434 c 2,2,-1
 454 1434 l 2,3,4
 506 1434 506 1434 530 1365 c 10,5,-1
 657 994 l 2,6,7
 674 943 674 943 692.5 885.5 c 128,-1,8
 711 828 711 828 711 748 c 1,9,-1
 715 748 l 1,10,11
 734 819 734 819 778.5 877.5 c 128,-1,12
 823 936 823 936 869 994 c 2,13,-1
 1168 1365 l 18,14,15
 1224 1434 1224 1434 1276 1434 c 2,16,-1
 1481 1434 l 2,17,18
 1579 1434 1579 1434 1508 1348 c 10,19,-1
 831 525 l 1,20,-1
 723 55 l 2,21,22
 710 0 710 0 640 0 c 2,23,-1
 488 0 l 2,24,25
 418 0 418 0 431 55 c 2,26,-1
 539 525 l 1,27,-1
 242 1348 l 18,0,1
EndSplineSet
EndChar

StartChar: W
Encoding: 87 87 147
Width: 2022
GlyphClass: 1
Flags: MW
HStem: 0 21G<325 562.5 1219 1456.5> 1414 20G<268.5 495.5 1083.5 1330.5 1918.5 2176>
VStem: 238 282<986.238 1432.05>
DStem2: 613 588 641 96 0.459884 0.887979<-239.409 696.152> 1411 588 1139 934 0.0548101 -0.998497<-523.032 221.792> 1492 582 1539 97 0.448635 0.893715<-233.409 974.547>
LayerCount: 2
Back
SplineSet
238 1354 m 2,0,1
 234 1434 234 1434 302 1434 c 2,2,-1
 487 1434 l 2,3,4
 534 1434 534 1434 535 1368 c 2,5,-1
 543 582 l 2,6,7
 544 496 544 496 543.5 464.5 c 128,-1,8
 543 433 543 433 532 363 c 1,9,-1
 537 363 l 1,10,11
 558 433 558 433 571.5 469 c 152,-1,12
 585 505 585 505 628 588 c 2,13,-1
 1029 1360 l 2,14,15
 1067 1434 1067 1434 1130 1434 c 2,16,-1
 1314 1434 l 2,17,18
 1377 1434 1377 1434 1381 1360 c 2,19,-1
 1426 588 l 2,20,21
 1431 505 1431 505 1427.5 469 c 152,-1,22
 1424 433 1424 433 1413 363 c 1,23,-1
 1418 363 l 1,24,25
 1439 433 1439 433 1453 464.5 c 128,-1,26
 1467 496 1467 496 1507 582 c 2,27,-1
 1879 1368 l 2,28,29
 1910 1434 1910 1434 1957 1434 c 2,30,-1
 2142 1434 l 2,31,32
 2210 1434 2210 1434 2170 1354 c 2,33,-1
 1539 97 l 2,34,35
 1491 0 1491 0 1423 0 c 2,36,-1
 1248 0 l 2,37,38
 1190 0 1190 0 1185 96 c 2,39,-1
 1139 934 l 2,40,41
 1135 1002 1135 1002 1136.5 1022.5 c 128,-1,42
 1138 1043 1138 1043 1146 1099 c 1,43,-1
 1144 1099 l 1,44,45
 1126 1043 1126 1043 1118 1022.5 c 128,-1,46
 1110 1002 1110 1002 1075 934 c 2,47,-1
 641 96 l 2,48,49
 592 0 592 0 534 0 c 2,50,-1
 359 0 l 2,51,52
 291 0 291 0 287 97 c 2,53,-1
 238 1354 l 2,0,1
EndSplineSet
Fore
SplineSet
238 1354 m 2,0,1
 235 1434 235 1434 302 1434 c 2,2,-1
 472 1434 l 2,3,4
 519 1434 519 1434 520 1368 c 2,5,-1
 528 582 l 2,6,7
 529 491 529 491 528.5 462 c 128,-1,8
 528 433 528 433 517 363 c 1,9,-1
 522 363 l 1,10,11
 543 433 543 433 556.5 469.5 c 152,-1,12
 570 506 570 506 613 588 c 2,13,-1
 1014 1360 l 2,14,15
 1052 1434 1052 1434 1115 1434 c 2,16,-1
 1299 1434 l 2,17,18
 1362 1434 1362 1434 1366 1360 c 2,19,-1
 1411 588 l 2,20,21
 1416 504 1416 504 1412.5 468.5 c 152,-1,22
 1409 433 1409 433 1398 363 c 1,23,-1
 1403 363 l 1,24,25
 1424 433 1424 433 1443.5 476.5 c 128,-1,26
 1463 520 1463 520 1492 582 c 2,27,-1
 1864 1368 l 2,28,29
 1895 1434 1895 1434 1942 1434 c 2,30,-1
 2142 1434 l 2,31,32
 2210 1434 2210 1434 2170 1354 c 2,33,-1
 1539 97 l 2,34,35
 1490 0 1490 0 1423 0 c 2,36,-1
 1248 0 l 2,37,38
 1190 0 1190 0 1185 96 c 2,39,-1
 1139 934 l 2,40,41
 1135 1004 1135 1004 1136.5 1023.5 c 128,-1,42
 1138 1043 1138 1043 1146 1099 c 1,43,-1
 1144 1099 l 1,44,45
 1126 1043 1126 1043 1117.5 1021.5 c 128,-1,46
 1109 1000 1109 1000 1075 934 c 2,47,-1
 641 96 l 2,48,49
 591 0 591 0 534 0 c 2,50,-1
 359 0 l 2,51,52
 291 0 291 0 287 97 c 2,53,-1
 238 1354 l 2,0,1
EndSplineSet
EndChar

StartChar: three
Encoding: 51 51 148
Width: 1200
GlyphClass: 1
Flags: W
HStem: -34 224<277.539 678.431> 658 218<480.454 714.858> 1232 224<510.719 852.844>
VStem: 795 300<304.405 579.71> 897 292<977.904 1190.61>
LayerCount: 2
Back
SplineSet
4 102 m 256,0,1
 -28 135 -28 135 19 196 c 2,2,-1
 85 280 l 2,3,4
 132 341 132 341 194 289 c 256,5,6
 246 245 246 245 317.5 217.5 c 128,-1,7
 389 190 389 190 485 190 c 256,8,9
 617 190 617 190 690.5 261.5 c 128,-1,10
 764 333 764 333 784 422 c 256,11,12
 805 513 805 513 754.5 585.5 c 128,-1,13
 704 658 704 658 581 658 c 2,14,-1
 504 658 l 2,15,16
 439 658 439 658 451 711 c 2,17,-1
 477 821 l 2,18,19
 490 876 490 876 554 876 c 2,20,-1
 614 876 l 2,21,22
 706 876 706 876 790 933 c 128,-1,23
 874 990 874 990 893 1076 c 256,24,25
 908 1143 908 1143 872 1187.5 c 128,-1,26
 836 1232 836 1232 731 1232 c 256,27,28
 632 1232 632 1232 553.5 1203 c 128,-1,29
 475 1174 475 1174 424 1133 c 256,30,31
 351 1074 351 1074 322 1138 c 2,32,-1
 283 1223 l 2,33,34
 261 1271 261 1271 326 1321 c 256,35,36
 414 1390 414 1390 535.5 1423 c 128,-1,37
 657 1456 657 1456 766 1456 c 256,38,39
 1023 1456 1023 1456 1124.5 1353.5 c 128,-1,40
 1226 1251 1226 1251 1192 1103 c 256,41,42
 1167 993 1167 993 1059.5 902.5 c 128,-1,43
 952 812 952 812 849 778 c 1,44,-1
 848 774 l 1,45,46
 956 746 956 746 1036 651.5 c 128,-1,47
 1116 557 1116 557 1083 417 c 256,48,49
 1032 198 1032 198 867.5 82 c 128,-1,50
 703 -34 703 -34 420 -34 c 256,51,52
 301 -34 301 -34 182 2.5 c 128,-1,53
 63 39 63 39 4 102 c 256,0,1
EndSplineSet
Fore
SplineSet
48 95 m 256,0,1
 -3 137 -3 137 22 183 c 2,2,-1
 74 280 l 2,3,4
 107 342 107 342 181 289 c 256,5,6
 237 249 237 249 315.5 219.5 c 128,-1,7
 394 190 394 190 491 190 c 256,8,9
 646 190 646 190 720.5 267 c 128,-1,10
 795 344 795 344 795 442 c 256,11,12
 795 544 795 544 731.5 601 c 128,-1,13
 668 658 668 658 569 658 c 2,14,-1
 504 658 l 2,15,16
 438 658 438 658 451 711 c 2,17,-1
 477 821 l 2,18,19
 490 876 490 876 554 876 c 2,20,-1
 604 876 l 2,21,22
 728 876 728 876 812.5 940 c 128,-1,23
 897 1004 897 1004 897 1096 c 256,24,25
 897 1156 897 1156 850.5 1194 c 128,-1,26
 804 1232 804 1232 699 1232 c 256,27,28
 610 1232 610 1232 544 1203 c 128,-1,29
 478 1174 478 1174 428 1136 c 256,30,31
 363 1087 363 1087 325 1141 c 2,32,-1
 271 1217 l 2,33,34
 235 1267 235 1267 291 1315 c 256,35,36
 363 1377 363 1377 484.5 1416.5 c 128,-1,37
 606 1456 606 1456 752 1456 c 256,38,39
 976 1456 976 1456 1082.5 1354 c 128,-1,40
 1189 1252 1189 1252 1189 1123 c 256,41,42
 1189 978 1189 978 1077.5 889 c 128,-1,43
 966 800 966 800 834 778 c 1,44,-1
 834 774 l 1,45,46
 946 748 946 748 1020.5 655 c 128,-1,47
 1095 562 1095 562 1095 427 c 256,48,49
 1095 260 1095 260 949.5 113 c 128,-1,50
 804 -34 804 -34 473 -34 c 256,51,52
 359 -34 359 -34 240.5 -1 c 128,-1,53
 122 32 122 32 48 95 c 256,0,1
EndSplineSet
EndChar

StartChar: two
Encoding: 50 50 149
Width: 1200
GlyphClass: 1
Flags: W
HStem: 0 248<439.901 996.961> 1232 224<584.173 883.757>
VStem: 915 300<960.955 1199.05>
DStem2: 438 531 440 250 0.763594 0.645696<-179.913 556.994>
LayerCount: 2
Back
SplineSet
43 0 m 2,0,1
 -32 0 -32 0 -17 65 c 2,2,-1
 -6 113 l 2,3,4
 6 165 6 165 66 216 c 2,5,6
 438 531 l 2,7,8
 606 674 606 674 743.5 785.5 c 128,-1,9
 881 897 881 897 907 1011 c 256,10,11
 933 1125 933 1125 889 1178.5 c 128,-1,12
 845 1232 845 1232 758 1232 c 256,13,14
 620 1232 620 1232 551.5 1168 c 128,-1,15
 483 1104 483 1104 442 1031 c 256,16,17
 403 960 403 960 346 980 c 2,18,-1
 253 1014 l 258,19,20
 208 1031 208 1031 247 1108 c 256,21,22
 319 1251 319 1251 462.5 1353.5 c 128,-1,23
 606 1456 606 1456 842 1456 c 256,24,25
 1088 1456 1088 1456 1170 1329.5 c 128,-1,26
 1252 1203 1252 1203 1218 1055 c 256,27,28
 1173 861 1173 861 977 714.5 c 128,-1,29
 781 568 781 568 617 429 c 2,30,-1
 406 250 l 9,31,-1
 404 244 l 17,32,33
 465 248 465 248 505 248 c 2,34,-1
 972 248 l 2,35,36
 1047 248 1047 248 1032 183 c 2,37,-1
 1005 65 l 2,38,39
 990 0 990 0 915 0 c 2,40,-1
 43 0 l 2,0,1
EndSplineSet
Fore
SplineSet
43 0 m 2,0,1
 -32 0 -32 0 -17 65 c 2,2,-1
 -6 113 l 2,3,4
 6 165 6 165 66 216 c 2,5,-1
 438 531 l 2,6,7
 627 691 627 691 771 839 c 128,-1,8
 915 987 915 987 915 1075 c 256,9,10
 915 1170 915 1170 870 1201 c 128,-1,11
 825 1232 825 1232 764 1232 c 256,12,13
 645 1232 645 1232 573 1180 c 128,-1,14
 501 1128 501 1128 447 1031 c 256,15,16
 406 958 406 958 363 980 c 2,17,-1
 268 1029 l 258,18,19
 210 1059 210 1059 240 1123 c 256,20,21
 309 1269 309 1269 435 1362.5 c 128,-1,22
 561 1456 561 1456 801 1456 c 256,23,24
 996 1456 996 1456 1105.5 1359.5 c 128,-1,25
 1215 1263 1215 1263 1215 1094 c 256,26,27
 1215 910 1215 910 997 721 c 128,-1,28
 779 532 779 532 655 429 c 2,29,-1
 440 250 l 9,30,-1
 438 244 l 17,31,32
 499 248 499 248 539 248 c 2,33,-1
 972 248 l 2,34,35
 1047 248 1047 248 1032 183 c 2,36,-1
 1005 65 l 2,37,38
 990 0 990 0 915 0 c 2,39,-1
 43 0 l 2,0,1
EndSplineSet
EndChar

